<?xml version="1.0" encoding="UTF-8"?>
<svg id="a" data-name="Camada 1" xmlns="http://www.w3.org/2000/svg" viewBox="0 0 364.25 299.94">
  <path d="M294.54,0l-69.7,64.54,2.44,33.34-45.05-41.72-69.77,64.6,3.64,37.84-46.19-42.77L0,180.56l17.26,119.38h12.77l-15.14-104.75,48.71,32v72.76h12.64v-72.76l48.71-32-15.14,104.75h12.77l17.26-119.38-9.78-9.06-3.5-36.43,49.38,32.44v132.42h12.64v-132.42l49.38-32.44-15.85,164.87h12.69l17.22-179.18-11.13-10.3-2.32-31.74,49.68,32.64v188.58h12.64V111.35l49.68-32.64-16.17,221.22h12.67l17.2-235.4L294.54,0ZM63.59,212.06l-46.22-30.37,46.22-42.8v73.16ZM76.23,212.06v-73.16l46.22,42.8-46.22,30.37ZM175.91,152.39l-46.22-30.37,46.22-42.8v73.16ZM188.54,152.39v-73.16l46.22,42.8-46.22,30.37ZM288.23,96.23l-46.22-30.37,46.22-42.8v73.16ZM300.86,96.23V23.07l46.22,42.8-46.22,30.37Z"/>
</svg>