<?xml version="1.0" encoding="UTF-8"?>
<svg id="b" data-name="Camada 1" xmlns="http://www.w3.org/2000/svg" xmlns:xlink="http://www.w3.org/1999/xlink" viewBox="0 0 777.44 55.37">
  <defs>
    <symbol id="a" data-name="LOGO-INVERT" viewBox="0 0 441.51 366">
      <g>
        <g>
          <path d="M153.81,138.63c1.5-.5,3.03-.91,4.57-1.26-.51-1.58-.83-3.24-1.16-4.77-.54-2.54-.9-5.11-1.13-7.69-.86-9.37.04-18.85,2.54-27.91,1.24-4.52,2.89-8.92,4.94-13.13,1.04-2.13,2.17-4.23,3.41-6.25.28-.46.58-.92.88-1.37-4.16.94-8.17,2.37-12.05,4.4-12.33,6.42-22.01,17.55-25.23,31.22-1.65,6.98-1.23,14.01-.22,21.02.45,3.16,1.28,6.19,2.27,9.23.61,1.89,1.15,3.79,1.8,5.66,1.98-1.34,4.02-2.58,6.14-3.68,2.06-1.08,4.1-2.16,6.33-3.12s4.59-1.57,6.89-2.33Z" fill="#e3e3e3"/>
          <path d="M202.5,264.8c7.57,2.18,15.12,4.41,22.7,6.52.18-3.53.36-7.06.52-10.59.18-3.84.18-7.72.58-11.54-8.57-2.57-16.77-6.35-24.14-11.38-.26,8.99-.44,18.02.34,26.98Z" fill="#e3e3e3"/>
          <path d="M177.96,86.85c.78,2.07,1.56,4.15,2.32,6.24.7,1.92,1.68,3.9,2.03,5.92.09.46-.45.88-.75,1.1-4.56,3.49-9,7.13-13.47,10.74,2.69,1.35,5.47,2.51,8.25,3.68,1.6.67,3.24,1.3,4.74,2.15,1.1.62,2.59,1.27,3.2,2.44.19.17.28.39.24.66,0,.05-.02.1-.03.15,0,.05,0,.1-.03.14-.58,3.51-1.56,6.98-3.07,10.21-.78,1.67-1.66,3.27-2.67,4.84-.26.41-.53.82-.8,1.22,7.14.72,14.19,2.57,20.7,5.48,3.71,1.65,7.24,3.62,10.5,6.02.14-.18.28-.36.42-.54,3.7-5.03,6.07-10.93,7.55-16.96,1.73-7.04,2.42-14.36,1.28-21.53-1.06-6.69-3.75-13.32-7.9-18.68-2.12-2.73-4.52-5.37-7.34-7.38-2.99-2.13-6.37-3.87-9.7-5.08-3.34-1.21-6.8-2.01-10.32-2.41-1.28-.14-2.78-.24-4.39-.24-1.5,0-3.52.08-4.58.18-.16.02-.31.04-.46.06,1.4,3.87,2.82,7.74,4.27,11.59Z" fill="#e3e3e3"/>
          <path d="M267.14,257.19c.23,2.1.46,4.2.69,6.3.23,2.1.46,4.2.69,6.3.05.53.11,1.05.17,1.58.02.14.15.9.2,1.18.13-.03.27-.07.4-.1.44-.11.88-.23,1.32-.34,8.02-2.05,15.99-4.26,23.96-6.47,1.41-6.95,1.94-14.06,1.79-21.14-2.48,1.11-5.03,2.14-7.67,3.06-7.16,2.51-14.55,4.21-22.04,5.09.25,1.48.33,2.99.5,4.54Z" fill="#e3e3e3"/>
          <path d="M150.5,335.51s0,0,0,0c-.08.11-.18.22-.33.31-2.47,1.51-5.25,2.38-8.15,2.58-6.17.45-12.27-1.89-17.67-4.64-5.91-3-11.56-6.67-17.12-10.27-11.11-7.21-21.13-16.1-29.11-26.68-1.99-2.63-3.85-5.28-5.68-8.08-1.84-2.8-3.54-5.75-5.64-8.36-3.98-4.95-7.45-10.46-10.44-16.07-2.97-5.58-5.25-11.39-6.62-17.64-1.37-6.25-1.91-12.5-2.31-19.01-.4-6.52-.61-13.03-1.23-19.52-.69-7.19-1.74-14.32-2.31-21.51-1.08-13.59-1.02-27.31,1.33-40.77,2.05-11.82,5.85-23.21,10.95-34.05,2.78-5.89,5.89-11.62,9.22-17.23,3.16-5.32,6.39-10.61,10.17-15.52,3.47-4.48,7.31-8.93,11.08-12.91,3.77-3.99,7.78-7.71,12.51-10.55,9.29-5.57,20.46-7.89,31.22-8.42,0,0,0,0,.01,0,1.43-1.08,2.88-2.14,4.35-3.18,15.52-11.03,32.74-19.57,50.83-25.47,8.98-2.93,18.16-5.22,27.44-6.9-2.62-.09-5.25-.13-7.87-.13-30.34-.02-60.92,5.97-88.37,19.14,0,0,0,0-.01,0-1.9,1.38-3.81,2.75-5.72,4.13-18.44,13.41-34.74,29.83-48.23,48.2-13.52,18.41-24.23,39.14-30.37,61.2-5.78,20.79-7.01,42.15-4.45,63.76,2.56,21.61,8.79,42.84,18.24,62.43,4.73,9.81,10.3,19.25,16.74,28.03,4.35,5.93,9.11,11.51,14.16,16.83,0,0,.01,0,.02.01,8.35,6.75,17.37,12.62,27.02,17.66,17.15,8.94,36.09,14.87,55.23,18.12,17.69,3.02,35.51,3.63,53.43,3.25-11.34-1.64-22.58-4.03-33.57-7.36-9.87-2.99-19.49-6.79-28.71-11.39ZM147.3,26.86c0-.19.09-.36.23-.5l.26-.21c.23-.14.48-.22.73-.26l.44-.03c.23,0,.44.02.65.09.19.03.37.11.54.21.15.06.26.17.35.31.1.1.14.23.14.38,0,.09,0,.16-.03.25v.12c0,.12-.02.26-.08.37-.06.14-.16.25-.29.32-.13.12-.28.19-.45.25l-.39.1-.43.03c-.22,0-.42-.02-.63-.09-.13,0-.25-.05-.36-.12-.16-.05-.3-.15-.42-.27l-.16-.23c-.06-.11-.06-.25-.09-.37v-.12l-.02-.25h.01ZM130.42,28.99c.12-.22.29-.38.51-.49.25-.16.52-.26.8-.31.3-.1.63-.13.95-.13.43,0,.85.06,1.25.21l.5.24c.28.15.5.38.64.66.14.22.27.44.41.66.06.11.14.23.21.34.04.05.06.1.09.16.02.06.03.12.05.17.11.25.11.51,0,.76-.14.27-.35.48-.61.63-.14.1-.3.17-.48.23-.38.13-.77.19-1.17.19-.21,0-.42-.02-.64-.05-.37-.06-.71-.18-1.04-.37-.19-.13-.36-.28-.53-.43-.12-.11-.19-.25-.28-.37-.18-.26-.36-.51-.54-.77h-.01c-.21-.19-.32-.45-.34-.75,0-.22.08-.41.22-.57ZM33.89,165.21h0c0-.18.09-.35.23-.49l.26-.21c.23-.14.48-.22.73-.26l.44-.03c.23-.01.44.02.65.09.19.03.37.11.54.21.15.06.26.17.35.31.1.1.14.23.14.38,0,.09,0,.16-.03.25v.12c0,.12-.02.26-.08.37-.06.14-.16.25-.29.32-.13.12-.28.19-.45.25l-.39.1-.43.03c-.22,0-.42-.02-.63-.09-.13,0-.25-.05-.36-.12-.16-.05-.3-.15-.42-.27l-.16-.23c-.06-.11-.06-.25-.09-.37v-.12l-.02-.25h.01ZM37.6,212.37c-.03.78-.82,1.11-1.61,1.19-.94.11-2.47-.1-2.5-1.19v-.3h-.02c-.04-1.7,4.19-1.69,4.14,0v.3ZM40.06,226.17c-.52,0-1.57-.22-1.57-.92s1.05-.92,1.57-.92,1.57.22,1.57.92-1.04.92-1.57.92ZM154.95,343.33c-.14.27-.35.48-.61.63-.14.1-.3.17-.48.23-.38.13-.77.19-1.17.19-.21,0-.42-.02-.64-.05-.37-.06-.71-.18-1.04-.37-.19-.13-.36-.28-.53-.43-.12-.11-.19-.25-.28-.37-.18-.26-.36-.51-.54-.77h-.01c-.21-.19-.32-.45-.34-.75,0-.22.08-.41.22-.57.12-.22.29-.38.51-.49.25-.16.52-.26.8-.31.3-.1.63-.13.95-.13.43,0,.85.06,1.25.21l.5.24c.28.15.5.38.64.66.14.22.27.44.41.66.06.11.14.23.21.34.04.05.06.1.09.16.02.06.03.12.05.17.11.25.11.51,0,.76Z" fill="#e3e3e3"/>
          <path d="M39.48,263.63c-8.73-20.08-14.19-41.68-15.9-63.51-1.7-21.76.51-43.71,7.37-64.47,7.26-21.97,18.93-42.38,33.26-60.5,7.24-9.17,15.45-17.97,23.82-25.68,2.77-2.55,5.61-5.07,8.52-7.53-.02.02-.05.03-.07.04-15.67,10.13-29.85,22.64-41.83,36.9-8.32,9.91-15.61,20.68-21.66,32.12-3.01,5.71-5.74,11.58-8.11,17.58-1.19,3-2.33,6.05-3.32,9.09-1,3.04-1.64,6.23-2.48,9.32-3.97,14.81-5.85,30.03-4.86,45.34.79,12.21,2.97,23.99,6.28,35.59,3.84,13.42,9.17,26.42,15.94,38.64,6.3,11.38,13.79,21.92,22.53,31.55.01.02.03.03.04.05-7.77-10.74-14.28-22.42-19.54-34.53Z" fill="#e3e3e3"/>
          <path d="M216.16,44.68h.14s-.07,0-.11,0h-.03Z" fill="#e3e3e3"/>
          <polygon points="384.32 214.71 383.93 214.69 383.88 214.69 384.31 214.71 384.32 214.71" fill="#e3e3e3"/>
          <path d="M112.93,75.82c6.61-9.1,14.08-17.66,22.12-25.41,1.59-1.53,3.21-3.04,4.86-4.54-.04.02-.07.05-.11.07-7.45,5.22-14.5,10.99-21.11,17.25-12.57,11.92-23.53,25.53-32.36,40.46-8.82,14.94-15.54,31.14-19.54,48.02-3.91,16.33-5.09,33.18-3.58,49.95,1.51,16.76,5.66,33.34,11.99,48.79,6.34,15.44,15.19,30.17,25.55,42.76,7.53,9.15,16.16,17.37,25.7,24.37,0,0,0,0,0,0-15.34-15.21-27.03-34.01-35.3-53.91-8.38-20.14-13.4-41.83-14.84-63.51s.84-43.52,6.98-64.38c6.32-21.51,16.46-41.81,29.63-59.93Z" fill="#e3e3e3"/>
          <path d="M371.58,125.33c2.82-6.96,4.6-14.15,4.59-21.82-.01-7.67-1.82-15.18-5.36-22-1.38-2.66-2.94-5.23-4.97-7.45-1.79-1.97-3.75-3.69-5.72-5.15-5.32-4-11.58-7.46-18.05-8.89-4.4-.98-8.9-1.1-13.28-.45,2.36,1.77,4.57,3.77,6.74,5.57,3.19,2.64,6.33,5.31,9.26,8.23.56.57.31,1.16-.16,1.58-.2.69-.73,1.32-1.13,1.94-.59.93-1.16,1.87-1.7,2.83-1.09,1.93-2.11,3.93-3.02,5.92-.91,1.99-1.76,4.01-2.56,6.05-.37.93-.76,1.8-1.16,2.76-.16.39-.31.79-.48,1.18.85.08,1.69.23,2.53.33,1.5.19,2.93.49,4.46.76,1.53.27,3.13.55,4.61.81,1.48.26,3.36.31,4.66,1.13.26.16.69.54.64.92,0,.01,0,.02,0,.03.08.12.15.26.16.42.46,4.92.57,9.89.1,14.81-.24,2.38-.55,4.75-.99,7.1-.21,1.11-.44,2.29-.79,3.42,1.74.04,3.48.13,5.21.3,5.09.52,10.07,1.73,14.86,3.48.5-1.27,1.02-2.53,1.53-3.8Z" fill="#e3e3e3"/>
          <path d="M440.89,185.38c-1.53-16.81-5.3-33.31-8.95-49.27-.88-3.84-1.76-7.68-2.6-11.52l-.17-.76c-4.03-18.25-8.2-37.11-18.71-53.83-5.74-9.15-13.03-16.41-19.41-22.31-7.99-7.37-16.28-13.88-24.66-19.36-9.72-6.35-19.49-11.26-29.03-14.61-8.88-3.12-18.56-5.72-30.45-8.19-17.61-3.66-35.43-5.52-52.97-5.52-3.05,0-6.14.06-9.17.17-5.35.2-10.72.58-15.96,1.13-7.95-.73-15.94-1.1-23.76-1.1-25.26,0-49.43,3.77-71.83,11.22-27.7,9.22-53.48,24.76-74.55,44.95-19.93,19.1-35.81,42.48-45.94,67.64-1.29,3.21-2.46,6.41-3.51,9.52-.33,1.01-.71,2.03-1.08,3.08-.8,2.21-1.62,4.5-2.28,6.93-1.81,6.6-3.23,13.31-4.23,19.94C.48,170.95-.05,177.77,0,184.33c.07,11.57,1.59,23.94,4.51,36.76,3.2,14,7.94,27.6,14.09,40.43,7.02,14.67,15.81,28.21,26.12,40.23,11.5,13.41,25,24.96,40.12,34.34,16.63,10.3,35.5,18.08,56.09,23.12,18.36,4.5,37.89,6.78,58.04,6.78,4.85,0,9.79-.13,14.69-.4,5.88-.32,11.17-.77,16.16-1.37,1.93.16,3.95.3,6.13.43,8.2.51,15.42.76,22.06.76,14.67,0,27.45-1.22,39.06-3.73,18.88-4.07,37.39-11.43,55.02-21.88,16.93-10.05,32.45-22.55,46.11-37.15,15.73-16.78,27.31-34.82,34.41-53.6,7.42-19.63,10.28-41.65,8.27-63.69ZM425.13,246.24c-7.2,19.05-18.88,36.15-32.76,50.96-13.01,13.9-27.98,26.02-44.36,35.74-16.31,9.67-34.06,16.94-52.62,20.94-19.31,4.17-39.56,4.01-58.93,2.8-2.26-.14-4.53-.3-6.79-.49-5.47.68-10.94,1.12-16.44,1.42-23.55,1.27-47.44-.54-70.39-6.16-18.91-4.63-37.2-11.88-53.78-22.15-14.33-8.89-27.28-19.95-38.26-32.75-9.98-11.64-18.36-24.65-24.98-38.48-5.93-12.36-10.46-25.4-13.51-38.76-2.62-11.49-4.24-23.24-4.31-35.03-.05-6.58.53-13.11,1.51-19.6.97-6.42,2.33-12.78,4.04-19.02.89-3.28,2.22-6.53,3.24-9.59,1.03-3.06,2.15-6.08,3.35-9.08,9.79-24.32,25.12-46.7,44.05-64.84,20.32-19.47,44.83-34.25,71.54-43.14,29.92-9.94,61.83-12.63,93.12-9.67,5.39-.59,10.79-.98,16.2-1.18,20.17-.75,40.47,1.08,60.22,5.19,9.91,2.06,19.86,4.55,29.43,7.91,9.64,3.38,18.92,8.28,27.31,13.76,8.38,5.48,16.26,11.76,23.61,18.54,6.77,6.26,13.14,12.84,18.06,20.68,9.91,15.77,13.87,34.11,17.84,52.07,4.36,19.78,9.56,39.57,11.4,59.79,1.85,20.36-.59,41.08-7.79,60.14Z" fill="#e3e3e3"/>
          <path d="M330.72,125.46c-.55-1.17-1.07-2.35-1.56-3.53-1.02-2.5-1.9-5.05-2.83-7.58-3.22-8.73-5.66-17.81-6.57-27.08-.85-8.69-.22-17.38,1.76-25.86-4.85,1.76-9.37,4.5-13.2,8.13-9.65,9.14-15.51,22.6-16.2,35.8-.37,7.19.64,14.42,2.99,21.2,1.17,3.34,2.65,6.54,4.4,9.61.89,1.57,1.84,3.1,2.9,4.56.52.71,1.09,1.44,1.6,2.1.05.06.07.12.11.18.52-.49,1.04-.99,1.58-1.46,6.55-5.72,14.2-10.32,22.47-13.02,1.16-.38,2.33-.72,3.51-1.03-.34-.66-.64-1.36-.95-2.02Z" fill="#e3e3e3"/>
          <path d="M416.6,127.57c-1.99-9.03-4.09-17.96-7.12-26.7-2.96-8.52-6.16-16.97-10.81-24.61-4.64-7.64-10.81-14.04-17.33-20.12-14.24-13.29-30.74-25-49.2-31.57-9.24-3.3-18.86-5.71-28.46-7.7-9.66-2.01-19.42-3.47-29.25-4.33-19.38-1.72-39.08-1.03-58.23,2.29-19.02,3.3-37.66,9.26-54.84,18.08-1.33.96-2.66,1.93-3.99,2.9-17.79,13.09-33.1,29.33-45.42,47.81-12.32,18.47-21.53,39.06-26.92,60.6-5.21,20.87-6.7,42.16-4.43,63.71,2.27,21.55,8.03,42.77,17.16,62.43,4.56,9.81,10.07,19.4,16.28,28.03,5.84,8.12,12.47,15.58,19.62,22.55,7.04,4.86,14.44,9.18,22.13,12.93,16.39,7.96,34.06,13.12,52,16.19,19.22,3.29,38.79,4.24,58.26,3.89,18.41-.34,36.4-4.31,53.6-11.22,17.21-6.91,33.31-16.61,47.69-28.27,14.84-12.04,28.33-26.17,38.79-42.21,11.16-17.11,19-37.12,21.36-56.95,2.37-19.83-.43-39.7-4.52-59.11-2.02-9.57-4.26-19.08-6.36-28.62ZM276.09,188.15c.02-.15.09-.28.21-.38l.27-.21.35-.16c.21-.08.42-.12.64-.12.15-.02.3-.02.45,0,.22,0,.43.04.64.12l.35.16c.11.05.22.1.32.15.02.01.05.02.08.03.14.06.25.17.36.27l.12.11c.16.15.26.33.26.56l-.06.3c-.12.22-.27.38-.49.5l-.38.17c-.23.08-.46.13-.7.13-.25.03-.5.02-.75-.02-.23-.03-.44-.1-.64-.21-.18-.06-.35-.17-.49-.31l-.12-.11c-.12-.1-.19-.23-.26-.37-.03-.08-.08-.15-.11-.23h-.01c-.08-.13-.09-.27-.03-.4ZM274.8,60.86v.3c-.03.78-.82,1.11-1.61,1.19-.94.11-2.47-.1-2.5-1.19v-.3h-.02c-.04-1.7,4.19-1.69,4.14,0ZM229.03,67.51c.52,0,1.57.22,1.57.92s-1.04.92-1.57.92-1.57-.22-1.57-.92,1.05-.92,1.57-.92ZM215.11,43.73l.13-.18c.11-.13.28-.2.44-.26.3-.24.69-.36,1.07-.43.28-.05.55-.05.82-.02.27,0,.52.05.77.14.54.21.98.46,1.42.84.11.1.21.21.29.31.15.19.3.4.41.63.1.22.1.43,0,.65l-.21.29c-.21.21-.45.36-.73.44l-.49.12c-.28.05-.55.05-.82.02-.27,0-.52-.05-.77-.14-.36-.13-.77-.37-.94-.73-.02-.03-.03-.06-.05-.08-.06-.08-.13-.14-.21-.21-.02-.01-.04-.02-.05-.03-.32-.13-.72-.36-.88-.71-.11-.09-.2-.2-.23-.34-.04-.1-.03-.21.02-.3ZM125.86,209.05c0,.21-.05.37-.18.51-.06.13-.16.23-.28.29-.18.15-.39.27-.62.34l-.08.03h.01c-.15.05-.3.09-.47.12l-.49.04c-.12,0-.22-.02-.33-.03-.02,0-.03,0-.05,0-.28,0-.55-.05-.81-.15l-.44-.21-.35-.26s-.05-.05-.08-.08c0-.01-.03-.03-.04-.04-.08-.11-.15-.22-.24-.32v-.02c-.05-.09-.08-.29-.1-.43,0-.06-.02-.13-.04-.19v-.04c0-.09,0-.08.03-.22.05-.23.02-.15.16-.35,0-.01.02-.02.03-.03.02-.03.04-.06.08-.12.06-.1.06-.12.13-.16,0-.01.04-.03.04-.03h.01c.13-.15.29-.25.46-.31.13-.08.26-.12.4-.14.23-.08.45-.1.69-.1l.48.04c.15.03.31.08.45.12,0,.01.03.01.04.01.05.01.09.03.14.05.03.01.06.01.09.03.15.06.29.14.44.22h.02c.19.1.35.24.45.42.04.05.09.11.12.16,0,.02.03.03.03.05.04.06.08.12.12.18l.06.1v.02l.08.36v.15ZM136.84,182.09l-.24.35c-.17.18-.38.31-.62.4-.17.1-.35.15-.53.18-.3.09-.61.12-.92.12l-.64-.05c-.29-.03-.56-.12-.81-.26-.24-.09-.44-.22-.62-.4-.14-.13-.25-.34-.36-.51-.04-.06-.08-.12-.12-.18-.09-.12-.16-.23-.24-.36-.08-.13-.16-.25-.24-.38-.11-.16-.18-.31-.17-.53,0-.06.03-.13.03-.19,0-.27.11-.5.3-.68.24-.23.51-.39.81-.49.37-.12.75-.18,1.13-.18s.77.05,1.13.18c.16.06.32.14.48.23v-.02c.07.03.15.08.22.12.32.18.48.39.66.69.02.03.03.05.05.09.06.13.14.24.22.37.08.13.15.25.23.38.04.06.08.12.11.17.03.06.09.13.11.19.11.26.11.51,0,.77ZM122.11,165.3c-2.39,3.4-4.4,7.02-6.12,10.86-1.72,3.84-2.73,7.89-4.25,11.79h.01c-.44,1.11-3.67,1.13-3.62-.3.18-4.88,2.22-9.82,4.29-14.25s4.77-8.6,7.8-12.43c3.15-3.97,6.8-7.57,10.81-10.7-.71-.99-1.4-1.99-2.05-3.02-3.66-5.77-5.59-12.99-6.21-19.75-.71-7.73.24-15.67,3.08-22.91,5.45-13.91,17.62-24.5,31.35-29.84,14.59-5.67,31.31-5.39,45.39,1.62,7.12,3.54,13.21,8.87,17.37,15.66,3.91,6.4,6.07,13.67,6.54,21.33.46,7.67-.96,15.7-3.4,22.96-1.95,5.83-5,11.19-8.95,15.88.71.76,1.37,1.56,1.98,2.41.75,1.06,1.43,2.16,2.03,3.31.31.58.63,1.21.65,1.89.02.57-.25,1.24-.4,1.8-.3,1.18-2.16,1.61-3.14,1.71-1.32.13-2.81-.17-3.77-1.13-.63-.63-1.25-1.16-1.62-1.99-.23-.49-.36-1.02-.58-1.5-.45-.98-.99-1.93-1.63-2.81-1.3-1.76-2.83-3.38-4.52-4.77-3.7-3.04-8.23-5.23-12.69-6.91-8.25-3.11-17.16-4.2-25.94-3.43-4.23.38-8.81,1.01-12.96,2.37-2.07.68-4.2,1.29-6.18,2.24-1.87.91-3.7,1.91-5.46,3.02-6.99,4.36-13.07,10.17-17.8,16.9ZM149.33,304.63l-.25.36c-.17.19-.39.34-.63.42-.16.1-.35.16-.54.19-.3.1-.62.13-.94.13l-.65-.05c-.29-.04-.57-.13-.83-.27-.24-.1-.44-.24-.63-.42-.07-.09-.14-.17-.2-.25-.19-.1-.36-.22-.52-.38l-.28-.4c-.11-.17-.21-.35-.3-.52-.11-.22-.12-.44-.04-.66.01-.15.07-.27.15-.4.07-.14.17-.27.27-.39.17-.18.38-.31.61-.4.16-.1.33-.15.52-.18.29-.09.59-.12.91-.12l.63.05c.21.04.43.08.64.15.2.05.39.12.57.22.27.13.52.23.71.49.04.04.08.1.12.15.09.11.16.21.24.31.19.17.3.38.32.63.05.1.05.2.03.31.04.08.08.16.12.24h-.02c.12.26.12.53,0,.79ZM278.19,331.57v.12c-.01.12-.02.26-.08.37-.06.14-.16.25-.29.32-.13.12-.28.19-.45.25l-.39.1-.43.03c-.22,0-.42-.02-.63-.09-.13,0-.25-.05-.36-.12-.16-.05-.3-.15-.42-.27l-.16-.23c-.06-.11-.06-.25-.09-.37v-.12l-.02-.25h.01c0-.18.09-.35.23-.49l.26-.21c.23-.14.48-.22.73-.26l.44-.03c.23-.01.44.02.65.09.19.03.37.11.54.21.15.06.26.17.35.31.1.1.14.23.14.38-.01.09-.01.16-.03.25ZM333.99,294.97c-.04.21-.08.43-.18.62-.09.13-.18.27-.28.39-.03.05-.09.1-.13.13-.18.17-.41.3-.66.39-.22.09-.44.13-.68.13-.25.03-.49.02-.73-.02-.23-.02-.43-.09-.63-.19-.18-.06-.33-.16-.48-.3-.15-.15-.25-.34-.25-.55l.06-.29c.06-.13.15-.23.25-.32.01-.01.03-.03.04-.04.02-.04.04-.09.06-.13,0-.04.01-.08.01-.12,0-.1.02-.19.02-.29,0-.04.01-.07.02-.11-.07-.1-.12-.2-.12-.33l.05-.23c.08-.22.33-.37.53-.45.28-.13.58-.18.9-.18.37,0,.72.1,1.05.26.16.07.29.19.42.29.02.01.05.02.07.03l.27.21.17.24s.03.05.05.09c.06.1.1.18.12.3.03.17.06.32.03.5ZM369.03,187.74c-1.19,2.43-5.54,2.02-6.85,0-.59-.92-.55-2.32-.9-3.34-.35-1.02-.81-2.01-1.39-2.91-1.25-1.91-3.07-3.39-5.04-4.52-2.06-1.17-4.24-1.97-6.44-2.45-.09,1.43-.22,2.86-.44,4.27-1.31,8.27-4.04,16.42-7.85,24.01.14.13.25.28.3.46.73,2.57,1.36,5.18,1.88,7.8,4.17,21.25-.09,44.42-10.97,63.06-10.22,17.51-26.34,31.23-45.01,39.01-19.73,8.22-42.02,9.09-62.5,3.13-10.47-3.05-20.44-7.95-29.28-14.34-4.64-3.35-8.89-7-12.21-11.64-3.32-4.64-5.75-9.75-7.6-15.13-3.45-10.08-5.58-20.95-5.2-31.63.18-5.2.53-10.6,2-15.76s3.72-9.94,6.7-14.39c.18-.27.43-.48.73-.66-.38-.68-.76-1.37-1.11-2.06-3.11-6.06-4.14-12.81-4.22-19.56-3.59.87-6.9,2.68-9.62,5.2-3.25,3.02-5.72,6.82-7.2,11-.75,2.11-1.24,4.32-1.58,6.53-.16,1.11-.22,2.25-.21,3.38.01,1.13-.13,2.23-.06,3.36h0s0,0,0,0c.09,1.4-3.23,1.46-3.62.29-.48-1.43-.94-2.7-1.08-4.21-.13-1.43-.18-2.89-.09-4.31.19-2.76.99-5.51,2.07-8.05,1.98-4.63,5.13-8.65,9.12-11.69,4.23-3.23,8.95-4.85,14.43-5.5,5.48-.65,11.09-.06,16.19,2.11,2.45,1.05,4.81,2.35,6.91,3.99,1.09.85,2.15,1.75,3.11,2.74,1.06,1.09,2.18,2.11,1.48,3.72-.56,1.29-2.65,1.62-3.85,1.35-1.13-.26-2.19-.51-3.02-1.4-.42-.45-.8-.96-1.22-1.42-.77-.82-1.59-1.6-2.46-2.29-1.93-1.5-3.99-2.66-6.12-3.47-2.13-.81-3.73-1.32-5.84-1.6-.49-.07-1-.12-1.53-.16,0,1.04.02,2.07.08,3.11.18,3.5.63,7.01,1.63,10.37,1.09,3.65,2.98,7.07,4.98,10.3,4.02,6.49,9.23,12.24,15.1,17.11,12.67,10.49,28.74,16.24,45,17.81,15.54,1.5,31.46-1.12,45.78-7.29,7.2-3.1,14.26-7.21,20.11-11.91,5.85-4.7,10.96-10.17,15.51-16.12,8.99-11.76,14.24-25.5,16.75-40-.26,0-.52-.02-.78-.02-3.78,0-7.71,1.19-11.03,2.94-2.03,1.07-4.01,2.3-5.75,3.81-1.6,1.38-3.1,3.19-5.08,4.01h.03c-.7.3-2.05.14-2.23-.75-.36-1.8,1.98-4,3.14-5.1,1.5-1.43,3.18-2.76,4.96-3.81,6.84-4.07,15.36-5.61,23.2-4.43,4.7.7,9.14,2.44,12.78,5.53,1.69,1.44,3.08,3.19,4.12,5.14.88,1.66,2.14,4.57,1.25,6.39ZM386.1,215.52c-.21.19-.45.35-.72.43-.38.17-.86.21-1.28.23-.23.02-.51-.02-.7-.04h-.06l-.52-.13c-.09-.03-.16-.06-.24-.11-.08-.03-.15-.08-.23-.11-.01-.01-.03-.01-.03-.01-.16-.09-.3-.22-.44-.34-.04-.02-.06-.06-.1-.1-.09-.12-.17-.24-.25-.36-.01-.02-.03-.04-.03-.06-.05-.15-.09-.32-.11-.49,0-.19.05-.36.18-.5,0,0,0-.01.01-.02.01-.03.02-.06.03-.09.09-.17.21-.32.32-.46.03-.03.05-.06.09-.09.13-.11.26-.21.4-.3.03-.02.06-.04.1-.05.32-.16.53-.25.9-.31.29-.05.6-.05.9-.01.46.02.91.12,1.31.35h0s0,0,0,0c0,0,.01,0,.02,0h0c.15.08.27.19.35.32.1.11.15.24.15.4l-.06.28-.05.07.16.12.16.24.05.26c0,.1-.03.2-.05.3-.02.22-.1.41-.26.56ZM393.65,171.18c-.14.27-.35.48-.61.63-.14.1-.3.17-.48.23-.38.13-.77.19-1.17.19-.21,0-.42-.02-.64-.05-.37-.06-.71-.18-1.04-.37-.19-.13-.36-.28-.53-.43-.12-.11-.19-.25-.28-.37-.18-.26-.36-.51-.54-.77h-.01c-.21-.19-.32-.45-.33-.75,0-.22.08-.41.22-.57.12-.22.29-.38.51-.49.25-.16.52-.26.8-.31.3-.1.63-.13.95-.13.43,0,.85.06,1.25.21l.5.24c.28.15.5.38.64.66.14.22.27.44.41.66.06.11.14.23.21.34.04.05.06.1.09.16s.03.12.05.17c.11.25.11.51,0,.76ZM395.95,152.31c-3.54-3.21-6.62-6.83-10.47-9.73-3.63-2.73-7.42-5.08-11.54-7.01-3.62-1.71-7.61-3.1-11.4-4-1.98-.48-3.99-.88-6.01-1.18-2.14-.32-3.54-.46-5.54-.54-7.93-.31-15.11,1.06-22.53,4.08-14.3,5.82-26.29,17.71-32.19,32.18-1.16,2.85-8.62,1.99-7.29-1.26,2.91-7.16,7.25-13.73,12.6-19.32-.74-.35-1.48-.72-2.03-1.32-.64-.7-1.22-1.48-1.79-2.24-9.12-12.05-12.89-27.99-10.48-42.88,2.22-13.62,9.61-27.09,20.85-35.28,11.69-8.52,28.14-10.81,41.83-6.45,7.04,2.24,13.51,6.19,19.05,11.02,5.17,4.5,8.81,10.29,11.29,16.65,2.94,7.54,3.99,15.78,3.2,23.81-.76,7.76-2.54,16.19-6.66,22.9-.05.08-.12.15-.17.23,1.33.66,2.64,1.34,3.92,2.08,3.73,2.15,7.31,4.82,10.47,7.73,3,2.76,6.31,5.98,8.02,9.74v.02h.02c.67,1.48-2.47,1.37-3.13.78ZM407.48,191.95c-.02.14-.04.28-.1.41,0,.05-.03.1-.05.15-.04.11-.09.23-.13.34-.1.19-.25.35-.44.45l-.35.16c-.42.16-.9.17-1.34.11-.22-.02-.41-.09-.59-.18-.16-.06-.31-.16-.44-.29-.12-.1-.19-.23-.21-.38-.05-.14-.04-.27.03-.41.03-.12.08-.25.11-.37.03-.12.08-.23.13-.35.05-.12.11-.23.16-.35.03-.06.05-.12.09-.18.06-.11.14-.21.23-.3,0-.02.02-.04.03-.05h-.01c.14-.28.43-.43.7-.54.3-.11.66-.13.97-.11.31.02.61.1.88.25.13.06.24.16.31.29.09.1.13.21.13.35l-.02.12c.03.07.05.14.05.22l-.13.66Z" fill="#e3e3e3"/>
        </g>
        <g>
          <path d="M151.55,143.14c4.15-1.36,8.73-1.99,12.96-2.37,8.78-.78,17.69.31,25.94,3.43,4.45,1.68,8.99,3.87,12.69,6.91,1.69,1.38,3.22,3,4.52,4.77.64.88,1.18,1.83,1.63,2.81.23.49.36,1.02.58,1.5.37.83.99,1.36,1.62,1.99.96.96,2.45,1.26,3.77,1.13.98-.1,2.84-.53,3.14-1.71.15-.56.42-1.23.4-1.8-.02-.68-.34-1.31-.65-1.89-.61-1.15-1.29-2.25-2.03-3.31-.6-.85-1.27-1.65-1.98-2.41,3.94-4.69,7-10.05,8.95-15.88,2.44-7.26,3.87-15.29,3.4-22.96-.46-7.66-2.63-14.94-6.54-21.33-4.16-6.79-10.24-12.11-17.37-15.66-14.08-7.01-30.8-7.29-45.39-1.62-13.74,5.34-25.9,15.93-31.35,29.84-2.84,7.24-3.79,15.18-3.08,22.91.63,6.77,2.55,13.98,6.21,19.75.66,1.03,1.34,2.03,2.05,3.02-4.01,3.13-7.65,6.73-10.81,10.7-3.04,3.83-5.73,8-7.8,12.43-2.07,4.43-4.11,9.37-4.29,14.25-.05,1.44,3.18,1.42,3.62.29h-.01c1.51-3.89,2.53-7.94,4.25-11.78,1.72-3.84,3.73-7.46,6.12-10.86,4.73-6.73,10.81-12.55,17.8-16.9,1.76-1.1,3.59-2.11,5.46-3.01,1.98-.95,4.11-1.56,6.18-2.24ZM178.74,75.02c1.61,0,3.11.1,4.39.24,3.52.4,6.98,1.2,10.32,2.41,3.34,1.21,6.71,2.95,9.7,5.08,2.82,2.01,5.22,4.65,7.34,7.38,4.15,5.36,6.84,12,7.9,18.69,1.15,7.16.45,14.49-1.28,21.53-1.48,6.03-3.86,11.93-7.55,16.96-.14.18-.28.36-.42.54-3.26-2.4-6.8-4.37-10.5-6.02-6.51-2.91-13.56-4.76-20.7-5.48.27-.4.54-.81.8-1.22,1.01-1.57,1.89-3.17,2.67-4.84,1.5-3.24,2.49-6.7,3.07-10.21.02-.04.02-.09.03-.14,0-.05.02-.1.03-.15.04-.26-.05-.48-.24-.66-.6-1.17-2.1-1.81-3.2-2.44-1.5-.85-3.14-1.48-4.74-2.15-2.78-1.17-5.55-2.33-8.25-3.68,4.47-3.6,8.91-7.24,13.47-10.74.29-.23.83-.64.75-1.1-.36-2.02-1.33-4-2.03-5.92-.77-2.09-1.55-4.16-2.32-6.24-1.45-3.85-2.87-7.72-4.27-11.59.16-.02.31-.04.46-.06,1.06-.11,3.08-.18,4.58-.18ZM134.44,147.77c-.65-1.87-1.19-3.77-1.8-5.66-.99-3.04-1.82-6.07-2.27-9.23-1.02-7.01-1.44-14.04.22-21.02,3.22-13.67,12.9-24.8,25.23-31.22,3.88-2.02,7.89-3.46,12.05-4.4-.3.45-.6.91-.88,1.37-1.24,2.02-2.38,4.12-3.42,6.25-2.05,4.21-3.7,8.61-4.94,13.13-2.5,9.07-3.4,18.54-2.54,27.91.24,2.58.59,5.15,1.13,7.69.33,1.53.65,3.18,1.16,4.77-1.54.35-3.07.76-4.57,1.26-2.3.77-4.66,1.37-6.89,2.33-2.24.96-4.27,2.04-6.33,3.12-2.12,1.1-4.16,2.34-6.14,3.68Z"/>
          <path d="M399.09,151.53h-.02v-.02c-1.71-3.76-5.01-6.98-8.02-9.74-3.17-2.91-6.74-5.58-10.47-7.73-1.28-.74-2.6-1.42-3.92-2.08.06-.08.12-.14.17-.23,4.12-6.71,5.9-15.14,6.66-22.9.79-8.03-.26-16.26-3.2-23.81-2.49-6.37-6.13-12.16-11.29-16.65-5.54-4.83-12.02-8.79-19.05-11.02-13.69-4.36-30.14-2.06-41.83,6.45-11.24,8.19-18.63,21.67-20.85,35.28-2.41,14.89,1.36,30.83,10.48,42.88.57.76,1.16,1.53,1.79,2.24.54.6,1.29.96,2.03,1.32-5.34,5.59-9.69,12.16-12.6,19.32-1.33,3.25,6.14,4.12,7.29,1.26,5.9-14.47,17.9-26.36,32.19-32.18,7.42-3.03,14.6-4.4,22.53-4.08,2,.08,3.4.22,5.54.54,2.02.3,4.03.7,6.01,1.18,3.79.9,7.78,2.29,11.4,4,4.12,1.93,7.91,4.28,11.54,7.01,3.85,2.9,6.93,6.52,10.47,9.73.66.59,3.8.7,3.13-.78h0ZM328.16,128.52c-8.27,2.7-15.92,7.31-22.47,13.02-.54.47-1.06.97-1.58,1.46-.04-.06-.06-.13-.11-.19-.51-.66-1.08-1.38-1.6-2.1-1.06-1.46-2.01-2.99-2.9-4.56-1.75-3.07-3.23-6.27-4.4-9.61-2.36-6.79-3.36-14.02-2.99-21.2.69-13.21,6.55-26.66,16.2-35.8,3.84-3.63,8.36-6.38,13.2-8.13-1.97,8.48-2.6,17.17-1.76,25.86.91,9.27,3.35,18.35,6.57,27.08.93,2.53,1.82,5.08,2.83,7.58.49,1.19,1.01,2.37,1.56,3.53.32.67.61,1.36.95,2.02-1.18.31-2.35.65-3.51,1.03ZM355.19,125.66c-1.72-.17-3.46-.26-5.21-.3.34-1.13.58-2.31.79-3.42.44-2.35.76-4.72.99-7.1.48-4.92.37-9.89-.1-14.81-.01-.16-.08-.3-.16-.42,0-.01,0-.02,0-.03.05-.38-.38-.76-.64-.92-1.3-.82-3.18-.88-4.66-1.13-1.48-.26-3.08-.54-4.61-.81-1.53-.27-2.96-.56-4.46-.76-.84-.11-1.68-.25-2.53-.33.17-.39.32-.8.48-1.18.4-.95.79-1.83,1.16-2.76.8-2.04,1.65-4.06,2.56-6.05s1.92-3.99,3.02-5.92c.54-.96,1.1-1.9,1.7-2.83.39-.62.93-1.24,1.13-1.94.47-.41.72-1.01.16-1.58-2.93-2.93-6.07-5.6-9.26-8.23-2.18-1.8-4.38-3.8-6.74-5.57,4.38-.65,8.89-.53,13.28.45,6.46,1.44,12.73,4.9,18.05,8.89,1.97,1.47,3.92,3.19,5.72,5.15,2.03,2.22,3.59,4.79,4.97,7.45,3.54,6.82,5.35,14.33,5.36,22,.01,7.67-1.77,14.86-4.59,21.82-.51,1.27-1.03,2.53-1.53,3.8-4.79-1.75-9.77-2.96-14.86-3.48Z"/>
          <path d="M363.66,176.21c-3.64-3.09-8.08-4.83-12.78-5.53-7.85-1.18-16.36.36-23.2,4.43-1.78,1.06-3.46,2.39-4.96,3.81-1.17,1.1-3.5,3.3-3.14,5.1.17.89,1.52,1.05,2.23.76h0s-.03-.01-.03-.01c1.98-.82,3.48-2.63,5.08-4.01,1.74-1.51,3.72-2.74,5.75-3.81,3.33-1.75,7.25-2.94,11.03-2.94.26,0,.52.02.77.02-2.51,14.5-7.76,28.24-16.75,40-4.55,5.95-9.66,11.42-15.51,16.12s-12.91,8.81-20.11,11.91c-14.32,6.17-30.24,8.8-45.78,7.29-16.26-1.57-32.33-7.32-45-17.81-5.87-4.86-11.08-10.61-15.1-17.11-2-3.23-3.89-6.65-4.98-10.3-1.01-3.36-1.45-6.87-1.63-10.37-.06-1.03-.08-2.07-.08-3.11.53.04,1.04.09,1.53.16,2.11.28,3.71.79,5.84,1.6s4.18,1.97,6.12,3.47c.88.69,1.7,1.47,2.46,2.29.42.45.8.96,1.22,1.42.82.9,1.88,1.15,3.02,1.4,1.2.27,3.29-.06,3.85-1.35.7-1.61-.42-2.63-1.48-3.72-.96-.99-2.02-1.89-3.11-2.75-2.1-1.64-4.45-2.94-6.91-3.99-5.1-2.17-10.71-2.76-16.19-2.11s-10.2,2.27-14.43,5.5c-3.99,3.05-7.14,7.07-9.12,11.69-1.08,2.54-1.88,5.3-2.07,8.05-.1,1.43-.04,2.89.09,4.31.14,1.51.61,2.79,1.08,4.21.39,1.17,3.71,1.11,3.62-.29-.06-1.13.08-2.23.06-3.36-.01-1.13.04-2.27.21-3.38.33-2.2.83-4.42,1.58-6.53,1.48-4.18,3.94-7.99,7.2-11,2.72-2.52,6.03-4.33,9.62-5.2.08,6.75,1.11,13.5,4.22,19.56.36.7.73,1.38,1.11,2.06-.29.18-.55.39-.73.66-2.98,4.45-5.23,9.24-6.7,14.39s-1.82,10.56-2,15.76c-.38,10.68,1.75,21.55,5.2,31.63,1.85,5.38,4.28,10.49,7.6,15.13s7.58,8.29,12.21,11.64c8.84,6.39,18.8,11.29,29.28,14.34,20.48,5.95,42.76,5.09,62.5-3.13,18.67-7.78,34.79-21.51,45.01-39.01,10.88-18.64,15.14-41.81,10.97-63.06-.52-2.63-1.15-5.23-1.88-7.8-.05-.18-.16-.33-.3-.46,3.81-7.6,6.53-15.74,7.85-24.01.22-1.41.35-2.84.44-4.27,2.2.48,4.38,1.28,6.44,2.45,1.97,1.12,3.78,2.6,5.04,4.52.58.9,1.05,1.89,1.39,2.91s.3,2.42.9,3.34c1.31,2.02,5.66,2.43,6.85,0,.89-1.82-.38-4.72-1.25-6.39-1.04-1.96-2.43-3.71-4.12-5.14ZM225.72,260.73c-.16,3.52-.34,7.05-.52,10.59-7.58-2.11-15.13-4.35-22.7-6.52-.78-8.96-.6-17.99-.34-26.98,7.38,5.03,15.57,8.81,24.14,11.38-.39,3.82-.4,7.7-.58,11.54ZM296.35,244.5c.15,7.08-.38,14.19-1.79,21.14-7.97,2.21-15.94,4.43-23.96,6.47-.44.11-.88.23-1.32.33-.13.03-.26.07-.4.1-.05-.28-.18-1.04-.2-1.18-.06-.53-.12-1.05-.17-1.58-.23-2.1-.46-4.2-.69-6.3-.23-2.1-.46-4.2-.69-6.3-.17-1.55-.24-3.06-.5-4.54,7.5-.87,14.88-2.58,22.04-5.09,2.64-.92,5.19-1.95,7.67-3.06Z"/>
          <path d="M432.92,186.1c-1.84-20.22-7.04-40.01-11.4-59.78-3.97-17.96-7.93-36.3-17.84-52.08-4.92-7.83-11.28-14.42-18.06-20.67-7.35-6.79-15.23-13.07-23.61-18.54-8.39-5.48-17.67-10.37-27.31-13.76-9.56-3.36-19.52-5.85-29.43-7.91-19.75-4.11-40.05-5.94-60.22-5.19-5.41.2-10.82.6-16.21,1.18-31.29-2.96-63.2-.27-93.11,9.67-26.71,8.88-51.22,23.67-71.54,43.14-18.93,18.13-34.26,40.51-44.05,64.84-1.2,2.99-2.32,6.02-3.35,9.08-1.03,3.06-2.36,6.31-3.24,9.59-1.71,6.25-3.07,12.6-4.04,19.02-.98,6.49-1.56,13.02-1.51,19.6.08,11.79,1.7,23.54,4.31,35.02,3.05,13.37,7.59,26.4,13.51,38.76,6.62,13.83,15,26.84,24.99,38.48,10.98,12.8,23.93,23.86,38.26,32.74,16.58,10.28,34.87,17.52,53.79,22.15,22.94,5.62,46.84,7.42,70.38,6.16,5.49-.3,10.95-.75,16.4-1.43,2.28.19,4.56.36,6.84.5,19.37,1.21,39.62,1.37,58.93-2.8,18.56-4,36.31-11.27,52.62-20.94,16.38-9.72,31.35-21.84,44.36-35.74,13.88-14.82,25.56-31.91,32.76-50.96,7.2-19.05,9.64-39.78,7.79-60.14ZM36.44,266.57c-6.77-12.22-12.1-25.22-15.94-38.65-3.31-11.6-5.49-23.37-6.28-35.59-.99-15.31.89-30.53,4.86-45.35.83-3.09,1.48-6.28,2.47-9.32.99-3.04,2.13-6.09,3.32-9.09,2.38-6,5.1-11.88,8.12-17.58,6.05-11.44,13.34-22.21,21.66-32.12,11.98-14.26,26.16-26.75,41.83-36.88-2.88,2.44-5.7,4.94-8.44,7.47-8.36,7.71-16.58,16.5-23.82,25.68-14.33,18.11-26,38.53-33.26,60.5-6.86,20.76-9.07,42.71-7.37,64.47,1.71,21.83,7.16,43.43,15.9,63.51,5.25,12.09,11.75,23.76,19.5,34.48-8.73-9.62-16.24-20.16-22.54-31.54ZM159.35,351.01c-19.14-3.25-38.07-9.17-55.22-18.12-9.67-5.05-18.7-10.95-27.08-17.71-5.04-5.3-9.78-10.87-14.12-16.79-6.44-8.79-12.01-18.22-16.74-28.03-9.46-19.59-15.68-40.82-18.24-62.43-2.56-21.61-1.33-42.97,4.45-63.76,6.14-22.06,16.85-42.78,30.37-61.2,13.49-18.37,29.79-34.79,48.23-48.2,1.91-1.39,3.82-2.75,5.72-4.14,27.46-13.17,58.03-19.16,88.38-19.14,2.61,0,5.21.06,7.82.15-9.27,1.68-18.43,3.96-27.39,6.88-18.09,5.9-35.31,14.45-50.84,25.47-1.46,1.04-2.9,2.11-4.34,3.19-10.77.52-21.95,2.84-31.24,8.42-4.73,2.84-8.74,6.56-12.51,10.55-3.77,3.99-7.61,8.43-11.08,12.91-3.78,4.91-7.01,10.2-10.17,15.52-3.33,5.61-6.44,11.34-9.22,17.23-5.1,10.84-8.89,22.23-10.95,34.05-2.34,13.47-2.41,27.18-1.33,40.77.57,7.19,1.62,14.32,2.31,21.51.63,6.48.83,13,1.23,19.52.4,6.51.94,12.76,2.31,19.01,1.37,6.25,3.65,12.06,6.62,17.64,2.99,5.61,6.46,11.12,10.44,16.07,2.1,2.62,3.8,5.57,5.64,8.36,1.84,2.8,3.7,5.46,5.68,8.08,7.99,10.58,18,19.47,29.11,26.68,5.55,3.6,11.21,7.26,17.12,10.27,5.4,2.74,11.5,5.09,17.67,4.64,2.9-.21,5.67-1.07,8.15-2.58.15-.09.26-.2.34-.31,9.22,4.6,18.84,8.4,28.71,11.4,10.98,3.33,22.21,5.71,33.55,7.35-17.9.37-35.72-.23-53.41-3.25ZM76.32,200.13c1.44,21.68,6.46,43.37,14.84,63.51,8.28,19.91,19.96,38.7,35.31,53.92-9.54-7.02-18.18-15.23-25.72-24.38-10.36-12.59-19.21-27.32-25.55-42.76-6.33-15.44-10.48-32.03-12-48.79s-.32-33.62,3.58-49.95c4.01-16.88,10.72-33.08,19.55-48.01,8.83-14.93,19.79-28.54,32.36-40.46,6.62-6.27,13.7-12.04,21.16-17.27-1.62,1.48-3.23,2.97-4.8,4.49-8.04,7.75-15.51,16.31-22.12,25.41-13.17,18.12-23.31,38.43-29.63,59.93-6.14,20.86-8.42,42.7-6.98,64.38ZM427.49,215.3c-2.37,19.83-10.2,39.84-21.36,56.95-10.46,16.04-23.95,30.17-38.79,42.21-14.38,11.66-30.49,21.36-47.69,28.27-17.2,6.91-35.2,10.88-53.6,11.22-19.47.36-39.05-.59-58.26-3.89-17.94-3.07-35.61-8.22-52-16.19-7.7-3.75-15.11-8.09-22.16-12.96-7.13-6.96-13.76-14.41-19.59-22.52-6.2-8.63-11.71-18.22-16.27-28.03-9.13-19.66-14.89-40.88-17.16-62.43-2.27-21.55-.78-42.84,4.43-63.71,5.39-21.55,14.6-42.14,26.92-60.6,12.32-18.48,27.63-34.72,45.42-47.81,1.32-.97,2.64-1.92,3.96-2.88,17.2-8.83,35.84-14.8,54.88-18.1,19.15-3.32,38.85-4.01,58.23-2.29,9.83.86,19.59,2.32,29.25,4.33,9.6,1.99,19.21,4.4,28.45,7.69,18.47,6.57,34.96,18.29,49.2,31.58,6.52,6.07,12.69,12.47,17.33,20.11,4.65,7.64,7.85,16.09,10.81,24.62,3.03,8.73,5.13,17.67,7.12,26.69,2.1,9.54,4.33,19.05,6.35,28.63,4.1,19.41,6.89,39.27,4.53,59.1Z"/>
          <path d="M149.33,303.84h.02c-.04-.08-.08-.16-.12-.24.02-.11.02-.21-.03-.31-.02-.25-.13-.45-.32-.63-.08-.11-.15-.21-.24-.31-.04-.05-.08-.11-.12-.15-.19-.26-.44-.36-.71-.49-.18-.1-.37-.16-.57-.22-.21-.07-.43-.11-.64-.15l-.63-.05c-.31,0-.62.03-.91.12-.18.03-.36.09-.52.18-.23.09-.43.22-.61.4-.1.13-.2.25-.27.39-.08.12-.13.25-.15.4-.08.22-.06.44.04.66.1.17.19.35.3.52l.28.4c.16.16.33.28.52.38.07.08.14.16.2.25.18.18.39.32.63.42.26.14.54.23.83.27l.65.05c.32,0,.64-.03.94-.13.19-.03.38-.1.54-.19.24-.09.45-.23.63-.42l.25-.36c.12-.26.12-.53,0-.79h0Z"/>
          <path d="M125.78,208.53s-.04-.06-.06-.1c-.04-.06-.08-.12-.12-.18,0-.02-.03-.03-.03-.05-.03-.05-.08-.11-.12-.16-.11-.18-.26-.32-.45-.42h-.02c-.15-.08-.29-.15-.44-.22-.03-.01-.06-.02-.09-.03-.04-.02-.08-.04-.14-.05-.01,0-.04,0-.04-.01-.14-.04-.3-.09-.45-.12l-.48-.04c-.24,0-.46.02-.69.1-.14.02-.27.06-.4.14-.17.06-.33.16-.46.3h0s-.01.01-.01.01c0,0-.04.02-.04.03-.06.04-.06.06-.13.16-.04.05-.06.09-.08.12,0,.01-.02.02-.03.03-.14.19-.11.12-.16.35-.03.14-.03.13-.03.22v.04c.02.06.04.13.04.19.02.14.04.35.1.43v.02c.09.11.16.22.24.32.01.01.04.03.04.04.02.02.08.08.08.08l.35.26.44.21c.26.1.53.15.81.15.02,0,.03,0,.05,0,.11.01.21.03.33.03l.49-.04c.16-.02.32-.07.47-.13h-.01s.08-.03.08-.03c.23-.06.43-.18.62-.33.12-.06.22-.16.28-.29.13-.14.18-.3.18-.51v-.15l-.08-.36v-.02Z"/>
          <path d="M136.73,181.13c-.03-.05-.06-.11-.11-.17-.08-.13-.15-.25-.23-.38-.08-.13-.15-.24-.22-.37-.02-.03-.03-.05-.05-.09-.18-.3-.34-.51-.66-.69-.08-.04-.15-.09-.23-.12v.02c-.15-.09-.32-.17-.48-.23-.37-.13-.75-.18-1.13-.18s-.77.06-1.13.18c-.3.1-.57.26-.81.49-.19.18-.3.41-.3.68,0,.06-.03.13-.03.19-.01.22.06.37.17.53.08.13.16.25.24.38.08.13.15.24.24.36.04.06.08.12.12.18.11.17.22.38.36.51.17.18.38.31.62.4.25.14.52.23.81.26l.64.05c.31,0,.62-.03.92-.12.18-.03.36-.09.53-.18.24-.09.44-.22.62-.4l.24-.35c.11-.26.11-.51,0-.77-.02-.06-.08-.13-.11-.19Z"/>
          <path d="M276.14,188.55c.03.08.08.15.11.23.06.14.14.27.26.37l.12.11c.14.14.3.25.49.31.19.11.41.17.64.21.25.04.5.05.75.02.24,0,.48-.05.7-.13l.38-.17c.22-.12.37-.28.49-.5l.06-.3c0-.23-.1-.41-.26-.56l-.12-.11c-.11-.1-.22-.21-.36-.27-.02-.01-.05-.02-.08-.03-.11-.05-.22-.1-.32-.15l-.35-.16c-.21-.08-.42-.12-.64-.12-.15-.02-.3-.02-.45,0-.22,0-.43.04-.64.12l-.35.16-.27.21c-.12.1-.18.23-.21.38-.05.13-.04.27.03.4h.01Z"/>
          <path d="M393.6,170.25c-.02-.06-.04-.11-.09-.16-.06-.11-.14-.23-.21-.33-.14-.22-.27-.44-.41-.66-.14-.28-.36-.51-.64-.66l-.5-.24c-.4-.14-.82-.21-1.25-.21-.32,0-.65.03-.95.13-.28.05-.55.15-.8.31-.22.11-.39.27-.51.49-.14.16-.22.36-.22.57.01.29.13.55.33.76h0s.01-.01.01-.01c.18.26.36.51.54.77.09.12.16.26.28.37.17.15.34.3.53.43.32.18.67.3,1.04.37.22.03.43.05.64.05.4,0,.79-.06,1.17-.19.17-.05.33-.13.48-.23.26-.15.46-.36.61-.63.11-.25.11-.51,0-.76-.02-.05-.03-.11-.05-.17Z"/>
          <path d="M130.54,30.31h.01c.18.26.36.51.54.77.09.12.16.26.28.37.17.15.33.3.53.43.32.18.67.3,1.04.37.22.03.43.05.64.05.4,0,.79-.06,1.17-.19.17-.05.33-.13.48-.23.26-.15.46-.36.61-.63.11-.25.11-.51,0-.76-.02-.05-.03-.11-.05-.17-.02-.06-.04-.11-.09-.16-.06-.11-.14-.23-.21-.33-.14-.22-.27-.44-.41-.66-.14-.28-.36-.51-.64-.66l-.5-.24c-.4-.14-.82-.21-1.25-.21-.32,0-.65.03-.95.13-.28.05-.55.15-.8.31-.22.11-.39.27-.51.49-.14.16-.22.36-.22.57.01.29.13.55.33.76h0Z"/>
          <path d="M154.9,342.4c-.02-.06-.04-.11-.09-.16-.06-.11-.14-.23-.21-.33-.14-.22-.27-.44-.41-.66-.14-.28-.36-.51-.64-.66l-.5-.24c-.4-.14-.82-.21-1.25-.21-.32,0-.65.03-.95.13-.28.05-.55.15-.8.31-.22.11-.39.27-.51.49-.14.16-.22.36-.22.57.01.29.13.55.33.76h0s.01-.01.01-.01c.18.26.36.51.54.77.09.12.16.26.28.37.17.15.34.3.53.43.32.18.67.3,1.04.37.22.03.43.05.64.05.4,0,.79-.06,1.17-.19.17-.05.34-.13.48-.23.26-.15.46-.36.61-.63.11-.25.11-.51,0-.76-.02-.05-.03-.11-.05-.17Z"/>
          <path d="M407.59,190.94c0-.14-.04-.25-.13-.35-.08-.13-.18-.23-.31-.29-.27-.15-.56-.23-.88-.25-.31-.02-.67,0-.97.11-.27.11-.56.26-.7.54h.01s-.02.04-.03.05c-.09.09-.18.19-.23.3-.03.06-.05.12-.09.18-.05.12-.11.23-.16.35s-.1.23-.13.35c-.03.12-.08.25-.11.37-.08.14-.09.27-.03.41.01.15.09.28.21.38.13.13.28.23.44.29.18.1.38.16.59.18.44.06.92.05,1.34-.11l.35-.16c.19-.11.35-.26.44-.45.04-.11.09-.23.13-.33.02-.05.05-.1.05-.15.05-.13.08-.27.1-.41l.13-.66c0-.08-.02-.16-.05-.22l.02-.12Z"/>
          <path d="M386.36,214.39l-.16-.24-.16-.12.05-.07.06-.28c0-.16-.05-.29-.15-.4-.08-.14-.2-.25-.35-.32h0s-.01,0-.02,0c0,0,0,0,0,0h0c-.4-.23-.86-.33-1.31-.35-.3-.04-.61-.04-.9.01-.37.06-.57.15-.9.31-.03.01-.06.03-.1.05-.14.1-.27.19-.4.3-.03.02-.05.05-.09.09-.12.14-.24.29-.32.46-.02.03-.02.06-.03.09,0,0,0,.01-.01.02-.13.14-.18.3-.18.5.02.16.05.33.11.49,0,.02.02.04.03.06.08.12.16.24.25.36.03.03.05.08.1.1.14.12.28.25.44.34,0,0,.02,0,.03.01.08.03.15.08.23.11.08.04.15.08.24.11l.52.13h.06c.19.02.48.06.7.04.41-.02.9-.05,1.28-.23.27-.09.52-.24.72-.43.16-.15.24-.34.26-.56.03-.1.05-.2.05-.3l-.05-.26ZM383.88,214.69h.04l.4.03h-.01s-.43-.03-.43-.03Z"/>
          <path d="M333.84,294.17s-.05-.09-.05-.09l-.17-.24-.27-.21s-.05-.02-.07-.03c-.13-.1-.26-.22-.42-.29-.32-.16-.68-.26-1.05-.26-.31,0-.62.05-.9.18-.19.09-.45.24-.53.45l-.05.23c0,.12.05.23.12.33,0,.04-.02.07-.02.11,0,.1-.02.19-.02.29,0,.04-.01.08-.01.12-.02.05-.04.09-.06.13-.01.01-.03.03-.04.04-.1.09-.19.19-.25.32l-.06.29c0,.22.1.4.25.55.14.14.29.24.48.3.19.11.4.17.63.19.25.04.49.05.73.02.24,0,.46-.04.68-.13.25-.09.48-.22.66-.39.04-.03.1-.08.13-.13.1-.12.19-.26.28-.39.11-.18.14-.41.18-.62.03-.17,0-.32-.03-.5-.02-.12-.05-.21-.12-.3Z"/>
          <path d="M277.74,330.63c-.17-.1-.35-.17-.54-.21-.21-.06-.42-.1-.65-.09l-.44.03c-.26.04-.51.12-.73.26l-.26.21c-.14.14-.23.3-.23.5h-.01s.02.24.02.24v.12c.02.12.02.26.09.37l.16.23c.12.12.26.22.42.27.11.06.23.12.36.12.21.06.41.09.63.09l.43-.03.39-.1c.17-.05.32-.13.45-.25.13-.08.23-.18.29-.32.05-.11.06-.25.08-.37v-.12c.02-.09.02-.16.03-.25,0-.15-.04-.28-.14-.38-.09-.14-.19-.25-.35-.31Z"/>
          <path d="M33.9,165.58c.02.12.02.26.09.37l.16.23c.12.12.26.22.42.27.11.06.23.12.36.12.21.06.41.09.63.09l.43-.03.39-.1c.17-.05.32-.13.45-.25.13-.08.23-.18.29-.32.05-.11.08-.25.08-.37v-.12c.03-.09.03-.16.03-.25,0-.15-.04-.28-.14-.38-.09-.14-.19-.25-.35-.31-.17-.1-.35-.17-.54-.21-.21-.06-.42-.1-.65-.09l-.44.03c-.26.04-.51.12-.73.26l-.26.21c-.14.14-.23.3-.23.5h0s-.01-.01-.01-.01l.02.25v.12Z"/>
          <path d="M147.31,27.22c.02.12.02.26.09.37l.16.23c.12.12.26.22.42.27.11.06.23.12.36.12.21.06.41.09.63.09l.43-.03.39-.1c.17-.05.32-.13.45-.25.13-.08.23-.18.29-.32.05-.11.08-.25.08-.37v-.12c.03-.09.03-.16.03-.25,0-.15-.04-.28-.14-.38-.09-.14-.19-.25-.35-.31-.17-.1-.35-.17-.54-.21-.21-.06-.42-.09-.65-.09l-.44.03c-.26.04-.51.12-.73.26l-.26.21c-.14.14-.23.3-.23.5h-.01s.02.24.02.24v.12Z"/>
          <path d="M215.32,44.37c.15.34.55.57.88.71.02.01.04.02.05.03.07.07.14.14.21.21.02.03.03.05.05.08.17.37.58.61.94.73.25.09.5.14.77.14.27.03.54.03.82-.02l.49-.12c.28-.09.53-.24.73-.44l.21-.29c.1-.22.1-.43,0-.65-.11-.23-.26-.43-.41-.63-.09-.11-.18-.22-.29-.31-.43-.38-.88-.64-1.42-.84-.25-.09-.5-.14-.77-.14-.27-.03-.54-.03-.82.02-.38.07-.77.2-1.07.44-.17.06-.33.13-.44.26l-.13.18c-.05.1-.06.21-.02.3.03.14.12.25.23.34ZM216.16,44.68h.03s.07.01.11.01h-.15Z"/>
          <path d="M270.68,61.16c.04,1.09,1.56,1.31,2.5,1.19.79-.08,1.59-.41,1.62-1.19v-.3c.05-1.69-4.18-1.7-4.14,0h.02v.3Z"/>
          <path d="M33.46,212.07h.02v.3c.04,1.09,1.56,1.31,2.5,1.19.79-.08,1.59-.41,1.62-1.19v-.3c.05-1.69-4.18-1.7-4.14,0Z"/>
          <path d="M229.03,69.34c.53,0,1.57-.22,1.57-.92s-1.05-.92-1.57-.92-1.57.22-1.57.92,1.05.92,1.57.92Z"/>
          <path d="M40.06,224.34c-.52,0-1.57.22-1.57.92s1.05.92,1.57.92,1.57-.22,1.57-.92-1.05-.92-1.57-.92Z"/>
        </g>
      </g>
    </symbol>
  </defs>
  <g>
    <path d="M28.67,26.52c.71,1.39,1.06,2.97,1.06,4.72s-.27,3.39-.81,4.91c-.54,1.52-1.3,2.83-2.27,3.93-.97,1.1-2.12,2.04-3.46,2.82-2.66,1.56-5.81,2.34-9.46,2.34-1.29-.02-3.53-.04-6.73-.04s-5.03-.05-5.51-.15c-.96-.25-1.46-.76-1.5-1.54,0-.44.42-.71,1.27-.82.4-.05.67-.11.81-.17.49-.2.73-.65.73-1.35v-18.25c0-.95-.47-1.46-1.41-1.54-.79-.06-1.22-.18-1.29-.36-.08-.17-.11-.41-.11-.69s.09-.55.28-.78c.19-.23.52-.39,1.01-.48.62-.11,1.8-.17,3.52-.17h5.79c6.61,0,11.68,1.37,15.21,4.12,1.2.92,2.15,2.08,2.86,3.48ZM19.6,41.68c1.86-.81,3.32-2.02,4.37-3.64,1.06-1.62,1.58-3.42,1.58-5.4s-.26-3.6-.78-4.87c-.52-1.27-1.23-2.32-2.14-3.14-.91-.82-2.04-1.48-3.4-2-2.47-.95-5.7-1.42-9.67-1.42-1.79,0-2.68.14-2.68.43v20.93c1.97.21,4.12.32,6.44.32s4.41-.4,6.27-1.21Z" fill="#e3e3e3"/>
    <path d="M34.97,43.19c-1.73-1.7-2.59-3.95-2.59-6.76s.87-5.09,2.61-6.85c1.74-1.75,3.96-2.63,6.66-2.63,2.14,0,3.94.69,5.4,2.07,1.47,1.38,2.2,3.11,2.2,5.2,0,1.01-.8,1.52-2.4,1.52h-10.85c.02,2.02.68,3.73,1.97,5.11,1.29,1.39,2.91,2.08,4.87,2.08,1.3,0,2.56-.38,3.78-1.14.65-.4,1.06-.6,1.25-.6s.39.09.62.27c.23.18.35.4.35.67,0,.69-.44,1.32-1.32,1.9-.88.58-1.85,1.01-2.91,1.29-1.06.28-1.99.42-2.79.42-2.84,0-5.12-.85-6.85-2.55ZM45.81,33.76c-.03-1.44-.4-2.6-1.12-3.5-.72-.9-1.78-1.35-3.18-1.35s-2.61.5-3.65,1.5c-1.04,1-1.6,2.14-1.66,3.43h4.38c1.95,0,3.69-.02,5.23-.08Z" fill="#e3e3e3"/>
    <path d="M54.5,27.22c3.57,0,5.36.44,5.36,1.31,0,.35-.4.62-1.19.82-.79.2-1.19.47-1.19.81,0,.42,1.64,4.21,4.93,11.35,3.25-7.26,4.87-11.01,4.87-11.26s-.12-.44-.37-.58c-.25-.14-.52-.24-.82-.32-.79-.2-1.18-.47-1.18-.82,0-.41.45-.73,1.35-.96.9-.23,1.74-.35,2.53-.35s1.48.03,2.09.1c.61.07,1.19.21,1.74.41s.83.45.83.74c0,.55-.39.88-1.18,1-.79.12-1.32.26-1.6.43-.28.17-.55.52-.8,1.04l-5.62,12.06c-.57,1.27-.93,1.97-1.07,2.1-.14.12-.27.24-.39.34-.23.16-.49.24-.79.24s-.53-.03-.7-.1c-.17-.07-.3-.13-.39-.2s-.2-.19-.31-.38c-.11-.19-.18-.33-.22-.41s-.1-.25-.22-.52l-6.43-13.08c-.29-.59-.54-.96-.77-1.11-.22-.16-.74-.29-1.55-.41s-1.21-.46-1.21-1.02c0-.38.52-.67,1.56-.9,1.04-.23,1.95-.34,2.73-.34Z" fill="#e3e3e3"/>
    <path d="M76.58,43.19c-1.73-1.7-2.59-3.95-2.59-6.76s.87-5.09,2.61-6.85c1.74-1.75,3.96-2.63,6.66-2.63,2.14,0,3.94.69,5.4,2.07,1.47,1.38,2.2,3.11,2.2,5.2,0,1.01-.8,1.52-2.4,1.52h-10.85c.02,2.02.68,3.73,1.97,5.11,1.29,1.39,2.91,2.08,4.87,2.08,1.3,0,2.56-.38,3.78-1.14.65-.4,1.06-.6,1.25-.6s.39.09.62.27c.23.18.35.4.35.67,0,.69-.44,1.32-1.32,1.9-.88.58-1.85,1.01-2.91,1.29-1.06.28-1.99.42-2.79.42-2.84,0-5.12-.85-6.85-2.55ZM87.42,33.76c-.03-1.44-.4-2.6-1.12-3.5-.72-.9-1.78-1.35-3.18-1.35s-2.61.5-3.65,1.5c-1.04,1-1.6,2.14-1.66,3.43h4.38c1.95,0,3.69-.02,5.23-.08Z" fill="#e3e3e3"/>
    <path d="M98.47,45.23l-1.61.02c-1.64,0-2.65-.25-3.04-.75-.17-.23-.26-.5-.26-.81s.12-.54.37-.67c.25-.12.52-.19.82-.21.3-.01.57-.11.82-.29.25-.18.37-.47.37-.87v-19.78c0-1.14-.45-1.75-1.35-1.84-.09-.01-.2-.02-.34-.04-.14-.01-.24-.02-.3-.03-.06,0-.14-.02-.23-.04-.09-.02-.16-.04-.21-.07-.04-.02-.08-.06-.12-.09-.09-.07-.13-.26-.13-.54s.19-.59.58-.9c.7-.57,1.64-.86,2.83-.86,1.26,0,2,.07,2.21.22.42.3.64.69.64,1.18v22.78c0,.72.4,1.11,1.21,1.15.81.04,1.21.37,1.21.96,0,.69-.37,1.11-1.12,1.27-.57.12-1.36.19-2.36.19Z" fill="#e3e3e3"/>
    <path d="M113.35,45.7c-2.82,0-5.1-.89-6.82-2.67s-2.59-4.04-2.59-6.77c0-1.82.46-3.45,1.37-4.87.91-1.42,2.15-2.51,3.7-3.27,1.55-.76,3.29-1.13,5.2-1.13,2.75,0,5.01.86,6.8,2.57,1.79,1.71,2.68,3.92,2.68,6.63,0,1.87-.46,3.54-1.38,4.99s-2.16,2.57-3.72,3.35c-1.56.78-3.31,1.17-5.25,1.17ZM114.11,43.62c1.86,0,3.31-.63,4.36-1.89,1.04-1.26,1.56-2.94,1.56-5.04s-.6-3.91-1.8-5.43c-1.2-1.52-2.74-2.29-4.62-2.29s-3.33.64-4.34,1.93c-1.01,1.29-1.52,2.97-1.52,5.06s.59,3.88,1.78,5.4,2.71,2.27,4.57,2.27Z" fill="#e3e3e3"/>
    <path d="M130.27,52.91l-1.61.02c-1.64,0-2.65-.25-3.04-.75-.17-.22-.26-.5-.26-.81s.12-.54.38-.67c.25-.12.53-.19.83-.21.31-.01.58-.11.83-.29s.38-.47.38-.87v-16.9c0-.9-.07-1.52-.2-1.86-.13-.34-.43-.6-.89-.78-.05-.02-.3-.09-.75-.19-.94-.22-1.41-.54-1.41-.94,0-.97,1.26-1.46,3.77-1.46,1.06,0,1.8.12,2.23.37.42.25.64.79.64,1.61,0,.25,0,.44-.02.56.96-.94,1.93-1.65,2.9-2.14.97-.49,2.22-.73,3.73-.73s2.93.42,4.24,1.27c1.32.85,2.31,1.97,2.99,3.36.67,1.39,1.01,2.94,1.01,4.66,0,2.71-.89,4.95-2.66,6.71-1.77,1.76-4.03,2.64-6.76,2.64-1.54,0-3.29-.51-5.26-1.52v5.32c0,.72.4,1.11,1.21,1.15.81.04,1.21.37,1.21.96,0,.69-.38,1.11-1.14,1.27-.55.12-1.33.19-2.34.19ZM142.36,36.59c0-2.89-.84-4.98-2.51-6.29-.87-.67-1.92-1.01-3.13-1.01-3.58,0-5.38,2.02-5.38,6.05v6.16c1.01,1.31,2.75,1.97,5.23,1.97,1.8,0,3.21-.65,4.24-1.94,1.03-1.29,1.55-2.94,1.55-4.94Z" fill="#e3e3e3"/>
    <path d="M151.01,43.19c-1.73-1.7-2.59-3.95-2.59-6.76s.87-5.09,2.61-6.85c1.74-1.75,3.96-2.63,6.66-2.63,2.14,0,3.94.69,5.4,2.07,1.47,1.38,2.2,3.11,2.2,5.2,0,1.01-.8,1.52-2.4,1.52h-10.85c.02,2.02.68,3.73,1.97,5.11,1.29,1.39,2.91,2.08,4.87,2.08,1.3,0,2.56-.38,3.78-1.14.65-.4,1.06-.6,1.25-.6s.39.09.62.27c.23.18.35.4.35.67,0,.69-.44,1.32-1.32,1.9-.88.58-1.85,1.01-2.91,1.29-1.06.28-1.99.42-2.79.42-2.84,0-5.12-.85-6.85-2.55ZM161.85,33.76c-.03-1.44-.4-2.6-1.12-3.5-.72-.9-1.78-1.35-3.18-1.35s-2.61.5-3.65,1.5c-1.04,1-1.6,2.14-1.66,3.43h4.38c1.95,0,3.69-.02,5.23-.08Z" fill="#e3e3e3"/>
    <path d="M177.34,26.89c.82,0,1.75.13,2.76.4s1.82.55,2.41.85v-6.28c0-1.14-.45-1.75-1.35-1.84-.09-.01-.2-.02-.34-.04-.14-.01-.24-.02-.3-.03-.06,0-.14-.02-.23-.04-.09-.02-.16-.04-.21-.07-.04-.02-.08-.06-.12-.09-.09-.07-.13-.26-.13-.54s.19-.59.58-.9c.7-.57,1.64-.86,2.83-.86,1.26,0,2,.07,2.21.22.42.3.64.69.64,1.18v20.5c0,1.39.15,2.29.45,2.7.31.4.59.64.83.73.24.09.46.16.64.22.18.06.31.11.38.14.07.03.17.08.28.16.2.11.3.29.3.52,0,.52-.28.91-.83,1.15-.56.24-1.29.37-2.21.37s-1.58-.17-2-.52c-.41-.35-.77-.99-1.09-1.93-1.02,1.81-3.16,2.72-6.41,2.72-2.6,0-4.71-.86-6.34-2.59s-2.44-3.96-2.44-6.71.91-5.01,2.72-6.78c1.81-1.77,4.13-2.66,6.97-2.66ZM180.26,29.52c-.98-.41-2.08-.61-3.29-.61s-2.24.35-3.09,1.05c-1.65,1.36-2.47,3.37-2.47,6.03,0,2.06.56,3.81,1.68,5.24,1.12,1.43,2.57,2.15,4.37,2.15s3.08-.37,3.88-1.11c.79-.74,1.19-1.98,1.19-3.7v-7.4c-.52-.69-1.28-1.23-2.26-1.64Z" fill="#e3e3e3"/>
    <path d="M203.18,45.38c-.49,0-.73-.57-.73-1.71v-21.81c0-1.14-.45-1.75-1.35-1.84-.09-.01-.2-.02-.34-.04-.14-.01-.24-.02-.3-.03-.06,0-.14-.02-.23-.04-.09-.02-.16-.04-.21-.07-.04-.02-.08-.06-.12-.09-.09-.07-.13-.26-.13-.54s.19-.59.58-.9c.7-.57,1.64-.86,2.83-.86,1.26,0,2,.07,2.21.22.42.3.64.69.64,1.18v10.36c1.86-1.59,3.98-2.38,6.35-2.38s4.28.83,5.72,2.48,2.16,3.82,2.16,6.49c0,1.67-.37,3.25-1.1,4.74s-1.75,2.69-3.07,3.62c-1.32.92-2.76,1.39-4.34,1.39-2.25,0-4.43-.71-6.54-2.12-.02.02-.19.25-.51.67-.61.84-1.12,1.26-1.54,1.26ZM216.22,37.12c0-1.27-.24-2.5-.71-3.68-.48-1.18-1.17-2.16-2.09-2.95-.92-.79-1.95-1.18-3.08-1.18-1.56,0-3,.61-4.33,1.84v10.32c1.49,1.17,3.08,1.76,4.8,1.76s3.04-.56,3.99-1.69,1.42-2.6,1.42-4.42Z" fill="#e3e3e3"/>
    <path d="M233.21,41.39c3.16-6.68,4.74-10.21,4.74-10.58s-.14-.64-.41-.79c-.27-.15-.57-.24-.9-.26-.87-.09-1.31-.34-1.31-.77,0-1.14,1.34-1.71,4.03-1.71h.75c1.2,0,2.06.19,2.58.58.52.39.78.75.78,1.09s-.19.54-.56.62c-.77.14-1.35.35-1.73.65-.38.29-.75.83-1.11,1.62-.36.79-.97,2.13-1.82,4.03-.85,1.9-1.56,3.45-2.14,4.65l-4.03,8.28c-.42.9-.97,1.65-1.64,2.24-.67.59-1.46.89-2.37.89s-1.71-.23-2.39-.68-1.02-1.04-1.02-1.76.22-1.29.65-1.71c.43-.42.97-.63,1.62-.63s1.23.16,1.75.49.79.72.81,1.2c1-1.59,1.67-2.82,2-3.71-.52-1.45-1.72-3.99-3.59-7.62s-2.9-5.65-3.1-6.07-.37-.71-.52-.87c-.14-.16-.33-.3-.55-.41s-.41-.19-.56-.24c-.15-.05-.39-.12-.73-.21-.34-.09-.61-.16-.82-.22-.21-.06-.31-.26-.31-.58,0-1.07,1.47-1.61,4.42-1.61,1.81,0,2.97.09,3.48.28.99.35,1.48.81,1.48,1.39,0,.39-.37.65-1.11.8s-1.11.42-1.11.81c0,.05.22.64.66,1.78,1.44,3.72,2.8,6.74,4.08,9.05Z" fill="#e3e3e3"/>
    <path d="M278.79,29.42c0,.66-.07,1.31-.22,1.93-.15.62-.38,1.18-.69,1.66-.31.48-.71.87-1.2,1.16-.49.29-1.07.44-1.76.44-.4,0-.74-.08-1.01-.25-.27-.17-.52-.41-.73-.71-.21-.31-.42-.67-.62-1.1-.2-.42-.42-.89-.67-1.41l-1.5-.19v10.44l6.41-.3.77-3.26c.21-.71.47-1.31.77-1.81.3-.49.63-.89.98-1.2s.73-.53,1.13-.67c.4-.14.8-.21,1.2-.21.46,0,.89.08,1.29.23.4.16.75.38,1.04.68s.52.66.68,1.08c.16.42.24.89.24,1.41s-.05,1.06-.16,1.66-.26,1.18-.47,1.76c-.21.58-.47,1.14-.78,1.68-.31.54-.68,1.01-1.11,1.42-.42.41-.9.74-1.43.98-.53.24-1.11.37-1.75.37h-16.3c-1.47,0-2.78-.08-3.92-.25-1.14-.17-2.1-.43-2.89-.79-.78-.36-1.37-.82-1.78-1.38-.41-.56-.61-1.23-.61-2,0-.3.07-.52.22-.65.15-.13.33-.23.55-.3.22-.07.46-.13.71-.2.26-.06.49-.17.71-.33s.4-.38.55-.68c.15-.3.23-.73.23-1.29v-14.13c0-.55-.08-.98-.23-1.28-.15-.31-.33-.54-.55-.69s-.46-.27-.71-.33-.49-.13-.71-.2c-.22-.07-.4-.17-.55-.3-.15-.13-.22-.35-.22-.65,0-.77.2-1.44.61-2,.41-.56,1-1.01,1.78-1.37.78-.36,1.74-.62,2.89-.79,1.14-.17,2.45-.25,3.92-.25h16.07c.91,0,1.71.25,2.38.75s1.23,1.13,1.68,1.88.77,1.57.99,2.44c.22.87.33,1.69.33,2.44,0,.5-.08.95-.23,1.35-.16.4-.37.74-.66,1.01-.28.27-.61.49-.99.64-.38.15-.79.22-1.23.22-.39,0-.77-.07-1.14-.2-.37-.13-.73-.34-1.07-.64s-.65-.67-.94-1.14c-.29-.47-.53-1.04-.73-1.71l-.73-3.13h-6.26v8.62l1.5-.19c.25-.5.47-.96.67-1.39.2-.42.41-.79.62-1.1.21-.31.46-.54.73-.71.27-.17.61-.25,1.01-.25.69,0,1.27.15,1.76.44.49.29.89.68,1.2,1.15.31.47.54,1.02.69,1.64s.22,1.25.22,1.9Z" fill="#e3e3e3"/>
    <path d="M302.06,25.31c0-.29-.26-.55-.79-.79-.52-.24-1.32-.36-2.4-.36-.55,0-1,.03-1.34.09-.34.06-.62.15-.81.26-.2.11-.33.25-.4.41-.07.16-.1.35-.1.56,0,.41.2.77.6,1.08.4.31.93.6,1.58.89.66.29,1.4.57,2.24.86.84.29,1.69.62,2.57.98.87.37,1.73.79,2.57,1.27.84.48,1.58,1.05,2.24,1.71s1.18,1.42,1.58,2.29c.4.87.6,1.89.6,3.04,0,1.41-.32,2.63-.96,3.64-.64,1.02-1.49,1.85-2.54,2.51s-2.25,1.14-3.59,1.45-2.71.47-4.11.47-2.79-.15-4.15-.44c-1.36-.29-2.56-.7-3.63-1.23-1.06-.52-1.92-1.15-2.57-1.89-.65-.74-.97-1.55-.97-2.44,0-.52.08-.98.24-1.38.16-.39.38-.72.65-.97s.58-.45.93-.57c.35-.12.71-.19,1.09-.19.6,0,1.09.07,1.48.21.39.14.7.32.95.53.24.22.44.47.59.75.15.28.29.57.43.87.14.3.29.59.45.87.16.28.38.53.66.75.27.22.63.4,1.06.53.43.14.98.21,1.64.21,1.06,0,1.85-.09,2.35-.28.51-.19.76-.56.76-1.1,0-.2-.18-.4-.55-.59-.37-.19-.85-.4-1.45-.61s-1.29-.45-2.06-.71c-.77-.26-1.56-.57-2.36-.93s-1.59-.77-2.36-1.24c-.77-.47-1.46-1.01-2.06-1.63s-1.08-1.33-1.45-2.13c-.37-.8-.55-1.7-.55-2.72,0-1.11.14-2.11.41-2.99.27-.88.66-1.65,1.15-2.32.49-.67,1.08-1.23,1.77-1.7s1.44-.84,2.25-1.13c.81-.29,1.67-.51,2.59-.64.91-.13,1.85-.2,2.81-.2,1.66,0,3.08.16,4.27.47,1.19.31,2.16.71,2.93,1.2.77.49,1.33,1.03,1.7,1.64.36.61.54,1.2.54,1.79,0,.41-.08.8-.25,1.17-.17.37-.42.69-.74.96-.32.27-.72.49-1.18.66-.46.16-.99.24-1.59.24-.67,0-1.23-.04-1.66-.11-.43-.08-.77-.18-1.03-.31-.26-.13-.43-.29-.53-.47s-.15-.38-.15-.61.04-.39.11-.51c.08-.11.15-.22.23-.33.08-.11.16-.22.23-.35.07-.12.11-.31.11-.54Z" fill="#e3e3e3"/>
    <path d="M325.82,35.9c0,.41.01.81.04,1.19s.1.72.23,1.02c.12.3.32.54.58.71s.62.26,1.09.26c.65,0,1.21-.08,1.7-.25.48-.17.98-.39,1.49-.67.2-.11.39-.17.56-.17.29,0,.52.12.68.37.17.25.25.53.25.84,0,.21-.03.39-.09.52-.36.92-.83,1.75-1.4,2.49-.57.74-1.22,1.36-1.97,1.87-.74.51-1.56.91-2.45,1.18s-1.84.41-2.85.41c-1.4,0-2.6-.18-3.6-.53-1-.36-1.84-.83-2.53-1.42-.69-.59-1.24-1.28-1.65-2.06-.41-.78-.73-1.6-.95-2.45-.22-.86-.36-1.72-.43-2.59-.07-.87-.1-1.69-.1-2.46v-9.48h-.92c-.46,0-.82-.13-1.09-.4-.26-.27-.39-.56-.39-.89,0-.39.17-.71.52-.97,1.46-1.05,2.8-2.06,4.01-3.04s2.25-1.86,3.13-2.63c1.02-.9,1.94-1.74,2.75-2.53.32-.32.66-.56.99-.72.34-.16.66-.23.97-.23.39,0,.71.13.97.39s.39.67.39,1.22v6.07h4.57c.15,0,.33,0,.53.03s.4.08.59.2.35.29.48.53c.13.24.2.59.2,1.04,0,.49-.06.86-.19,1.12-.12.26-.28.46-.47.58-.19.12-.38.2-.59.22-.21.02-.39.03-.55.03h-4.57l.04,11.2Z" fill="#e3e3e3"/>
    <path d="M355.34,28.16c0-.51-.07-.91-.21-1.2-.14-.29-.31-.5-.52-.65-.21-.14-.43-.24-.67-.3-.24-.06-.46-.12-.67-.18s-.38-.15-.52-.27c-.14-.12-.21-.32-.21-.59,0-1.42.74-2.45,2.21-3.08,1.47-.63,3.6-.95,6.39-.95.94,0,1.72.09,2.36.26.64.17,1.16.42,1.58.73.42.31.74.69.97,1.12.23.44.4.92.51,1.45.11.53.17,1.1.19,1.7.02.6.03,1.22.03,1.87v10.04c0,.5.07.89.2,1.16.13.27.3.48.51.63.21.14.42.24.66.29.23.05.45.11.66.17.21.06.37.15.51.27s.2.32.2.59c0,1.42-.72,2.45-2.16,3.08-1.44.63-3.51.95-6.19.95-.66,0-1.25-.05-1.76-.15-.51-.1-.96-.23-1.34-.39-.38-.16-.71-.35-.98-.55-.27-.21-.51-.42-.69-.65-.44-.5-.71-1.08-.82-1.74-.65.74-1.42,1.39-2.3,1.97-.37.25-.8.49-1.27.72-.47.23-.99.44-1.55.62-.56.18-1.17.33-1.83.44s-1.35.17-2.09.17c-1.37,0-2.56-.17-3.56-.52-1-.34-1.85-.8-2.54-1.38-.69-.57-1.25-1.24-1.68-2-.42-.76-.76-1.56-.99-2.4-.24-.84-.4-1.68-.48-2.54-.08-.86-.12-1.67-.12-2.44v-6.16c0-.52-.07-.93-.21-1.23-.14-.29-.31-.52-.52-.67-.21-.16-.44-.26-.67-.32s-.46-.12-.67-.19c-.21-.07-.39-.16-.52-.28-.14-.12-.21-.32-.21-.59,0-1.42.74-2.45,2.21-3.08,1.47-.63,3.6-.95,6.39-.95,1.24,0,2.22.15,2.96.45.74.3,1.3.71,1.69,1.23.39.52.64,1.13.75,1.85.11.71.17,1.48.17,2.3v9.26c0,.77.06,1.46.18,2.07s.32,1.12.6,1.55c.28.42.65.75,1.11.96.46.22,1.04.33,1.72.33.44,0,.85-.07,1.24-.21.39-.14.72-.33,1.01-.58.29-.25.52-.55.68-.89.17-.34.25-.72.25-1.13l.04-9.97ZM343.69,16.17c0-.26.04-.55.11-.85.08-.31.21-.67.39-1.09.19-.42.44-.91.75-1.47.31-.56.71-1.22,1.2-1.99.6-.95,1.17-1.92,1.72-2.9.55-.99,1.11-1.88,1.7-2.69.58-.81,1.2-1.46,1.86-1.98s1.42-.77,2.27-.77c.67,0,1.28.13,1.83.38.54.26,1.01.59,1.41.99.39.41.7.87.91,1.38.21.51.32,1.02.32,1.54,0,.57-.12,1.13-.37,1.68-.24.54-.57,1.07-.98,1.59-.41.52-.88,1.02-1.41,1.5-.53.48-1.08.95-1.66,1.4-.57.45-1.15.88-1.71,1.28-.57.41-1.1.79-1.58,1.15-1.26.95-2.29,1.63-3.09,2.04-.8.41-1.42.62-1.85.62-.22,0-.45-.06-.67-.17-.22-.11-.41-.26-.58-.44-.17-.18-.3-.38-.4-.59-.1-.21-.15-.42-.15-.62Z" fill="#e3e3e3"/>
    <path d="M400.55,38.02c0,.51.07.91.21,1.2.14.29.31.5.51.65.2.14.42.24.67.3.24.06.46.12.67.18.2.06.37.15.51.27.14.12.21.32.21.59,0,1.42-.74,2.45-2.21,3.08-1.47.63-3.6.95-6.39.95-.75,0-1.41-.06-1.97-.17-.56-.11-1.05-.27-1.45-.48-.41-.21-.74-.46-1-.75-.26-.29-.48-.62-.64-.98-.32.3-.72.62-1.19.96-.47.34-1.04.65-1.71.93-.67.28-1.44.51-2.3.69-.87.18-1.86.27-2.97.27-1.26,0-2.38-.17-3.34-.52s-1.8-.83-2.51-1.43c-.71-.61-1.3-1.31-1.77-2.13-.48-.81-.86-1.68-1.14-2.6-.29-.92-.49-1.88-.61-2.87-.12-.99-.18-1.96-.18-2.92s.07-1.99.22-3,.38-1.99.71-2.94c.33-.95.76-1.84,1.27-2.68.52-.84,1.15-1.56,1.89-2.18.74-.62,1.61-1.11,2.6-1.47.99-.36,2.12-.54,3.38-.54.89,0,1.69.07,2.42.2.72.13,1.38.3,1.96.52.58.21,1.09.46,1.54.73.44.27.83.55,1.15.82v-5.64c0-.51-.07-.9-.2-1.17-.13-.27-.3-.47-.51-.62-.21-.14-.42-.24-.66-.29-.23-.05-.45-.11-.66-.17s-.37-.15-.51-.27-.2-.32-.2-.59c0-.71.18-1.32.55-1.83.37-.51.91-.92,1.62-1.26.71-.33,1.59-.57,2.62-.72,1.04-.15,2.22-.22,3.56-.22s2.41.07,3.19.21c.78.14,1.37.37,1.78.7.41.33.67.78.78,1.34.11.56.17,1.27.17,2.12l-.08,23.76ZM386.35,40.94c.5,0,.99-.09,1.48-.26.49-.17.91-.37,1.27-.58-.02-.32-.04-.65-.04-.98v-12.88c-.42-.25-.89-.48-1.41-.7-.51-.22-1.04-.33-1.57-.33-.57,0-1.05.13-1.41.39-.37.26-.66.7-.87,1.32s-.36,1.45-.44,2.49c-.08,1.04-.12,2.34-.12,3.89,0,.94.03,1.86.09,2.77.06.91.2,1.73.41,2.45.21.72.52,1.3.94,1.75s.97.67,1.67.67Z" fill="#e3e3e3"/>
    <path d="M420.45,38.09c0,.5.07.89.21,1.16.14.27.31.48.52.63s.43.24.67.29c.24.05.46.11.67.17s.38.15.51.27c.14.12.21.32.21.59,0,1.42-.74,2.45-2.21,3.08-1.47.63-3.6.95-6.39.95-1.35,0-2.54-.07-3.58-.22-1.04-.15-1.91-.39-2.62-.72-.71-.33-1.25-.75-1.62-1.25s-.55-1.11-.55-1.83c0-.27.07-.47.21-.59s.31-.21.51-.27.42-.12.66-.17c.24-.05.46-.15.66-.29s.37-.35.51-.62c.14-.27.21-.66.21-1.17v-10c0-.5-.07-.89-.21-1.16-.14-.27-.31-.48-.51-.63s-.42-.24-.66-.29c-.24-.05-.46-.11-.66-.17s-.37-.15-.51-.27-.21-.32-.21-.59c0-.71.18-1.32.55-1.83s.91-.92,1.62-1.26c.71-.33,1.59-.57,2.62-.72,1.04-.15,2.23-.22,3.58-.22s2.41.07,3.18.21c.77.14,1.36.37,1.75.7.39.33.64.78.74,1.34.1.56.15,1.27.15,2.12v12.78ZM408.84,14.5c0-.62.11-1.17.33-1.64s.5-.87.84-1.22c.34-.34.74-.63,1.18-.86.44-.23.89-.42,1.34-.55.45-.14.88-.23,1.3-.29.42-.06.78-.08,1.1-.08.34,0,.72.03,1.15.08.43.06.87.15,1.32.29.45.14.89.32,1.33.55.44.23.83.52,1.17.86.34.34.62.75.82,1.22s.31,1.02.31,1.64-.1,1.16-.31,1.63-.48.88-.82,1.22c-.34.34-.73.62-1.17.85-.44.23-.88.42-1.33.55-.45.14-.89.23-1.32.29-.43.06-.81.08-1.15.08-.31,0-.68-.03-1.1-.08-.42-.06-.85-.15-1.3-.29-.45-.14-.9-.32-1.34-.55-.44-.23-.84-.52-1.18-.85-.34-.34-.62-.74-.84-1.21s-.33-1.01-.33-1.64Z" fill="#e3e3e3"/>
    <path d="M438.75,45.7c-1.49,0-2.85-.17-4.09-.52-1.24-.35-2.36-.83-3.35-1.43-.99-.61-1.86-1.32-2.61-2.15-.75-.82-1.37-1.71-1.87-2.67-.5-.96-.88-1.95-1.12-2.99-.25-1.04-.38-2.07-.38-3.11s.13-2.11.4-3.14c.27-1.03.67-2.01,1.22-2.93.54-.92,1.22-1.77,2.03-2.55.81-.77,1.76-1.44,2.86-2,1.09-.56,2.32-1,3.69-1.32,1.37-.32,2.88-.48,4.52-.48,1.45,0,2.78.16,3.98.49,1.21.33,2.29.77,3.27,1.34.97.57,1.83,1.24,2.56,2.01s1.34,1.62,1.83,2.53c.49.91.85,1.87,1.1,2.89s.37,2.03.37,3.05-.13,2.12-.39,3.19c-.26,1.06-.66,2.07-1.19,3.04-.53.96-1.2,1.85-2,2.68-.8.82-1.73,1.54-2.8,2.15-1.07.61-2.27,1.08-3.61,1.42-1.34.34-2.8.52-4.4.52ZM439.59,40.9c.41,0,.76-.12,1.04-.37.28-.24.51-.6.68-1.06.17-.46.3-1.02.37-1.68.08-.66.11-1.39.11-2.2,0-.71,0-1.46-.02-2.26s-.04-1.57-.09-2.34c-.05-.77-.13-1.5-.24-2.2-.11-.7-.27-1.32-.48-1.85s-.47-.96-.78-1.27c-.31-.31-.69-.47-1.14-.47s-.81.12-1.11.37c-.31.24-.56.58-.76,1.02-.2.44-.35.96-.44,1.57s-.14,1.29-.14,2.02c0,.69.01,1.43.04,2.23.03.8.08,1.6.15,2.39.08.79.18,1.56.33,2.29.14.74.32,1.39.54,1.95s.49,1.01.81,1.35c.32.34.7.51,1.13.51Z" fill="#e3e3e3"/>
    <path d="M476.07,45.23c-1.47,0-2.78-.08-3.93-.25-1.14-.17-2.1-.43-2.88-.79-.78-.36-1.37-.82-1.78-1.38-.41-.56-.61-1.23-.61-2,0-.3.08-.52.22-.65.15-.13.33-.23.55-.3.22-.07.46-.13.71-.2.26-.06.49-.17.71-.33s.4-.38.55-.68c.15-.3.22-.73.22-1.29v-14.13c0-.55-.07-.98-.22-1.28-.15-.31-.33-.54-.55-.69s-.46-.27-.71-.33-.49-.13-.71-.2c-.22-.07-.4-.17-.55-.3-.15-.13-.22-.35-.22-.65,0-.77.2-1.44.61-2,.41-.56,1-1.01,1.78-1.37s1.74-.62,2.88-.79c1.14-.17,2.45-.25,3.93-.25h9.99c2.09,0,3.88.11,5.37.33,1.49.22,2.75.52,3.76.89s1.82.82,2.43,1.33c.61.51,1.07,1.06,1.39,1.66s.52,1.21.62,1.85c.09.64.14,1.28.14,1.92,0,.74-.09,1.39-.28,1.95-.19.56-.44,1.06-.77,1.48-.33.42-.7.78-1.13,1.08s-.89.54-1.37.73c-.48.19-.98.34-1.49.44-.51.1-1,.16-1.48.19.89.06,1.77.22,2.65.49.88.26,1.67.68,2.38,1.25.71.57,1.28,1.32,1.71,2.25.44.93.66,2.1.66,3.49,0,.77-.11,1.52-.32,2.25-.21.72-.56,1.4-1.06,2.03-.49.63-1.14,1.21-1.95,1.72-.81.52-1.8.96-2.99,1.34-1.19.37-2.58.67-4.19.87-1.61.21-3.45.31-5.54.31h-8.52ZM485.37,28.42c.55,0,1-.1,1.34-.31.34-.21.61-.5.8-.89.19-.39.31-.86.38-1.41.06-.56.09-1.18.09-1.88,0-.75-.05-1.43-.14-2.03-.09-.61-.27-1.12-.52-1.54s-.59-.74-1.01-.96c-.42-.23-.97-.34-1.63-.34-.52,0-.93.1-1.23.29-.29.19-.51.45-.65.77-.14.32-.22.69-.24,1.11-.02.42-.04.87-.04,1.33v5.68c.06.04.21.07.43.09.19.03.47.05.84.07.37.02.9.03,1.57.03ZM485.37,31.53c-.67,0-1.2,0-1.57.03-.38.02-.66.04-.84.07-.22.04-.37.07-.43.09v5.68c0,.46.01.91.04,1.33.03.42.11.8.24,1.11.14.32.35.57.65.77.29.19.7.29,1.23.29.66,0,1.21-.11,1.63-.34.42-.22.76-.55,1.01-.96s.42-.93.52-1.54.14-1.29.14-2.05c0-.7-.03-1.33-.09-1.88-.06-.56-.19-1.02-.38-1.4s-.45-.67-.8-.88c-.34-.21-.79-.31-1.34-.31Z" fill="#e3e3e3"/>
    <path d="M516.77,45.7c-1.49,0-2.85-.17-4.09-.52-1.24-.35-2.36-.83-3.35-1.43-.99-.61-1.86-1.32-2.61-2.15-.75-.82-1.37-1.71-1.87-2.67-.5-.96-.88-1.95-1.12-2.99-.25-1.04-.38-2.07-.38-3.11s.13-2.11.4-3.14c.27-1.03.67-2.01,1.22-2.93.54-.92,1.22-1.77,2.03-2.55.81-.77,1.76-1.44,2.86-2,1.09-.56,2.32-1,3.69-1.32,1.37-.32,2.88-.48,4.52-.48,1.45,0,2.78.16,3.98.49,1.21.33,2.29.77,3.27,1.34.97.57,1.83,1.24,2.56,2.01s1.34,1.62,1.83,2.53c.49.91.85,1.87,1.1,2.89s.37,2.03.37,3.05-.13,2.12-.39,3.19c-.26,1.06-.66,2.07-1.19,3.04-.53.96-1.2,1.85-2,2.68-.8.82-1.73,1.54-2.8,2.15-1.07.61-2.27,1.08-3.61,1.42-1.34.34-2.8.52-4.4.52ZM517.61,40.9c.41,0,.76-.12,1.04-.37.28-.24.51-.6.68-1.06.17-.46.3-1.02.37-1.68.08-.66.11-1.39.11-2.2,0-.71,0-1.46-.02-2.26s-.04-1.57-.09-2.34c-.05-.77-.13-1.5-.24-2.2-.11-.7-.27-1.32-.48-1.85s-.47-.96-.78-1.27c-.31-.31-.69-.47-1.14-.47s-.81.12-1.11.37c-.31.24-.56.58-.76,1.02-.2.44-.35.96-.44,1.57s-.14,1.29-.14,2.02c0,.69.01,1.43.04,2.23.03.8.08,1.6.15,2.39.08.79.18,1.56.33,2.29.14.74.32,1.39.54,1.95s.49,1.01.81,1.35c.32.34.7.51,1.13.51Z" fill="#e3e3e3"/>
    <path d="M547.66,38.02c0,.51.07.91.21,1.2.14.29.31.5.51.65.2.14.42.24.67.3s.46.12.67.18.37.15.51.27.21.32.21.59c0,1.42-.74,2.45-2.21,3.08-1.47.63-3.6.95-6.39.95-1.34,0-2.52-.07-3.56-.22-1.04-.15-1.91-.39-2.62-.72-.71-.33-1.25-.75-1.62-1.25s-.55-1.11-.55-1.83c0-.27.07-.47.2-.59.13-.12.3-.21.5-.27.21-.06.42-.12.66-.17.23-.05.45-.15.66-.29s.38-.35.51-.62c.13-.27.2-.66.2-1.17v-21.06c0-.51-.07-.9-.2-1.17-.13-.27-.3-.47-.51-.62-.21-.14-.42-.24-.66-.29-.23-.05-.45-.11-.66-.17-.21-.06-.37-.15-.5-.27-.13-.12-.2-.32-.2-.59,0-.71.18-1.32.55-1.83s.91-.92,1.62-1.26c.71-.33,1.59-.57,2.62-.72,1.04-.15,2.22-.22,3.56-.22s2.41.07,3.19.21c.77.14,1.36.37,1.75.7.39.33.64.78.75,1.34.11.56.16,1.27.16,2.12v23.76Z" fill="#e3e3e3"/>
    <path d="M574.83,45.23c-.64,0-1.27-.03-1.9-.1-.63-.07-1.23-.21-1.8-.42s-1.09-.52-1.56-.92-.88-.93-1.22-1.59c-.25.59-.65,1.1-1.21,1.54-.56.44-1.19.8-1.89,1.1-.71.29-1.45.51-2.23.66-.78.14-1.53.22-2.24.22-1.26,0-2.37-.15-3.32-.45s-1.75-.73-2.4-1.28c-.65-.56-1.14-1.22-1.46-2s-.49-1.64-.49-2.6c0-1.14.19-2.21.57-3.23.38-1.02,1.03-1.91,1.95-2.67.92-.76,2.14-1.36,3.68-1.81,1.54-.44,3.46-.67,5.77-.67h2.57c0-1.39-.05-2.54-.14-3.45s-.24-1.64-.44-2.17c-.2-.54-.45-.91-.75-1.12-.3-.21-.66-.32-1.09-.32-.47,0-.87.14-1.19.43-.32.29-.58.7-.77,1.25-.19.54-.33,1.2-.41,1.97s-.12,1.64-.12,2.61c-.54,0-1.1,0-1.7-.03-.59-.02-1.18-.07-1.76-.14-.58-.07-1.13-.19-1.65-.35-.52-.16-.98-.37-1.38-.64-.4-.27-.72-.61-.96-1.02s-.36-.91-.36-1.5c0-.82.22-1.6.65-2.34.43-.74,1.09-1.38,1.99-1.94.89-.56,2.03-1,3.4-1.33s3.01-.5,4.91-.5c2.21,0,4.12.22,5.71.67,1.6.45,2.91,1.12,3.94,2.02s1.79,2.03,2.29,3.4c.49,1.37.74,2.97.74,4.81v6.63c0,.54.07.96.22,1.26s.32.53.52.68.43.27.68.33.48.13.68.2c.21.07.38.16.52.28.14.12.21.32.21.59,0,1.25-.56,2.22-1.68,2.91-1.12.69-2.76,1.04-4.92,1.04ZM565.8,41.39c.41,0,.75-.07,1-.2.26-.13.45-.32.59-.56.14-.24.23-.54.27-.9s.07-.76.07-1.21c0-.39,0-.88-.02-1.48-.01-.6-.03-1.19-.04-1.76-.03-.67-.04-1.37-.06-2.1-.17-.02-.34-.05-.5-.07-.16-.02-.31-.03-.46-.03-.64,0-1.17.13-1.6.38-.43.26-.78.61-1.04,1.07-.26.46-.45.99-.55,1.61-.11.62-.16,1.29-.16,2.01,0,.44.02.85.08,1.25.05.39.16.74.34,1.03s.43.52.76.69c.33.17.77.25,1.32.25Z" fill="#e3e3e3"/>
    <path d="M595.81,20.4c1.86,0,3.45.21,4.77.62s2.4.97,3.24,1.67c.84.7,1.46,1.52,1.85,2.45.39.94.58,1.93.58,2.98,0,.44-.07.82-.21,1.16-.14.34-.32.62-.55.86-.23.24-.51.42-.83.54-.33.12-.67.19-1.05.19-.32,0-.66-.06-.99-.17-.34-.11-.66-.29-.96-.54-.3-.25-.57-.57-.81-.97-.24-.4-.42-.89-.54-1.46-.1-.41-.25-.77-.45-1.09-.2-.31-.43-.58-.68-.8-.26-.22-.54-.38-.84-.49-.31-.11-.61-.16-.91-.16-.54,0-1,.11-1.4.34s-.72.55-.98.98c-.26.43-.46.96-.58,1.57-.12.62-.19,1.31-.19,2.09,0,3,.45,5.22,1.36,6.66.91,1.44,2.36,2.16,4.36,2.16.57,0,1.16-.08,1.76-.23s1.16-.33,1.67-.52c.51-.19.96-.36,1.33-.52.37-.16.63-.23.77-.23.29,0,.51.12.67.37.16.24.24.52.24.83,0,.1,0,.19,0,.28,0,.09-.03.18-.07.26-.36.92-.87,1.78-1.54,2.56s-1.45,1.46-2.37,2.04c-.92.58-1.96,1.03-3.12,1.36-1.16.32-2.42.49-3.78.49s-2.68-.17-3.84-.5c-1.16-.33-2.21-.79-3.14-1.39-.93-.59-1.74-1.29-2.44-2.09s-1.27-1.67-1.74-2.61c-.47-.94-.82-1.93-1.05-2.96s-.35-2.07-.35-3.12.12-2.11.36-3.16c.24-1.04.59-2.03,1.07-2.97.47-.94,1.07-1.8,1.78-2.59.71-.79,1.54-1.48,2.49-2.06.95-.58,2.02-1.03,3.2-1.36,1.19-.32,2.49-.49,3.92-.49Z" fill="#e3e3e3"/>
    <path d="M623,23.66c.29-.31.67-.66,1.14-1.03.47-.38,1.06-.73,1.76-1.06s1.51-.61,2.45-.83c.93-.22,2-.34,3.21-.34,1.4,0,2.6.18,3.6.53s1.85.83,2.54,1.43c.69.6,1.25,1.29,1.67,2.07.42.78.74,1.6.96,2.45s.38,1.72.45,2.59c.08.87.11,1.69.11,2.46v5.92c0,.54.07.96.21,1.26.14.3.31.53.52.68.21.16.44.27.68.33s.47.13.68.2c.21.07.39.16.52.28.14.12.21.32.21.59,0,1.42-.73,2.45-2.2,3.08-1.47.63-3.59.95-6.38.95-1.35,0-2.54-.07-3.58-.22-1.04-.15-1.91-.39-2.62-.72-.71-.33-1.25-.75-1.62-1.25s-.55-1.11-.55-1.83c0-.27.07-.47.21-.59.14-.12.31-.21.53-.28.21-.07.44-.13.67-.19s.46-.16.67-.31c.21-.15.39-.37.52-.66s.21-.7.21-1.24v-7.64c0-.8-.06-1.52-.17-2.15-.11-.64-.31-1.17-.58-1.6-.28-.43-.65-.76-1.12-.99-.47-.23-1.05-.35-1.75-.35-.36,0-.69.05-.99.15-.3.1-.58.22-.83.37s-.48.3-.67.46c-.19.16-.36.31-.5.45v11.39c0,.51.07.91.21,1.2.14.29.31.5.52.65.21.14.43.24.67.3.24.06.46.12.67.18s.38.15.51.27.21.32.21.59c0,1.42-.74,2.45-2.21,3.08-1.47.63-3.6.95-6.39.95s-4.75-.32-6.19-.95c-1.44-.63-2.16-1.66-2.16-3.08,0-.27.07-.47.2-.59.13-.12.3-.21.51-.27s.42-.12.66-.17c.23-.05.45-.15.66-.29s.37-.35.51-.62c.13-.27.2-.66.2-1.17v-21.06c0-.51-.07-.9-.2-1.17-.13-.27-.3-.47-.51-.62-.21-.14-.42-.24-.66-.29-.23-.05-.45-.11-.66-.17s-.38-.15-.51-.27c-.13-.12-.2-.32-.2-.59,0-1.42.72-2.45,2.16-3.08,1.44-.63,3.51-.95,6.19-.95,1.35,0,2.41.07,3.19.21.78.14,1.37.37,1.77.7.4.33.66.78.77,1.34s.17,1.27.17,2.12l-.04,9.4Z" fill="#e3e3e3"/>
    <path d="M667.84,45.23c-.64,0-1.27-.03-1.9-.1-.63-.07-1.23-.21-1.8-.42s-1.09-.52-1.56-.92-.88-.93-1.22-1.59c-.25.59-.65,1.1-1.21,1.54-.56.44-1.19.8-1.89,1.1-.71.29-1.45.51-2.23.66-.78.14-1.53.22-2.24.22-1.26,0-2.37-.15-3.32-.45s-1.75-.73-2.4-1.28c-.65-.56-1.14-1.22-1.46-2s-.49-1.64-.49-2.6c0-1.14.19-2.21.57-3.23.38-1.02,1.03-1.91,1.95-2.67.92-.76,2.14-1.36,3.68-1.81,1.54-.44,3.46-.67,5.77-.67h2.57c0-1.39-.05-2.54-.14-3.45s-.24-1.64-.44-2.17c-.2-.54-.45-.91-.75-1.12-.3-.21-.66-.32-1.09-.32-.47,0-.87.14-1.19.43-.32.29-.58.7-.77,1.25-.19.54-.33,1.2-.41,1.97s-.12,1.64-.12,2.61c-.54,0-1.1,0-1.7-.03-.59-.02-1.18-.07-1.76-.14-.58-.07-1.13-.19-1.65-.35-.52-.16-.98-.37-1.38-.64-.4-.27-.72-.61-.96-1.02s-.36-.91-.36-1.5c0-.82.22-1.6.65-2.34.43-.74,1.09-1.38,1.99-1.94.89-.56,2.03-1,3.4-1.33s3.01-.5,4.91-.5c2.21,0,4.12.22,5.71.67,1.6.45,2.91,1.12,3.94,2.02s1.79,2.03,2.29,3.4c.49,1.37.74,2.97.74,4.81v6.63c0,.54.07.96.22,1.26s.32.53.52.68.43.27.68.33.48.13.68.2c.21.07.38.16.52.28.14.12.21.32.21.59,0,1.25-.56,2.22-1.68,2.91-1.12.69-2.76,1.04-4.92,1.04ZM658.81,41.39c.41,0,.75-.07,1-.2.26-.13.45-.32.59-.56.14-.24.23-.54.27-.9s.07-.76.07-1.21c0-.39,0-.88-.02-1.48-.01-.6-.03-1.19-.04-1.76-.03-.67-.04-1.37-.06-2.1-.17-.02-.34-.05-.5-.07-.16-.02-.31-.03-.46-.03-.64,0-1.17.13-1.6.38-.43.26-.78.61-1.04,1.07-.26.46-.45.99-.55,1.61-.11.62-.16,1.29-.16,2.01,0,.44.02.85.08,1.25.05.39.16.74.34,1.03s.43.52.76.69c.33.17.77.25,1.32.25Z" fill="#e3e3e3"/>
    <path d="M691.1,25.31c0-.29-.26-.55-.79-.79s-1.32-.36-2.4-.36c-.55,0-1,.03-1.34.09s-.62.15-.81.26c-.2.11-.33.25-.4.41-.07.16-.1.35-.1.56,0,.41.2.77.6,1.08.4.31.93.6,1.58.89.66.29,1.4.57,2.24.86.84.29,1.69.62,2.57.98.87.37,1.73.79,2.57,1.27.84.48,1.58,1.05,2.24,1.71.66.66,1.18,1.42,1.58,2.29.4.87.6,1.89.6,3.04,0,1.41-.32,2.63-.96,3.64-.64,1.02-1.49,1.85-2.54,2.51s-2.25,1.14-3.59,1.45-2.71.47-4.11.47-2.79-.15-4.15-.44c-1.36-.29-2.56-.7-3.62-1.23-1.06-.52-1.92-1.15-2.57-1.89-.65-.74-.97-1.55-.97-2.44,0-.52.08-.98.24-1.38s.38-.72.65-.97.58-.45.93-.57c.35-.12.71-.19,1.09-.19.6,0,1.09.07,1.48.21.39.14.7.32.95.53.24.22.44.47.59.75.15.28.29.57.43.87s.29.59.45.87c.16.28.38.53.66.75.27.22.63.4,1.06.53.43.14.98.21,1.64.21,1.06,0,1.84-.09,2.35-.28.51-.19.76-.56.76-1.1,0-.2-.18-.4-.55-.59-.37-.19-.85-.4-1.45-.61s-1.29-.45-2.06-.71-1.56-.57-2.36-.93c-.8-.36-1.59-.77-2.36-1.24s-1.46-1.01-2.06-1.63c-.6-.62-1.08-1.33-1.45-2.13-.37-.8-.55-1.7-.55-2.72,0-1.11.14-2.11.41-2.99.27-.88.66-1.65,1.15-2.32.49-.67,1.08-1.23,1.77-1.7.69-.46,1.44-.84,2.25-1.13.81-.29,1.67-.51,2.58-.64.91-.13,1.85-.2,2.81-.2,1.66,0,3.08.16,4.27.47,1.19.31,2.16.71,2.93,1.2.77.49,1.33,1.03,1.7,1.64.36.61.54,1.2.54,1.79,0,.41-.08.8-.25,1.17-.17.37-.42.69-.74.96-.33.27-.72.49-1.18.66-.46.16-.99.24-1.59.24-.67,0-1.23-.04-1.66-.11-.43-.08-.77-.18-1.03-.31-.26-.13-.43-.29-.53-.47s-.15-.38-.15-.61.04-.39.11-.51c.07-.11.15-.22.23-.33.08-.11.16-.22.23-.35.08-.12.11-.31.11-.54Z" fill="#e3e3e3"/>
  </g>
  <use width="441.51" height="366" transform="translate(710.65) scale(.15)" xlink:href="#a"/>
</svg>