<?xml version="1.0" encoding="UTF-8"?>
<svg id="a" data-name="Camada 1" xmlns="http://www.w3.org/2000/svg" viewBox="0 0 290.87 238.4">
  <path d="M19.52,46.24c15.47-.11,28.27-.37,38.4-.8-.69,2.72-1.12,5.33-1.28,7.84-.16,2.51-.24,5.55-.24,9.12H0c.43-10.35.64-20.03.64-29.04S.43,14.67,0,4.32h19.52v41.92Z" fill="#121113"/>
  <path d="M73.84,9.92c0,4.8-1.03,8.87-3.08,12.2-2.05,3.33-4.73,5.8-8.04,7.4-2.51-2.51-4.64-4.37-6.4-5.6,5.28-1.44,8.56-4.08,9.84-7.92h-11.04V0h18.72v9.92Z" fill="#121113"/>
  <path d="M89.98,55.24c-5.76-5.31-8.64-12.76-8.64-22.36s2.87-16.91,8.6-22.24c5.73-5.33,14.73-8,27-8s21.35,2.67,27.08,8c5.73,5.33,8.6,12.75,8.6,22.24s-2.85,17.12-8.56,22.4-14.75,7.92-27.12,7.92-21.2-2.65-26.96-7.96ZM129.74,43.48c2.61-2.27,3.92-5.8,3.92-10.6s-1.31-8.19-3.92-10.48c-2.61-2.29-6.88-3.44-12.8-3.44s-10.11,1.15-12.72,3.44c-2.61,2.29-3.92,5.79-3.92,10.48s1.31,8.27,3.92,10.56c2.61,2.29,6.85,3.44,12.72,3.44s10.19-1.13,12.8-3.4Z" fill="#121113"/>
  <path d="M222.88,35.44c-2.27,3.2-6.15,5.52-11.64,6.96.64.85,1.09,1.52,1.36,2l12.96,18h-21.76c-2.35-4.37-6.05-10.56-11.12-18.56h-11.76v18.56h-18.88c.43-10.35.64-20.03.64-29.04s-.21-18.69-.64-29.04h18.88v.08h16.4c10.77,0,18.29,1.73,22.56,5.2,4.27,3.47,6.4,8.16,6.4,14.08,0,4.64-1.13,8.56-3.4,11.76ZM180.92,19.76v9.12h10.8c4.53,0,7.96-.15,10.28-.44,2.32-.29,3.93-.76,4.84-1.4.91-.64,1.36-1.57,1.36-2.8s-.43-2.08-1.28-2.72c-.85-.64-2.45-1.09-4.8-1.36-2.35-.27-5.81-.4-10.4-.4h-10.8Z" fill="#121113"/>
  <path d="M280.92,20.24c-6.35-.32-11.04-.51-14.08-.56v27.36c3.09-.05,7.79-.24,14.08-.56v15.92h-46.48v-15.92c6.13.32,10.8.51,14,.56v-27.36c-3.2.05-7.87.24-14,.56V4.32h46.48v15.92Z" fill="#121113"/>
  <path d="M8.56,135.52c-5.71-5.12-8.56-12.43-8.56-21.92s2.85-17.09,8.56-22.64c5.71-5.55,14.59-8.32,26.64-8.32,16.85,0,28.13,5.79,33.84,17.36-4.8,1.65-10.43,4.13-16.88,7.44-1.55-2.99-3.99-5.2-7.32-6.64-3.33-1.44-6.73-2.16-10.2-2.16-5.12,0-8.93,1.35-11.44,4.04-2.51,2.69-3.76,6.01-3.76,9.96,0,4.27,1.35,7.75,4.04,10.44,2.69,2.69,6.81,4.04,12.36,4.04,4.43,0,7.95-.73,10.56-2.2,2.61-1.47,4.53-3.8,5.76-7,4.37,2.35,9.97,4.99,16.8,7.92-2.67,6.45-7.12,10.96-13.36,13.52-6.24,2.56-13.04,3.84-20.4,3.84-12.05,0-20.93-2.56-26.64-7.68Z" fill="#121113"/>
  <path d="M144.7,84.32c-.37,9.01-.56,18.69-.56,29.04s.19,20.03.56,29.04h-18.8v-21.76h-29.44v21.76h-18.8c.43-10.35.64-20.03.64-29.04s-.21-18.69-.64-29.04h18.8v21.76h29.44v-21.76h18.8Z" fill="#121113"/>
  <path d="M205.05,142.4c-1.01-3.04-2.37-6.85-4.08-11.44h-25.52l-4,11.44h-20.08l22.4-58.08h29.44l22.56,58.08h-20.72ZM196.41,118.48c-2.03-5.6-4.11-11.2-6.24-16.8l-1.92-5.2c-1.87,4.85-4.61,12.19-8.24,22h16.4Z" fill="#121113"/>
  <path d="M252.47,126.24c15.47-.11,28.27-.37,38.4-.8-.69,2.72-1.12,5.33-1.28,7.84-.16,2.51-.24,5.55-.24,9.12h-56.4c.43-10.35.64-20.03.64-29.04s-.21-18.69-.64-29.04h19.52v41.92Z" fill="#121113"/>
  <path d="M47.04,222.24c2.93,1.39,6.32,2.72,10.16,4-3.57,3.04-8.27,7.09-14.08,12.16-5.97-4.59-11.07-9.79-15.28-15.6-9.55-1.12-16.57-4.27-21.08-9.44-4.51-5.17-6.76-12-6.76-20.48,0-9.49,2.87-16.91,8.6-22.24,5.73-5.33,14.73-8,27-8s21.35,2.67,27.08,8c5.73,5.33,8.6,12.75,8.6,22.24,0,16.64-8.08,26.43-24.24,29.36ZM48.4,203.48c2.61-2.27,3.92-5.8,3.92-10.6s-1.31-8.19-3.92-10.48c-2.61-2.29-6.88-3.44-12.8-3.44s-10.11,1.15-12.72,3.44c-2.61,2.29-3.92,5.79-3.92,10.48s1.31,8.27,3.92,10.56c2.61,2.29,6.85,3.44,12.72,3.44s10.19-1.13,12.8-3.4Z" fill="#121113"/>
  <path d="M127.77,164.24h19.84v31.84c-.11,7.84-2.79,14.32-8.04,19.44s-14.09,7.68-26.52,7.68-21.2-2.44-25.84-7.32c-4.64-4.88-6.91-11.29-6.8-19.24v-32.4h19.84v31.12c0,2.35.17,4.25.52,5.72.35,1.47,1.47,2.84,3.36,4.12,1.89,1.28,4.95,1.92,9.16,1.92,4.59,0,7.95-.65,10.08-1.96,2.13-1.31,3.4-2.76,3.8-4.36.4-1.6.6-3.65.6-6.16v-30.4Z" fill="#121113"/>
  <path d="M176.99,207.76c20.27-.11,34.96-.4,44.08-.88-.37,2.19-.6,4.44-.68,6.76-.08,2.32-.12,5.24-.12,8.76h-62.16c.43-10.35.64-20.03.64-29.04s-.21-18.69-.64-29.04h62.16v14.48h-43.28v7.68c2.56.05,6.35.08,11.36.08,8.48,0,17.25-.16,26.32-.48v13.76c-9.07-.32-17.84-.48-26.32-.48-5.01,0-8.8.03-11.36.08v8.32Z" fill="#121113"/>
</svg>