<?xml version="1.0" encoding="UTF-8"?>
<svg id="a" data-name="Camada 1" xmlns="http://www.w3.org/2000/svg" viewBox="0 0 441.51 366">
  <path d="M153.81,138.63c1.5-.5,3.03-.91,4.57-1.26-.51-1.58-.83-3.24-1.16-4.77-.54-2.54-.9-5.11-1.13-7.69-.86-9.37.04-18.85,2.54-27.91,1.24-4.52,2.89-8.92,4.94-13.13,1.04-2.13,2.17-4.23,3.41-6.25.28-.46.58-.92.88-1.37-4.16.94-8.17,2.37-12.05,4.4-12.33,6.42-22.01,17.55-25.23,31.22-1.65,6.98-1.23,14.01-.22,21.02.45,3.16,1.28,6.19,2.27,9.23.61,1.89,1.15,3.79,1.8,5.66,1.98-1.34,4.02-2.58,6.14-3.68,2.06-1.08,4.1-2.16,6.33-3.12s4.59-1.57,6.89-2.33Z" fill="#e3e3e3"/>
  <path d="M202.5,264.8c7.57,2.18,15.12,4.41,22.7,6.52.18-3.53.36-7.06.52-10.59.18-3.84.18-7.72.58-11.54-8.57-2.57-16.77-6.35-24.14-11.38-.26,8.99-.44,18.02.34,26.98Z" fill="#e3e3e3"/>
  <path d="M177.96,86.85c.78,2.07,1.56,4.15,2.32,6.24.7,1.92,1.68,3.9,2.03,5.92.09.46-.45.88-.75,1.1-4.56,3.49-9,7.13-13.47,10.74,2.69,1.35,5.47,2.51,8.25,3.68,1.6.67,3.24,1.3,4.74,2.15,1.1.62,2.59,1.27,3.2,2.44.19.17.28.39.24.66,0,.05-.02.1-.03.15,0,.05,0,.1-.03.14-.58,3.51-1.56,6.98-3.07,10.21-.78,1.67-1.66,3.27-2.67,4.84-.26.41-.53.82-.8,1.22,7.14.72,14.19,2.57,20.7,5.48,3.71,1.65,7.24,3.62,10.5,6.02.14-.18.28-.36.42-.54,3.7-5.03,6.07-10.93,7.55-16.96,1.73-7.04,2.42-14.36,1.28-21.53-1.06-6.69-3.75-13.32-7.9-18.68-2.12-2.73-4.52-5.37-7.34-7.38-2.99-2.13-6.37-3.87-9.7-5.08-3.34-1.21-6.8-2.01-10.32-2.41-1.28-.14-2.78-.24-4.39-.24-1.5,0-3.52.08-4.58.18-.16.02-.31.04-.46.06,1.4,3.87,2.82,7.74,4.27,11.59Z" fill="#e3e3e3"/>
  <path d="M267.14,257.19c.23,2.1.46,4.2.69,6.3.23,2.1.46,4.2.69,6.3.05.53.11,1.05.17,1.58.02.14.15.9.2,1.18.13-.03.27-.07.4-.1.44-.11.88-.23,1.32-.34,8.02-2.05,15.99-4.26,23.96-6.47,1.41-6.95,1.94-14.06,1.79-21.14-2.48,1.11-5.03,2.14-7.67,3.06-7.16,2.51-14.55,4.21-22.04,5.09.25,1.48.33,2.99.5,4.54Z" fill="#e3e3e3"/>
  <path d="M150.5,335.51s0,0,0,0c-.08.11-.18.22-.33.31-2.47,1.51-5.25,2.38-8.15,2.58-6.17.45-12.27-1.89-17.67-4.64-5.91-3-11.56-6.67-17.12-10.27-11.11-7.21-21.13-16.1-29.11-26.68-1.99-2.63-3.85-5.28-5.68-8.08-1.84-2.8-3.54-5.75-5.64-8.36-3.98-4.95-7.45-10.46-10.44-16.07-2.97-5.58-5.25-11.39-6.62-17.64-1.37-6.25-1.91-12.5-2.31-19.01-.4-6.52-.61-13.03-1.23-19.52-.69-7.19-1.74-14.32-2.31-21.51-1.08-13.59-1.02-27.31,1.33-40.77,2.05-11.82,5.85-23.21,10.95-34.05,2.78-5.89,5.89-11.62,9.22-17.23,3.16-5.32,6.39-10.61,10.17-15.52,3.47-4.48,7.31-8.93,11.08-12.91,3.77-3.99,7.78-7.71,12.51-10.55,9.29-5.57,20.46-7.89,31.22-8.42,0,0,0,0,.01,0,1.43-1.08,2.88-2.14,4.35-3.18,15.52-11.03,32.74-19.57,50.83-25.47,8.98-2.93,18.16-5.22,27.44-6.9-2.62-.09-5.25-.13-7.87-.13-30.34-.02-60.92,5.97-88.37,19.14,0,0,0,0-.01,0-1.9,1.38-3.81,2.75-5.72,4.13-18.44,13.41-34.74,29.83-48.23,48.2-13.52,18.41-24.23,39.14-30.37,61.2-5.78,20.79-7.01,42.15-4.45,63.76,2.56,21.61,8.79,42.84,18.24,62.43,4.73,9.81,10.3,19.25,16.74,28.03,4.35,5.93,9.11,11.51,14.16,16.83,0,0,.01,0,.02.01,8.35,6.75,17.37,12.62,27.02,17.66,17.15,8.94,36.09,14.87,55.23,18.12,17.69,3.02,35.51,3.63,53.43,3.25-11.34-1.64-22.58-4.03-33.57-7.36-9.87-2.99-19.49-6.79-28.71-11.39ZM147.3,26.86c0-.19.09-.36.23-.5l.26-.21c.23-.14.48-.22.73-.26l.44-.03c.23,0,.44.02.65.09.19.03.37.11.54.21.15.06.26.17.35.31.1.1.14.23.14.38,0,.09,0,.16-.03.25v.12c0,.12-.02.26-.08.37-.06.14-.16.25-.29.32-.13.12-.28.19-.45.25l-.39.1-.43.03c-.22,0-.42-.02-.63-.09-.13,0-.25-.05-.36-.12-.16-.05-.3-.15-.42-.27l-.16-.23c-.06-.11-.06-.25-.09-.37v-.12l-.02-.25h.01ZM130.42,28.99c.12-.22.29-.38.51-.49.25-.16.52-.26.8-.31.3-.1.63-.13.95-.13.43,0,.85.06,1.25.21l.5.24c.28.15.5.38.64.66.14.22.27.44.41.66.06.11.14.23.21.34.04.05.06.1.09.16.02.06.03.12.05.17.11.25.11.51,0,.76-.14.27-.35.48-.61.63-.14.1-.3.17-.48.23-.38.13-.77.19-1.17.19-.21,0-.42-.02-.64-.05-.37-.06-.71-.18-1.04-.37-.19-.13-.36-.28-.53-.43-.12-.11-.19-.25-.28-.37-.18-.26-.36-.51-.54-.77h-.01c-.21-.19-.32-.45-.34-.75,0-.22.08-.41.22-.57ZM33.89,165.21h0c0-.18.09-.35.23-.49l.26-.21c.23-.14.48-.22.73-.26l.44-.03c.23-.01.44.02.65.09.19.03.37.11.54.21.15.06.26.17.35.31.1.1.14.23.14.38,0,.09,0,.16-.03.25v.12c0,.12-.02.26-.08.37-.06.14-.16.25-.29.32-.13.12-.28.19-.45.25l-.39.1-.43.03c-.22,0-.42-.02-.63-.09-.13,0-.25-.05-.36-.12-.16-.05-.3-.15-.42-.27l-.16-.23c-.06-.11-.06-.25-.09-.37v-.12l-.02-.25h.01ZM37.6,212.37c-.03.78-.82,1.11-1.61,1.19-.94.11-2.47-.1-2.5-1.19v-.3h-.02c-.04-1.7,4.19-1.69,4.14,0v.3ZM40.06,226.17c-.52,0-1.57-.22-1.57-.92s1.05-.92,1.57-.92,1.57.22,1.57.92-1.04.92-1.57.92ZM154.95,343.33c-.14.27-.35.48-.61.63-.14.1-.3.17-.48.23-.38.13-.77.19-1.17.19-.21,0-.42-.02-.64-.05-.37-.06-.71-.18-1.04-.37-.19-.13-.36-.28-.53-.43-.12-.11-.19-.25-.28-.37-.18-.26-.36-.51-.54-.77h-.01c-.21-.19-.32-.45-.34-.75,0-.22.08-.41.22-.57.12-.22.29-.38.51-.49.25-.16.52-.26.8-.31.3-.1.63-.13.95-.13.43,0,.85.06,1.25.21l.5.24c.28.15.5.38.64.66.14.22.27.44.41.66.06.11.14.23.21.34.04.05.06.1.09.16.02.06.03.12.05.17.11.25.11.51,0,.76Z" fill="#e3e3e3"/>
  <path d="M39.48,263.63c-8.73-20.08-14.19-41.68-15.9-63.51-1.7-21.76.51-43.71,7.37-64.47,7.26-21.97,18.93-42.38,33.26-60.5,7.24-9.17,15.45-17.97,23.82-25.68,2.77-2.55,5.61-5.07,8.52-7.53-.02.02-.05.03-.07.04-15.67,10.13-29.85,22.64-41.83,36.9-8.32,9.91-15.61,20.68-21.66,32.12-3.01,5.71-5.74,11.58-8.11,17.58-1.19,3-2.33,6.05-3.32,9.09-1,3.04-1.64,6.23-2.48,9.32-3.97,14.81-5.85,30.03-4.86,45.34.79,12.21,2.97,23.99,6.28,35.59,3.84,13.42,9.17,26.42,15.94,38.64,6.3,11.38,13.79,21.92,22.53,31.55.01.02.03.03.04.05-7.77-10.74-14.28-22.42-19.54-34.53Z" fill="#e3e3e3"/>
  <path d="M216.16,44.68h.14s-.07,0-.11,0h-.03Z" fill="#e3e3e3"/>
  <polygon points="384.32 214.71 383.93 214.69 383.88 214.69 384.31 214.71 384.32 214.71" fill="#e3e3e3"/>
  <path d="M112.93,75.82c6.61-9.1,14.08-17.66,22.12-25.41,1.59-1.53,3.21-3.04,4.86-4.54-.04.02-.07.05-.11.07-7.45,5.22-14.5,10.99-21.11,17.25-12.57,11.92-23.53,25.53-32.36,40.46-8.82,14.94-15.54,31.14-19.54,48.02-3.91,16.33-5.09,33.18-3.58,49.95,1.51,16.76,5.66,33.34,11.99,48.79,6.34,15.44,15.19,30.17,25.55,42.76,7.53,9.15,16.16,17.37,25.7,24.37,0,0,0,0,0,0-15.34-15.21-27.03-34.01-35.3-53.91-8.38-20.14-13.4-41.83-14.84-63.51-1.44-21.68.84-43.52,6.98-64.38,6.32-21.51,16.46-41.81,29.63-59.93Z" fill="#e3e3e3"/>
  <path d="M371.58,125.33c2.82-6.96,4.6-14.15,4.59-21.82-.01-7.67-1.82-15.18-5.36-22-1.38-2.66-2.94-5.23-4.97-7.45-1.79-1.97-3.75-3.69-5.72-5.15-5.32-4-11.58-7.46-18.05-8.89-4.4-.98-8.9-1.1-13.28-.45,2.36,1.77,4.57,3.77,6.74,5.57,3.19,2.64,6.33,5.31,9.26,8.23.56.57.31,1.16-.16,1.58-.2.69-.73,1.32-1.13,1.94-.59.93-1.16,1.87-1.7,2.83-1.09,1.93-2.11,3.93-3.02,5.92-.91,1.99-1.76,4.01-2.56,6.05-.37.93-.76,1.8-1.16,2.76-.16.39-.31.79-.48,1.18.85.08,1.69.23,2.53.33,1.5.19,2.93.49,4.46.76,1.53.27,3.13.55,4.61.81,1.48.26,3.36.31,4.66,1.13.26.16.69.54.64.92,0,.01,0,.02,0,.03.08.12.15.26.16.42.46,4.92.57,9.89.1,14.81-.24,2.38-.55,4.75-.99,7.1-.21,1.11-.44,2.29-.79,3.42,1.74.04,3.48.13,5.21.3,5.09.52,10.07,1.73,14.86,3.48.5-1.27,1.02-2.53,1.53-3.8Z" fill="#e3e3e3"/>
  <path d="M440.89,185.38c-1.53-16.81-5.3-33.31-8.95-49.27-.88-3.84-1.76-7.68-2.6-11.52l-.17-.76c-4.03-18.25-8.2-37.11-18.71-53.83-5.74-9.15-13.03-16.41-19.41-22.31-7.99-7.37-16.28-13.88-24.66-19.36-9.72-6.35-19.49-11.26-29.03-14.61-8.88-3.12-18.56-5.72-30.45-8.19-17.61-3.66-35.43-5.52-52.97-5.52-3.05,0-6.14.06-9.17.17-5.35.2-10.72.58-15.96,1.13-7.95-.73-15.94-1.1-23.76-1.1-25.26,0-49.43,3.77-71.83,11.22-27.7,9.22-53.48,24.76-74.55,44.95-19.93,19.1-35.81,42.48-45.94,67.64-1.29,3.21-2.46,6.41-3.51,9.52-.33,1.01-.71,2.03-1.08,3.08-.8,2.21-1.62,4.5-2.28,6.93-1.81,6.6-3.23,13.31-4.23,19.94C.48,170.95-.05,177.77,0,184.33c.07,11.57,1.59,23.94,4.51,36.76,3.2,14,7.94,27.6,14.09,40.43,7.02,14.67,15.81,28.21,26.12,40.23,11.5,13.41,25,24.96,40.12,34.34,16.63,10.3,35.5,18.08,56.09,23.12,18.36,4.5,37.89,6.78,58.04,6.78,4.85,0,9.79-.13,14.69-.4,5.88-.32,11.17-.77,16.16-1.37,1.93.16,3.95.3,6.13.43,8.2.51,15.42.76,22.06.76,14.67,0,27.45-1.22,39.06-3.73,18.88-4.07,37.39-11.43,55.02-21.88,16.93-10.05,32.45-22.55,46.11-37.15,15.73-16.78,27.31-34.82,34.41-53.6,7.42-19.63,10.28-41.65,8.27-63.69ZM425.13,246.24c-7.2,19.05-18.88,36.15-32.76,50.96-13.01,13.9-27.98,26.02-44.36,35.74-16.31,9.67-34.06,16.94-52.62,20.94-19.31,4.17-39.56,4.01-58.93,2.8-2.26-.14-4.53-.3-6.79-.49-5.47.68-10.94,1.12-16.44,1.42-23.55,1.27-47.44-.54-70.39-6.16-18.91-4.63-37.2-11.88-53.78-22.15-14.33-8.89-27.28-19.95-38.26-32.75-9.98-11.64-18.36-24.65-24.98-38.48-5.93-12.36-10.46-25.4-13.51-38.76-2.62-11.49-4.24-23.24-4.31-35.03-.05-6.58.53-13.11,1.51-19.6.97-6.42,2.33-12.78,4.04-19.02.89-3.28,2.22-6.53,3.24-9.59,1.03-3.06,2.15-6.08,3.35-9.08,9.79-24.32,25.12-46.7,44.05-64.84,20.32-19.47,44.83-34.25,71.54-43.14,29.92-9.94,61.83-12.63,93.12-9.67,5.39-.59,10.79-.98,16.2-1.18,20.17-.75,40.47,1.08,60.22,5.19,9.91,2.06,19.86,4.55,29.43,7.91,9.64,3.38,18.92,8.28,27.31,13.76,8.38,5.48,16.26,11.76,23.61,18.54,6.77,6.26,13.14,12.84,18.06,20.68,9.91,15.77,13.87,34.11,17.84,52.07,4.36,19.78,9.56,39.57,11.4,59.79,1.85,20.36-.59,41.08-7.79,60.14Z" fill="#e3e3e3"/>
  <path d="M330.72,125.46c-.55-1.17-1.07-2.35-1.56-3.53-1.02-2.5-1.9-5.05-2.83-7.58-3.22-8.73-5.66-17.81-6.57-27.08-.85-8.69-.22-17.38,1.76-25.86-4.85,1.76-9.37,4.5-13.2,8.13-9.65,9.14-15.51,22.6-16.2,35.8-.37,7.19.64,14.42,2.99,21.2,1.17,3.34,2.65,6.54,4.4,9.61.89,1.57,1.84,3.1,2.9,4.56.52.71,1.09,1.44,1.6,2.1.05.06.07.12.11.18.52-.49,1.04-.99,1.58-1.46,6.55-5.72,14.2-10.32,22.47-13.02,1.16-.38,2.33-.72,3.51-1.03-.34-.66-.64-1.36-.95-2.02Z" fill="#e3e3e3"/>
  <path d="M416.6,127.57c-1.99-9.03-4.09-17.96-7.12-26.7-2.96-8.52-6.16-16.97-10.81-24.61-4.64-7.64-10.81-14.04-17.33-20.12-14.24-13.29-30.74-25-49.2-31.57-9.24-3.3-18.86-5.71-28.46-7.7-9.66-2.01-19.42-3.47-29.25-4.33-19.38-1.72-39.08-1.03-58.23,2.29-19.02,3.3-37.66,9.26-54.84,18.08-1.33.96-2.66,1.93-3.99,2.9-17.79,13.09-33.1,29.33-45.42,47.81-12.32,18.47-21.53,39.06-26.92,60.6-5.21,20.87-6.7,42.16-4.43,63.71,2.27,21.55,8.03,42.77,17.16,62.43,4.56,9.81,10.07,19.4,16.28,28.03,5.84,8.12,12.47,15.58,19.62,22.55,7.04,4.86,14.44,9.18,22.13,12.93,16.39,7.96,34.06,13.12,52,16.19,19.22,3.29,38.79,4.24,58.26,3.89,18.41-.34,36.4-4.31,53.6-11.22,17.21-6.91,33.31-16.61,47.69-28.27,14.84-12.04,28.33-26.17,38.79-42.21,11.16-17.11,19-37.12,21.36-56.95,2.37-19.83-.43-39.7-4.52-59.11-2.02-9.57-4.26-19.08-6.36-28.62ZM276.09,188.15c.02-.15.09-.28.21-.38l.27-.21.35-.16c.21-.08.42-.12.64-.12.15-.02.3-.02.45,0,.22,0,.43.04.64.12l.35.16c.11.05.22.1.32.15.02.01.05.02.08.03.14.06.25.17.36.27l.12.11c.16.15.26.33.26.56l-.06.3c-.12.22-.27.38-.49.5l-.38.17c-.23.08-.46.13-.7.13-.25.03-.5.02-.75-.02-.23-.03-.44-.1-.64-.21-.18-.06-.35-.17-.49-.31l-.12-.11c-.12-.1-.19-.23-.26-.37-.03-.08-.08-.15-.11-.23h-.01c-.08-.13-.09-.27-.03-.4ZM274.8,60.86v.3c-.03.78-.82,1.11-1.61,1.19-.94.11-2.47-.1-2.5-1.19v-.3h-.02c-.04-1.7,4.19-1.69,4.14,0ZM229.03,67.51c.52,0,1.57.22,1.57.92s-1.04.92-1.57.92-1.57-.22-1.57-.92,1.05-.92,1.57-.92ZM215.11,43.73l.13-.18c.11-.13.28-.2.44-.26.3-.24.69-.36,1.07-.43.28-.05.55-.05.82-.02.27,0,.52.05.77.14.54.21.98.46,1.42.84.11.1.21.21.29.31.15.19.3.4.41.63.1.22.1.43,0,.65l-.21.29c-.21.21-.45.36-.73.44l-.49.12c-.28.05-.55.05-.82.02-.27,0-.52-.05-.77-.14-.36-.13-.77-.37-.94-.73-.02-.03-.03-.06-.05-.08-.06-.08-.13-.14-.21-.21-.02-.01-.04-.02-.05-.03-.32-.13-.72-.36-.88-.71-.11-.09-.2-.2-.23-.34-.04-.1-.03-.21.02-.3ZM125.86,209.05c0,.21-.05.37-.18.51-.06.13-.16.23-.28.29-.18.15-.39.27-.62.34l-.08.03h.01c-.15.05-.3.09-.47.12l-.49.04c-.12,0-.22-.02-.33-.03-.02,0-.03,0-.05,0-.28,0-.55-.05-.81-.15l-.44-.21-.35-.26s-.05-.05-.08-.08c0-.01-.03-.03-.04-.04-.08-.11-.15-.22-.24-.32v-.02c-.05-.09-.08-.29-.1-.43,0-.06-.02-.13-.04-.19v-.04c0-.09,0-.08.03-.22.05-.23.02-.15.16-.35,0-.01.02-.02.03-.03.02-.03.04-.06.08-.12.06-.1.06-.12.13-.16,0-.01.04-.03.04-.03h.01c.13-.15.29-.25.46-.31.13-.08.26-.12.4-.14.23-.08.45-.1.69-.1l.48.04c.15.03.31.08.45.12,0,.01.03.01.04.01.05.01.09.03.14.05.03.01.06.01.09.03.15.06.29.14.44.22h.02c.19.1.35.24.45.42.04.05.09.11.12.16,0,.02.03.03.03.05.04.06.08.12.12.18l.06.1v.02l.08.36v.15ZM136.84,182.09l-.24.35c-.17.18-.38.31-.62.4-.17.1-.35.15-.53.18-.3.09-.61.12-.92.12l-.64-.05c-.29-.03-.56-.12-.81-.26-.24-.09-.44-.22-.62-.4-.14-.13-.25-.34-.36-.51-.04-.06-.08-.12-.12-.18-.09-.12-.16-.23-.24-.36-.08-.13-.16-.25-.24-.38-.11-.16-.18-.31-.17-.53,0-.06.03-.13.03-.19,0-.27.11-.5.3-.68.24-.23.51-.39.81-.49.37-.12.75-.18,1.13-.18s.77.05,1.13.18c.16.06.32.14.48.23v-.02c.07.03.15.08.22.12.32.18.48.39.66.69.02.03.03.05.05.09.06.13.14.24.22.37.08.13.15.25.23.38.04.06.08.12.11.17.03.06.09.13.11.19.11.26.11.51,0,.77ZM122.11,165.3c-2.39,3.4-4.4,7.02-6.12,10.86-1.72,3.84-2.73,7.89-4.25,11.79h.01c-.44,1.11-3.67,1.13-3.62-.3.18-4.88,2.22-9.82,4.29-14.25s4.77-8.6,7.8-12.43c3.15-3.97,6.8-7.57,10.81-10.7-.71-.99-1.4-1.99-2.05-3.02-3.66-5.77-5.59-12.99-6.21-19.75-.71-7.73.24-15.67,3.08-22.91,5.45-13.91,17.62-24.5,31.35-29.84,14.59-5.67,31.31-5.39,45.39,1.62,7.12,3.54,13.21,8.87,17.37,15.66,3.91,6.4,6.07,13.67,6.54,21.33.46,7.67-.96,15.7-3.4,22.96-1.95,5.83-5,11.19-8.95,15.88.71.76,1.37,1.56,1.98,2.41.75,1.06,1.43,2.16,2.03,3.31.31.58.63,1.21.65,1.89.02.57-.25,1.24-.4,1.8-.3,1.18-2.16,1.61-3.14,1.71-1.32.13-2.81-.17-3.77-1.13-.63-.63-1.25-1.16-1.62-1.99-.23-.49-.36-1.02-.58-1.5-.45-.98-.99-1.93-1.63-2.81-1.3-1.76-2.83-3.38-4.52-4.77-3.7-3.04-8.23-5.23-12.69-6.91-8.25-3.11-17.16-4.2-25.94-3.43-4.23.38-8.81,1.01-12.96,2.37-2.07.68-4.2,1.29-6.18,2.24-1.87.91-3.7,1.91-5.46,3.02-6.99,4.36-13.07,10.17-17.8,16.9ZM149.33,304.63l-.25.36c-.17.19-.39.34-.63.42-.16.1-.35.16-.54.19-.3.1-.62.13-.94.13l-.65-.05c-.29-.04-.57-.13-.83-.27-.24-.1-.44-.24-.63-.42-.07-.09-.14-.17-.2-.25-.19-.1-.36-.22-.52-.38l-.28-.4c-.11-.17-.21-.35-.3-.52-.11-.22-.12-.44-.04-.66.01-.15.07-.27.15-.4.07-.14.17-.27.27-.39.17-.18.38-.31.61-.4.16-.1.33-.15.52-.18.29-.09.59-.12.91-.12l.63.05c.21.04.43.08.64.15.2.05.39.12.57.22.27.13.52.23.71.49.04.04.08.1.12.15.09.11.16.21.24.31.19.17.3.38.32.63.05.1.05.2.03.31.04.08.08.16.12.24h-.02c.12.26.12.53,0,.79ZM278.19,331.57v.12c-.01.12-.02.26-.08.37-.06.14-.16.25-.29.32-.13.12-.28.19-.45.25l-.39.1-.43.03c-.22,0-.42-.02-.63-.09-.13,0-.25-.05-.36-.12-.16-.05-.3-.15-.42-.27l-.16-.23c-.06-.11-.06-.25-.09-.37v-.12l-.02-.25h.01c0-.18.09-.35.23-.49l.26-.21c.23-.14.48-.22.73-.26l.44-.03c.23-.01.44.02.65.09.19.03.37.11.54.21.15.06.26.17.35.31.1.1.14.23.14.38-.01.09-.01.16-.03.25ZM333.99,294.97c-.04.21-.08.43-.18.62-.09.13-.18.27-.28.39-.03.05-.09.1-.13.13-.18.17-.41.3-.66.39-.22.09-.44.13-.68.13-.25.03-.49.02-.73-.02-.23-.02-.43-.09-.63-.19-.18-.06-.33-.16-.48-.3-.15-.15-.25-.34-.25-.55l.06-.29c.06-.13.15-.23.25-.32.01-.01.03-.03.04-.04.02-.04.04-.09.06-.13,0-.04.01-.08.01-.12,0-.1.02-.19.02-.29,0-.04.01-.07.02-.11-.07-.1-.12-.2-.12-.33l.05-.23c.08-.22.33-.37.53-.45.28-.13.58-.18.9-.18.37,0,.72.1,1.05.26.16.07.29.19.42.29.02.01.05.02.07.03l.27.21.17.24s.03.05.05.09c.06.1.1.18.12.3.03.17.06.32.03.5ZM369.03,187.74c-1.19,2.43-5.54,2.02-6.85,0-.59-.92-.55-2.32-.9-3.34-.35-1.02-.81-2.01-1.39-2.91-1.25-1.91-3.07-3.39-5.04-4.52-2.06-1.17-4.24-1.97-6.44-2.45-.09,1.43-.22,2.86-.44,4.27-1.31,8.27-4.04,16.42-7.85,24.01.14.13.25.28.3.46.73,2.57,1.36,5.18,1.88,7.8,4.17,21.25-.09,44.42-10.97,63.06-10.22,17.51-26.34,31.23-45.01,39.01-19.73,8.22-42.02,9.09-62.5,3.13-10.47-3.05-20.44-7.95-29.28-14.34-4.64-3.35-8.89-7-12.21-11.64-3.32-4.64-5.75-9.75-7.6-15.13-3.45-10.08-5.58-20.95-5.2-31.63.18-5.2.53-10.6,2-15.76s3.72-9.94,6.7-14.39c.18-.27.43-.48.73-.66-.38-.68-.76-1.37-1.11-2.06-3.11-6.06-4.14-12.81-4.22-19.56-3.59.87-6.9,2.68-9.62,5.2-3.25,3.02-5.72,6.82-7.2,11-.75,2.11-1.24,4.32-1.58,6.53-.16,1.11-.22,2.25-.21,3.38.01,1.13-.13,2.23-.06,3.36h0s0,0,0,0c.09,1.4-3.23,1.46-3.62.29-.48-1.43-.94-2.7-1.08-4.21-.13-1.43-.18-2.89-.09-4.31.19-2.76.99-5.51,2.07-8.05,1.98-4.63,5.13-8.65,9.12-11.69,4.23-3.23,8.95-4.85,14.43-5.5,5.48-.65,11.09-.06,16.19,2.11,2.45,1.05,4.81,2.35,6.91,3.99,1.09.85,2.15,1.75,3.11,2.74,1.06,1.09,2.18,2.11,1.48,3.72-.56,1.29-2.65,1.62-3.85,1.35-1.13-.26-2.19-.51-3.02-1.4-.42-.45-.8-.96-1.22-1.42-.77-.82-1.59-1.6-2.46-2.29-1.93-1.5-3.99-2.66-6.12-3.47-2.13-.81-3.73-1.32-5.84-1.6-.49-.07-1-.12-1.53-.16,0,1.04.02,2.07.08,3.11.18,3.5.63,7.01,1.63,10.37,1.09,3.65,2.98,7.07,4.98,10.3,4.02,6.49,9.23,12.24,15.1,17.11,12.67,10.49,28.74,16.24,45,17.81,15.54,1.5,31.46-1.12,45.78-7.29,7.2-3.1,14.26-7.21,20.11-11.91,5.85-4.7,10.96-10.17,15.51-16.12,8.99-11.76,14.24-25.5,16.75-40-.26,0-.52-.02-.78-.02-3.78,0-7.71,1.19-11.03,2.94-2.03,1.07-4.01,2.3-5.75,3.81-1.6,1.38-3.1,3.19-5.08,4.01h.03c-.7.3-2.05.14-2.23-.75-.36-1.8,1.98-4,3.14-5.1,1.5-1.43,3.18-2.76,4.96-3.81,6.84-4.07,15.36-5.61,23.2-4.43,4.7.7,9.14,2.44,12.78,5.53,1.69,1.44,3.08,3.19,4.12,5.14.88,1.66,2.14,4.57,1.25,6.39ZM386.1,215.52c-.21.19-.45.35-.72.43-.38.17-.86.21-1.28.23-.23.02-.51-.02-.7-.04h-.06l-.52-.13c-.09-.03-.16-.06-.24-.11-.08-.03-.15-.08-.23-.11-.01-.01-.03-.01-.03-.01-.16-.09-.3-.22-.44-.34-.04-.02-.06-.06-.1-.1-.09-.12-.17-.24-.25-.36-.01-.02-.03-.04-.03-.06-.05-.15-.09-.32-.11-.49,0-.19.05-.36.18-.5,0,0,0-.01.01-.02.01-.03.02-.06.03-.09.09-.17.21-.32.32-.46.03-.03.05-.06.09-.09.13-.11.26-.21.4-.3.03-.02.06-.04.1-.05.32-.16.53-.25.9-.31.29-.05.6-.05.9-.01.46.02.91.12,1.31.35h0s0,0,0,0c0,0,.01,0,.02,0h0c.15.08.27.19.35.32.1.11.15.24.15.4l-.06.28-.05.07.16.12.16.24.05.26c0,.1-.03.2-.05.3-.02.22-.1.41-.26.56ZM393.65,171.18c-.14.27-.35.48-.61.63-.14.1-.3.17-.48.23-.38.13-.77.19-1.17.19-.21,0-.42-.02-.64-.05-.37-.06-.71-.18-1.04-.37-.19-.13-.36-.28-.53-.43-.12-.11-.19-.25-.28-.37-.18-.26-.36-.51-.54-.77h-.01c-.21-.19-.32-.45-.33-.75,0-.22.08-.41.22-.57.12-.22.29-.38.51-.49.25-.16.52-.26.8-.31.3-.1.63-.13.95-.13.43,0,.85.06,1.25.21l.5.24c.28.15.5.38.64.66.14.22.27.44.41.66.06.11.14.23.21.34.04.05.06.1.09.16s.03.12.05.17c.11.25.11.51,0,.76ZM395.95,152.31c-3.54-3.21-6.62-6.83-10.47-9.73-3.63-2.73-7.42-5.08-11.54-7.01-3.62-1.71-7.61-3.1-11.4-4-1.98-.48-3.99-.88-6.01-1.18-2.14-.32-3.54-.46-5.54-.54-7.93-.31-15.11,1.06-22.53,4.08-14.3,5.82-26.29,17.71-32.19,32.18-1.16,2.85-8.62,1.99-7.29-1.26,2.91-7.16,7.25-13.73,12.6-19.32-.74-.35-1.48-.72-2.03-1.32-.64-.7-1.22-1.48-1.79-2.24-9.12-12.05-12.89-27.99-10.48-42.88,2.22-13.62,9.61-27.09,20.85-35.28,11.69-8.52,28.14-10.81,41.83-6.45,7.04,2.24,13.51,6.19,19.05,11.02,5.17,4.5,8.81,10.29,11.29,16.65,2.94,7.54,3.99,15.78,3.2,23.81-.76,7.76-2.54,16.19-6.66,22.9-.05.08-.12.15-.17.23,1.33.66,2.64,1.34,3.92,2.08,3.73,2.15,7.31,4.82,10.47,7.73,3,2.76,6.31,5.98,8.02,9.74v.02h.02c.67,1.48-2.47,1.37-3.13.78ZM407.48,191.95c-.02.14-.04.28-.1.41,0,.05-.03.1-.05.15-.04.11-.09.23-.13.34-.1.19-.25.35-.44.45l-.35.16c-.42.16-.9.17-1.34.11-.22-.02-.41-.09-.59-.18-.16-.06-.31-.16-.44-.29-.12-.1-.19-.23-.21-.38-.05-.14-.04-.27.03-.41.03-.12.08-.25.11-.37.03-.12.08-.23.13-.35.05-.12.11-.23.16-.35.03-.06.05-.12.09-.18.06-.11.14-.21.23-.3,0-.02.02-.04.03-.05h-.01c.14-.28.43-.43.7-.54.3-.11.66-.13.97-.11.31.02.61.1.88.25.13.06.24.16.31.29.09.1.13.21.13.35l-.02.12c.03.07.05.14.05.22l-.13.66Z" fill="#e3e3e3"/>
  <path d="M111.76,187.94h0c-.44,1.12-3.67,1.15-3.62-.29.18-4.88,2.22-9.82,4.29-14.25,2.07-4.43,4.77-8.6,7.8-12.43,5.51-6.94,12.49-12.8,20.35-16.88,2.06-1.08,4.1-2.16,6.33-3.12s4.59-1.57,6.89-2.33c4.91-1.64,10.15-2.43,15.15-2.62,10.12-.37,20.44,1.68,29.68,5.8,4.58,2.04,8.92,4.56,12.77,7.79,1.76,1.47,3.38,3.11,4.71,4.99.75,1.06,1.43,2.16,2.03,3.31.31.58.63,1.21.65,1.89.02.57-.25,1.24-.4,1.8-.3,1.18-2.16,1.61-3.14,1.71-1.32.13-2.81-.17-3.77-1.13-.63-.63-1.25-1.16-1.62-1.99-.23-.49-.36-1.02-.58-1.5-.45-.98-.99-1.93-1.63-2.81-1.3-1.76-2.83-3.38-4.52-4.77-3.7-3.04-8.23-5.23-12.69-6.91-8.25-3.11-17.16-4.2-25.94-3.43-4.23.38-8.81,1.01-12.96,2.37-2.07.68-4.2,1.29-6.18,2.24-1.87.91-3.7,1.91-5.46,3.02-6.99,4.36-13.07,10.17-17.8,16.9-2.39,3.4-4.4,7.02-6.12,10.86-1.72,3.84-2.73,7.89-4.25,11.79h.01Z" fill="#121113"/>
  <path d="M399.09,151.53h0c.67,1.48-2.47,1.37-3.13.78-3.54-3.21-6.62-6.83-10.47-9.73-3.63-2.73-7.42-5.08-11.54-7.01-3.62-1.71-7.61-3.1-11.4-4-1.98-.48-3.99-.88-6.01-1.18-2.14-.32-3.54-.46-5.54-.54-7.93-.31-15.11,1.06-22.53,4.08-14.3,5.82-26.29,17.71-32.19,32.18-1.16,2.85-8.62,1.99-7.29-1.26,3.63-8.94,9.47-16.98,16.73-23.31,6.55-5.72,14.2-10.32,22.47-13.02,8.73-2.86,18.07-3.77,27.03-2.86,8.96.91,17.6,3.9,25.39,8.39,3.73,2.15,7.31,4.82,10.47,7.73,3,2.76,6.31,5.98,8.02,9.74v.02h.02,0Z" fill="#121113"/>
  <path d="M154.97,220.57h0c.09,1.4-3.23,1.46-3.62.29-.48-1.43-.94-2.7-1.08-4.21-.13-1.43-.18-2.89-.09-4.31.19-2.76.99-5.51,2.07-8.05,1.98-4.63,5.13-8.65,9.12-11.69,4.23-3.23,8.95-4.85,14.43-5.5s11.09-.06,16.19,2.11c2.45,1.05,4.81,2.35,6.91,3.99,1.09.85,2.15,1.75,3.11,2.74,1.06,1.09,2.18,2.11,1.48,3.72-.56,1.29-2.65,1.62-3.85,1.35-1.13-.26-2.19-.51-3.02-1.4-.42-.45-.8-.96-1.22-1.42-.77-.82-1.59-1.6-2.46-2.29-1.93-1.5-3.99-2.66-6.12-3.47-2.13-.81-3.73-1.32-5.84-1.6-1.78-.24-3.9-.35-5.88-.02-4.16.69-8.01,2.64-11.1,5.5-3.25,3.02-5.72,6.82-7.2,11-.75,2.11-1.24,4.32-1.58,6.53-.16,1.11-.22,2.25-.21,3.38.01,1.13-.13,2.23-.06,3.36h0Z" fill="#121113"/>
  <path d="M321.8,184.78h0c-.7.29-2.05.13-2.23-.76-.36-1.8,1.98-4,3.14-5.1,1.5-1.43,3.18-2.76,4.96-3.81,6.84-4.07,15.36-5.61,23.2-4.43,4.7.7,9.14,2.44,12.78,5.53,1.69,1.44,3.08,3.19,4.12,5.14.88,1.66,2.14,4.57,1.25,6.39-1.19,2.43-5.54,2.02-6.85,0-.59-.92-.55-2.32-.9-3.34s-.81-2.01-1.39-2.91c-1.25-1.91-3.07-3.39-5.04-4.52-3.56-2.02-7.45-2.97-11.23-2.97s-7.71,1.19-11.03,2.94c-2.03,1.07-4.01,2.3-5.75,3.81-1.6,1.38-3.1,3.19-5.08,4.01h.03Z" fill="#121113"/>
  <path d="M135.36,150.13h0c.7,1.65-3,1.96-3.75.94-.92-1.24-1.79-2.52-2.63-3.83-3.66-5.77-5.59-12.99-6.21-19.75-.71-7.73.24-15.67,3.08-22.91,5.45-13.91,17.62-24.5,31.35-29.84,14.59-5.67,31.31-5.39,45.39,1.62,7.12,3.54,13.21,8.87,17.37,15.66,3.91,6.4,6.07,13.67,6.54,21.33.46,7.67-.96,15.7-3.4,22.96-2.09,6.24-5.43,11.95-9.78,16.87-1.2,1.35-3.65,1.45-5.21.86-1.36-.52-2.54-1.96-1.36-3.29.99-1.11,1.93-2.27,2.82-3.47,3.7-5.03,6.07-10.93,7.55-16.96,1.73-7.04,2.42-14.36,1.28-21.53-1.06-6.69-3.75-13.32-7.9-18.68-2.12-2.73-4.52-5.37-7.34-7.38-2.99-2.13-6.37-3.87-9.7-5.08s-6.8-2.01-10.32-2.41c-1.28-.14-2.78-.24-4.39-.24-1.5,0-3.52.08-4.58.18-6.44.67-12.54,2.41-18.34,5.44-12.33,6.42-22.01,17.55-25.23,31.22-1.65,6.98-1.23,14.01-.22,21.02.45,3.16,1.28,6.19,2.27,9.23.88,2.69,1.59,5.41,2.7,8.02h.02Z" fill="#121113"/>
  <path d="M344.57,172.94h0c.26-1.57,4.01-1.61,3.93,0-.1,1.96-.23,3.92-.53,5.86-2.41,15.19-9.55,29.97-19.51,41.66-10.53,12.34-23.69,21.46-39.78,27.1-16.09,5.64-33.28,7.23-50.4,4.41-17.12-2.82-33.54-10.19-46.13-22.24-5.76-5.51-10.66-11.97-14.29-19.06-3.23-6.3-4.24-13.36-4.24-20.37,0-2.44,5.84-2.43,5.84,0,0,1.17.02,2.32.09,3.48.18,3.5.63,7.01,1.63,10.37,1.09,3.65,2.98,7.07,4.98,10.3,4.02,6.49,9.23,12.24,15.1,17.11,12.67,10.49,28.74,16.24,45,17.81,15.54,1.5,31.46-1.12,45.78-7.29,7.2-3.1,14.27-7.21,20.11-11.91,5.85-4.7,10.96-10.17,15.51-16.12,9.21-12.05,14.5-26.17,16.93-41.07h-.01v-.03h-.01Z" fill="#121113"/>
  <path d="M336.52,203.92h0c-.46-1.8,3.49-2.12,3.91-.65.73,2.57,1.36,5.18,1.88,7.8,4.17,21.25-.09,44.42-10.97,63.06-10.22,17.51-26.34,31.23-45.01,39.01-19.73,8.22-42.02,9.09-62.5,3.13-10.47-3.05-20.44-7.95-29.28-14.34-4.64-3.35-8.89-7-12.21-11.64-3.32-4.64-5.75-9.75-7.6-15.13-3.45-10.08-5.58-20.95-5.2-31.63.18-5.2.53-10.6,2-15.76s3.72-9.94,6.7-14.39c1.65-2.47,8.78-.95,6.53,2.41-1.31,1.96-2.46,4.06-3.48,6.19-2.17,4.58-3.84,9.63-4.82,14.62-.98,4.99-1.01,10.22-.68,15.28.67,10.43,2.97,20.66,7.5,30.13,9.14,19.08,30.48,29.93,50.47,33.84,19.64,3.84,40.48.71,57.78-8.49,17.31-9.21,31.5-23.88,39.67-41.74,8.8-19.19,10.58-41.28,5.31-61.71h-.01Z" fill="#121113"/>
  <path d="M296.27,241.75h0c-.05-1.2,2.89-1.21,3,0,.83,8.25.24,16.47-1.47,24.56-.1.43-.39.73-.83.85-4.73,1.31-9.48,2.59-14.19,3.97-2.3.67-4.71,1.37-6.92,2-2.2.63-4.45,1.55-6.71,1.92-1.96.32-3.89-.38-4.36-2.42-.52-2.29-.64-4.78-.93-7.05-.29-2.27-.57-4.43-.86-6.82s-.91-4.94-.79-7.35c.08-1.56,3.67-1.73,4.07-.34.56,1.97.62,4.01.84,6.11.23,2.1.46,4.2.69,6.3.23,2.1.46,4.2.69,6.3.05.53.11,1.05.17,1.58.02.17.22,1.3.22,1.3l-.61.03c.32-.09.66-.16.98-.25.44-.11.88-.23,1.32-.34,8.26-2.11,16.46-4.39,24.66-6.67l-.83.85c1.7-8.06,2.2-16.35,1.83-24.56h.01Z" fill="#121113"/>
  <path d="M226.39,248.19h0c.18-1.51,3.69-1.56,3.76,0,.21,4.16-.15,8.35-.3,12.54-.15,4.18-.34,8.36-.53,12.54-.06,1.42-2.27,1.33-3.18,1.09-8.99-2.4-18.04-4.55-27.06-6.84-.9-.23-1.87-.57-2.02-1.62-1.49-10.68-1.43-21.34-1.09-32.09.09-2.67,6.38-2.63,6.3,0-.3,10.68-.71,21.44.31,32.09l-1.36-1.46c9.02,2.58,18.01,5.28,27.06,7.75l-3.18,1.09c.22-4.18.42-8.36.62-12.54.19-4.17.16-8.4.67-12.54h0Z" fill="#121113"/>
  <path d="M137.55,324.97h0c.72.43.68,1.17,0,1.6-.78.5-1.9.41-2.69,0-7.27-3.77-14.09-8.23-20.45-13.4-13.24-10.75-24.32-23.7-33.19-38.34-8.87-14.64-15.48-30.67-19.59-47.29-4.1-16.52-5.88-33.1-4.67-50.63,1.21-17.53,5.46-34.85,12.11-51.09,6.72-16.38,15.92-31.7,27.02-45.51,11.11-13.81,24.14-26.06,38.6-36.31,15.53-11.02,32.74-19.57,50.84-25.47,19.23-6.27,39.36-9.6,59.52-10.35,20.17-.76,40.46,1.08,60.22,5.19,9.91,2.06,19.86,4.55,29.43,7.91,9.64,3.38,18.92,8.28,27.31,13.76,8.39,5.48,16.26,11.76,23.61,18.54,6.78,6.26,13.14,12.84,18.06,20.67,9.91,15.78,13.88,34.12,17.84,52.08,4.37,19.78,9.56,39.56,11.4,59.78,1.85,20.36-.59,41.09-7.79,60.14-7.2,19.05-18.88,36.15-32.76,50.96-13.01,13.9-27.98,26.02-44.36,35.74-16.31,9.67-34.06,16.95-52.62,20.94-19.31,4.17-39.56,4.01-58.93,2.8-19.37-1.21-38.66-4.14-57.25-9.78-17.73-5.38-34.67-13.35-49.88-23.94-.96-.67-1.05-1.7,0-2.36s2.82-.72,3.86,0c7.18,4.99,14.74,9.43,22.6,13.26,16.39,7.96,34.06,13.12,52,16.19,19.21,3.3,38.79,4.25,58.26,3.89,18.4-.34,36.4-4.31,53.6-11.22,17.2-6.91,33.31-16.61,47.69-28.27,14.84-12.04,28.32-26.17,38.79-42.21,11.16-17.11,19-37.12,21.37-56.95,2.37-19.83-.43-39.69-4.53-59.1-2.02-9.57-4.26-19.08-6.35-28.63-1.99-9.02-4.1-17.96-7.12-26.69-2.96-8.53-6.16-16.98-10.81-24.62-4.65-7.64-10.82-14.04-17.33-20.11-14.24-13.29-30.73-25.01-49.2-31.58-9.24-3.3-18.86-5.71-28.45-7.69-9.66-2.01-19.42-3.47-29.25-4.33-19.38-1.72-39.08-1.03-58.23,2.29-19.15,3.32-37.9,9.34-55.18,18.25-15.44,7.98-29.71,18.14-42.33,30.11-12.57,11.92-23.53,25.53-32.36,40.46-8.83,14.94-15.54,31.13-19.55,48.01-3.9,16.33-5.09,33.19-3.58,49.95,1.51,16.76,5.66,33.35,12,48.79,6.33,15.44,15.18,30.17,25.55,42.76s22.8,23.41,36.83,31.77l-.02.03h-.01Z" fill="#121113"/>
  <path d="M134.99,322.26h0c.5.48-.05.98-.52,1.16-.64.24-1.45.14-1.97-.3-2.04-1.73-4.01-3.54-5.91-5.43-15.41-15.24-27.14-34.08-35.44-54.04-8.38-20.14-13.4-41.83-14.84-63.51-1.44-21.68.84-43.52,6.98-64.38,6.32-21.51,16.46-41.81,29.63-59.93,6.61-9.1,14.08-17.66,22.12-25.41,8.05-7.76,16.82-15.22,26.37-21.03,1.17-.7,4.45.24,2.64,1.57-2.23,1.63-4.46,3.23-6.69,4.86-17.79,13.09-33.1,29.33-45.42,47.81-12.32,18.47-21.53,39.06-26.92,60.6-5.21,20.87-6.7,42.16-4.43,63.71,2.27,21.55,8.03,42.77,17.16,62.43,4.56,9.81,10.07,19.4,16.28,28.03,6.2,8.63,13.3,16.52,20.97,23.86h-.02.01Z" fill="#121113"/>
  <path d="M232.41,353.53h0c.59-.03,1.75.24,1.87.98s-.73,1.16-1.36,1.24c-6.55.94-13.1,1.5-19.69,1.86-23.55,1.26-47.44-.54-70.38-6.16-18.91-4.64-37.21-11.88-53.79-22.15-14.33-8.88-27.28-19.95-38.26-32.74-9.99-11.64-18.36-24.65-24.99-38.48-5.92-12.36-10.46-25.4-13.51-38.76-2.62-11.49-4.24-23.23-4.31-35.02-.04-6.58.53-13.11,1.51-19.6.97-6.42,2.33-12.77,4.04-19.02.89-3.27,2.22-6.53,3.24-9.59,1.03-3.06,2.15-6.08,3.35-9.08,9.79-24.33,25.12-46.71,44.05-64.84,20.32-19.47,44.83-34.26,71.54-43.14,29.96-9.95,61.91-12.64,93.24-9.66.93.09,2.37.91,1.9,2.04-.5,1.21-2.28,1.26-3.35,1.17-7.46-.71-14.95-1.07-22.42-1.07-30.48-.02-61.18,6.02-88.72,19.3-23.62,11.4-44.85,28-61.73,48.09-8.32,9.91-15.61,20.67-21.66,32.12-3.02,5.71-5.74,11.58-8.12,17.58-1.19,2.99-2.32,6.05-3.32,9.09-.99,3.04-1.64,6.22-2.47,9.32-3.98,14.82-5.86,30.03-4.86,45.35.79,12.21,2.97,23.99,6.28,35.59,3.84,13.42,9.17,26.42,15.94,38.65,7.4,13.37,16.45,25.59,27.22,36.52,11.88,12.04,25.4,21.95,40.46,29.81,17.15,8.95,36.08,14.87,55.22,18.12,24.15,4.12,48.55,3.75,73.09,2.52h-.02Z" fill="#121113"/>
  <path d="M84.11,322.25h0c.5.48-.05.98-.52,1.16-.64.24-1.45.14-1.97-.3-2.04-1.74-4.01-3.54-5.92-5.43-15.54-15.29-27.56-34.1-36.22-54.04-8.73-20.08-14.19-41.68-15.9-63.51-1.7-21.76.51-43.71,7.37-64.47,7.26-21.97,18.93-42.38,33.26-60.5,7.24-9.17,15.45-17.97,23.82-25.68,8.38-7.72,17.34-15.22,27.07-21.14,1.17-.7,4.45.24,2.64,1.57-2.24,1.64-4.5,3.24-6.74,4.87-18.44,13.41-34.74,29.83-48.23,48.2-13.52,18.41-24.23,39.14-30.37,61.2-5.78,20.79-7.01,42.15-4.45,63.76,2.56,21.61,8.79,42.84,18.24,62.43,4.73,9.81,10.3,19.25,16.74,28.03,6.31,8.61,13.47,16.49,21.16,23.86h.02Z" fill="#121113"/>
  <path d="M147.74,334.38h0c.67-.38,1.76-.44,2.42,0,.59.4.64,1.05,0,1.44-2.47,1.51-5.25,2.38-8.15,2.58-6.17.45-12.27-1.89-17.67-4.64-5.91-3-11.56-6.67-17.12-10.27-11.11-7.21-21.13-16.1-29.11-26.68-1.99-2.63-3.85-5.28-5.68-8.08s-3.54-5.75-5.64-8.36c-3.98-4.95-7.45-10.46-10.44-16.07-2.97-5.58-5.25-11.39-6.62-17.64-1.37-6.25-1.91-12.5-2.31-19.01-.4-6.52-.61-13.03-1.23-19.52-.69-7.19-1.74-14.32-2.31-21.51-1.08-13.59-1.02-27.31,1.33-40.77,2.05-11.82,5.85-23.21,10.95-34.05,2.78-5.89,5.89-11.62,9.22-17.23,3.16-5.32,6.39-10.61,10.17-15.52,3.47-4.48,7.31-8.93,11.08-12.91,3.77-3.99,7.78-7.71,12.51-10.55,9.87-5.92,21.86-8.17,33.23-8.49.72-.02,2,.28,2.16,1.15.16.86-.88,1.34-1.58,1.45-2.82.42-5.63.77-8.45,1.17-10.64,1.49-20.73,4.83-28.79,12.19-3.87,3.53-7.37,7.49-10.79,11.5-3.41,4.01-6.67,8.14-9.5,12.58-6.81,10.7-13.1,21.79-17.83,33.58-4.29,10.7-7.13,21.86-8.39,33.32-1.52,13.85-.81,27.81.7,41.63.7,6.43,1.6,12.99,1.99,19.27s.61,12.59,1.17,18.86c.56,6.22,1.5,12.62,3.4,18.37,1.9,5.75,4.68,11.19,7.77,16.39,1.55,2.6,3.17,5.14,4.81,7.68.85,1.32,1.43,2.78,2.23,4.13.75,1.26,1.57,2.5,2.33,3.75,3.38,5.51,6.72,10.98,10.76,16.04,4.04,5.06,8.5,9.57,13.62,13.69,5.11,4.12,10.8,7.56,16.37,11.01,5.31,3.29,10.63,6.79,16.44,9.14,5.44,2.22,11.6,3.48,16.97.42v-.03h-.01Z" fill="#121113"/>
  <path d="M149.33,303.84h0c.12.26.12.53,0,.79l-.25.36c-.17.19-.39.34-.63.42-.16.1-.35.16-.54.19-.3.1-.62.13-.94.13l-.65-.05c-.29-.04-.57-.13-.83-.27-.24-.1-.44-.24-.63-.42-.15-.19-.31-.38-.46-.56.73.26,1.46.51,2.19.77h-.09c-.37.01-.71-.03-1.06-.14-.22-.03-.42-.11-.61-.22-.27-.11-.5-.26-.7-.48l-.28-.4c-.11-.17-.21-.35-.3-.52-.11-.22-.12-.44-.04-.66.02-.24.13-.44.32-.62l.08-.06-.35.77c-.05-.35.16-.62.37-.88.17-.18.38-.31.61-.4.16-.1.34-.15.52-.18.29-.09.59-.12.91-.12l.63.05c.43.08.9.18,1.25.45l-1.77-.44c.27.01.54.03.81.06.32.03.64.14.92.29.27.13.52.23.71.49.04.04.08.1.12.15.09.11.16.21.24.31.19.17.3.38.32.63.06.14.06.29,0,.44-.02.25-.13.45-.32.63l-.43.34-.05.04.66-1.5c.1.21.21.4.3.61h-.02Z" fill="#121113"/>
  <path d="M121.77,207.68h0c.13-.14.29-.24.46-.3.13-.08.26-.12.4-.14.23-.08.45-.1.69-.1l.48.04c.15.03.31.08.45.12,0,.01.03.01.04.01.09.02.12.04.24.1.24.11.17.06.37.22.08.06.15.12.23.18l-1.73-.59c.11,0,.22,0,.32.02.27,0,.54.05.8.15.15.06.29.14.44.22h.02c.19.1.35.24.45.42.04.05.09.11.12.16,0,.02.03.03.03.05.04.06.08.12.12.18.02.03.06.1.06.1v.02l.08.36v.15c0,.21-.05.37-.18.51-.06.13-.16.23-.28.29-.18.15-.39.27-.62.34l-.08.03.68-.4c-.11.08-.21.17-.32.24-.26.14-.52.24-.81.28l-.49.04c-.37.01-.67-.08-1.02-.17l.98.16c-.12.01-.23,0-.35-.02-.28,0-.55-.05-.81-.15l-.44-.21-.35-.26s-.05-.05-.08-.08c0-.01-.03-.03-.04-.04-.08-.11-.15-.22-.24-.32v-.02c-.05-.09-.08-.29-.1-.43,0-.06-.02-.13-.04-.19v-.04c0-.09,0-.08.03-.22.05-.23.02-.15.16-.35.1-.18.25-.32.44-.42l.08-.04-.58.84v-.06c.06-.34.02-.25.17-.46.06-.1.06-.12.13-.16,0-.01.04-.03.04-.03h.01Z" fill="#121113"/>
  <path d="M135.22,182.04h0c-.23.13-.46.21-.71.25l-.43.03c-.21,0-.41-.02-.62-.09-.13,0-.25-.05-.36-.12-.15-.06-.29-.15-.41-.27l-.16-.23c-.08-.13-.08-.25-.03-.38.02-.14.09-.26.19-.36,0-.01.03-.04.03-.04l-.16.23.06-.14-.06.26v-.04l.83.85-.08-.02c-.26-.09-.49-.22-.68-.4-.16-.15-.26-.34-.26-.56v-.08l.06.3c-.03-.11-.08-.19-.13-.28l.19.28c-.05-.08-.11-.13-.17-.18l.31.24-.12-.08.9.31h-.03l.54.04h-.08l.56-.04h-.05l.52-.13h-.03l.44-.19s-.03.02-.04.02c.11-.1.23-.18.35-.27h0l-.36-1.64c.08.03.15.08.23.12.32.18.48.39.66.69.02.03.03.05.05.09.06.13.14.24.22.37s.15.25.23.38c.04.06.08.12.11.17.03.06.09.13.11.19.11.26.11.51,0,.77l-.24.35c-.17.18-.38.31-.62.4-.17.1-.35.15-.53.18-.3.09-.61.12-.92.12l-.64-.05c-.29-.03-.56-.12-.81-.26-.24-.09-.44-.22-.62-.4-.14-.13-.25-.34-.36-.51-.04-.06-.08-.12-.12-.18-.09-.12-.16-.23-.24-.36s-.16-.25-.24-.38c-.11-.16-.18-.31-.17-.53,0-.06.03-.13.03-.19,0-.27.11-.5.3-.68.24-.23.51-.39.81-.49.37-.12.75-.18,1.13-.18s.77.05,1.13.18c.3.12.65.28.88.53.1.1.22.24.26.39l-.21-.29c.12.13.22.27.3.42.05.1.08.21.1.31s.05.22.05.34v.09c-.02.13-.05.26-.09.39-.12.22-.27.38-.49.5-.26.15-.54.25-.83.3h-.09l1.17-.69c-.17.26-.35.48-.64.62l.04.03h-.01Z" fill="#121113"/>
  <path d="M276.13,188.55h0c-.08-.13-.09-.27-.03-.4.02-.15.09-.28.21-.38l.27-.21.35-.16c.21-.08.42-.12.64-.12.15-.02.3-.02.45,0,.22,0,.43.04.64.12l.35.16c.11.05.22.1.32.15.02.01.05.02.08.03.14.06.25.17.36.27l.12.11c.16.15.26.34.26.56l-.06.3c-.12.22-.27.38-.49.5l-.38.17c-.23.08-.46.13-.7.13-.25.03-.5.02-.75-.02-.23-.03-.44-.1-.64-.21-.18-.06-.35-.17-.49-.31l-.12-.11c-.12-.1-.19-.23-.26-.37-.03-.08-.08-.15-.11-.23h-.01Z" fill="#121113"/>
  <path d="M388.37,170.25h0c-.21-.21-.32-.46-.34-.76,0-.22.08-.41.22-.57.12-.22.29-.38.51-.49.25-.16.52-.26.8-.31.3-.1.63-.13.95-.13.43,0,.85.06,1.25.21l.5.24c.28.15.5.38.64.66.14.22.27.44.41.66.06.11.14.23.21.34.04.05.06.1.09.16s.03.12.05.17c.11.25.11.51,0,.76-.14.27-.35.48-.61.63-.14.1-.3.17-.48.23-.38.13-.77.19-1.17.19-.21,0-.42-.02-.64-.05-.37-.06-.71-.18-1.04-.37-.19-.13-.36-.28-.53-.43-.12-.11-.19-.25-.28-.37-.18-.26-.36-.51-.54-.77h-.01Z" fill="#121113"/>
  <path d="M130.54,30.32h0c-.21-.21-.32-.46-.34-.76,0-.22.08-.41.22-.57.12-.22.29-.38.51-.49.25-.16.52-.26.8-.31.3-.1.63-.13.95-.13.43,0,.85.06,1.25.21l.5.24c.28.15.5.38.64.66.14.22.27.44.41.66.06.11.14.23.21.34.04.05.06.1.09.16s.03.12.05.17c.11.25.11.51,0,.76-.14.27-.35.48-.61.63-.14.1-.3.17-.48.23-.38.13-.77.19-1.17.19-.21,0-.42-.02-.64-.05-.37-.06-.71-.18-1.04-.37-.19-.13-.36-.28-.53-.43-.12-.11-.19-.25-.28-.37-.18-.26-.36-.51-.54-.77h-.01Z" fill="#121113"/>
  <path d="M149.67,342.4h0c-.21-.21-.32-.46-.34-.76,0-.22.08-.41.22-.57.12-.22.29-.38.51-.49.25-.16.52-.26.8-.31.3-.1.63-.13.95-.13.43,0,.85.06,1.25.21l.5.24c.28.15.5.38.64.66.14.22.27.44.41.66.06.11.14.23.21.34.04.05.06.1.09.16s.03.12.05.17c.11.25.11.51,0,.76-.14.27-.35.48-.61.63-.14.1-.3.17-.48.23-.38.13-.77.19-1.17.19-.21,0-.42-.02-.64-.05-.37-.06-.71-.18-1.04-.37-.19-.13-.36-.28-.53-.43-.12-.11-.19-.25-.28-.37-.18-.26-.36-.51-.54-.77h-.01Z" fill="#121113"/>
  <path d="M404.6,190.7h0c.14-.28.43-.43.7-.54.3-.11.66-.13.97-.11s.61.1.88.25c.13.06.24.16.31.29.09.1.13.21.13.35l-.05.28-.45-.65.04.02c.15.08.27.17.35.31.1.11.14.23.14.38l-.13.66c-.02.14-.04.28-.1.41,0,.05-.03.1-.05.15-.04.11-.09.23-.13.34-.1.19-.25.35-.44.45l-.35.16c-.42.16-.9.17-1.34.11-.22-.02-.41-.09-.59-.18-.16-.06-.31-.16-.44-.29-.12-.1-.19-.23-.21-.38-.05-.14-.04-.27.03-.41.03-.12.08-.25.11-.37s.08-.23.13-.35.11-.23.16-.35c.03-.06.05-.12.09-.18.1-.19.26-.37.44-.46.25-.13.51-.22.78-.26l-1.09.64c.04-.09.09-.18.13-.27h-.01Z" fill="#121113"/>
  <path d="M385.63,212.95h0c.16.08.28.19.37.34.1.11.15.24.15.4l-.06.28-.17.25c-.13.13-.28.23-.45.29-.12.06-.25.11-.39.13-.23.06-.45.09-.68.09l-.46-.03h-.04l.48.03h-.09l.48-.04h-.09l.43-.1-.09.03.38-.17s-.03.02-.04.02c.16-.37.32-.72.49-1.08v.02c.1.22.1.42,0,.63-.12.23-.29.4-.51.52-.01.01-.04.03-.04.03l.31-.24c-.06.05-.12.11-.16.17l.21-.28c-.05.08-.09.16-.11.25l.08-.32v.18l-2.05-1.22c.1,0,.19,0,.29.02.28,0,.54.05.8.15.14.06.29.13.43.21h.01c.19.1.34.24.44.42.1.09.15.19.15.32.01.08.03.14.04.21l-.08-.35c.02.06.04.13.09.18l-.22-.31.12.13-.34-.26.13.08-.44-.21c.15.06.31.13.46.22.13.08.24.18.36.28l-.34-.26.11.06-.43-.19.11.03-.5-.13.12.02-.54-.04c.1,0,.18.02.28.02.17,0,.35.03.51.09.24.06.48.13.68.28-.43-.11-.86-.22-1.3-.32h.01l-.49.04.12-.02-.42.11.12-.04-.35.16s.05-.03.09-.05c.16-.11.35-.17.53-.21.14-.04.28-.06.42-.06.15-.02.29-.02.44,0,.15,0,.28.02.42.06.18.04.37.11.53.21l.26.19.16.24.05.26c0,.13-.04.27-.08.39-.01.04-.02.08-.04.11.02-.1.04-.19.08-.29v.05c-.01.24-.1.44-.27.61-.21.19-.45.35-.72.43-.38.17-.86.21-1.28.23-.23.02-.51-.02-.7-.04h-.06l-.52-.13c-.09-.03-.16-.06-.24-.11-.08-.03-.15-.08-.23-.11-.01-.01-.03-.01-.03-.01-.16-.09-.3-.22-.44-.34-.04-.02-.06-.06-.1-.1-.09-.12-.17-.24-.25-.36-.01-.02-.03-.04-.03-.06-.05-.15-.09-.32-.11-.49,0-.19.05-.36.18-.5.1-.18.25-.32.44-.42.23-.16.7-.3.97-.34l-1.5,1.18c.02-.17.04-.36.13-.53s.21-.32.32-.46c.03-.03.05-.06.09-.09.13-.11.26-.21.4-.3.03-.02.06-.04.1-.05.32-.16.53-.25.9-.31.51-.09,1.07-.05,1.56.13l-1.44-.11c.71-.11,1.48-.04,2.12.32h-.02,0Z" fill="#121113"/>
  <path d="M330.53,294.36h0c-.13-.12-.21-.27-.21-.44l.05-.23c.08-.22.34-.37.53-.45.28-.13.58-.18.9-.18.37,0,.72.1,1.05.26.16.08.3.19.43.3.05.05.11.12.16.18l-.94-.42c.1,0,.19.02.28.05.19.03.38.1.55.21l.27.21.17.24s.03.05.05.09c.06.1.1.18.12.3.03.17.06.32.03.5-.04.21-.08.43-.18.62-.09.13-.18.27-.28.39-.03.05-.09.1-.13.13-.18.17-.41.3-.66.39-.22.09-.44.13-.68.13-.25.03-.49.02-.73-.02-.23-.02-.43-.09-.63-.19-.18-.06-.34-.16-.48-.3-.15-.15-.25-.34-.25-.55l.06-.29c.11-.22.27-.37.48-.49.02-.01.05-.03.05-.03l-.29.22c.06-.05.13-.12.18-.19l-.18.26c.08-.11.13-.23.16-.36l-.06.28c.03-.1.03-.21.03-.3s.02-.19.02-.29c0-.15.05-.28.15-.39.09-.14.21-.25.36-.32l.06-.03-.4.91c-.03-.11-.06-.19-.13-.28l.15.22-.06-.09h-.02,0Z" fill="#121113"/>
  <path d="M274.88,331.33h0c0-.19.09-.36.23-.5l.26-.21c.23-.14.48-.22.73-.26l.44-.03c.23-.01.44.02.65.09.19.03.37.11.54.21.15.06.26.17.35.31.1.1.14.23.14.38-.01.09-.01.16-.03.25v.12c-.01.12-.02.26-.08.37-.06.14-.16.25-.29.32-.13.12-.28.19-.45.25l-.39.1-.43.03c-.22,0-.42-.02-.63-.09-.13,0-.25-.05-.36-.12-.16-.05-.3-.15-.42-.27l-.16-.23c-.06-.11-.06-.25-.09-.37v-.12l-.02-.25h.01Z" fill="#121113"/>
  <path d="M33.89,165.22h0c0-.19.09-.36.23-.5l.26-.21c.23-.14.48-.22.73-.26l.44-.03c.23-.01.44.02.65.09.19.03.37.11.54.21.15.06.26.17.35.31.1.1.14.23.14.38,0,.09,0,.16-.03.25v.12c0,.12-.02.26-.08.37-.06.14-.16.25-.29.32-.13.12-.28.19-.45.25l-.39.1-.43.03c-.22,0-.42-.02-.63-.09-.13,0-.25-.05-.36-.12-.16-.05-.3-.15-.42-.27l-.16-.23c-.06-.11-.06-.25-.09-.37v-.12l-.02-.25h.01Z" fill="#121113"/>
  <path d="M147.3,26.86h0c0-.19.09-.36.23-.5l.26-.21c.23-.14.48-.22.73-.26l.44-.03c.23,0,.44.02.65.09.19.03.37.11.54.21.15.06.26.17.35.31.1.1.14.23.14.38,0,.09,0,.16-.03.25v.12c0,.12-.02.26-.08.37-.06.14-.16.25-.29.32-.13.12-.28.19-.45.25l-.39.1-.43.03c-.22,0-.42-.02-.63-.09-.13,0-.25-.05-.36-.12-.16-.05-.3-.15-.42-.27l-.16-.23c-.06-.11-.06-.25-.09-.37v-.12l-.02-.25h.01Z" fill="#121113"/>
  <path d="M216.38,44.7h0c-.32,0-.65-.08-.93-.23-.17-.1-.31-.25-.36-.44-.04-.1-.03-.21.02-.3l.13-.18c.19-.22.53-.29.79-.36.08-.02.15-.04.23-.04l-.81.37.09-.1c.31-.34.78-.48,1.22-.56.28-.05.55-.05.82-.02.27,0,.52.05.77.14.54.21.98.46,1.42.84.11.1.21.21.29.31.15.19.3.4.41.63.1.22.1.43,0,.65l-.21.29c-.21.21-.45.36-.73.44l-.49.12c-.28.05-.55.05-.82.02-.27,0-.52-.05-.77-.14-.36-.13-.77-.37-.94-.73-.05-.11-.11-.19-.17-.29l.21.29c-.12-.16-.26-.3-.42-.43l.32.25c-.13-.1-.27-.18-.42-.25l.41.19s-.12-.04-.17-.06c-.42-.16-1.04-.51-1.01-1.06v-.13l.99.77h-.09l.36.03h-.15.01Z" fill="#121113"/>
  <path d="M270.66,60.86h0c-.04-1.7,4.19-1.69,4.14,0v.3c-.04,1.24-2.02,1.34-2.86,1.12-1.03-.27-1.8-1.25-.66-2l.24-.15c.65-.42,1.8-.42,2.45,0l.24.15c1.15.75.37,1.73-.66,2-.83.23-2.82.12-2.86-1.12v-.3h-.02Z" fill="#121113"/>
  <path d="M33.46,212.07h0c-.04-1.7,4.19-1.69,4.14,0v.3c-.04,1.24-2.02,1.34-2.86,1.12-1.03-.27-1.8-1.25-.66-2l.24-.15c.65-.42,1.8-.42,2.45,0l.24.15c1.15.75.37,1.73-.66,2-.83.23-2.82.12-2.86-1.12v-.3h-.02Z" fill="#121113"/>
  <path d="M229.03,69.34c-.52,0-1.57-.22-1.57-.92s1.05-.92,1.57-.92,1.57.22,1.57.92-1.04.92-1.57.92h0Z" fill="#121113"/>
  <path d="M40.06,226.17c-.52,0-1.57-.22-1.57-.92s1.05-.92,1.57-.92,1.57.22,1.57.92-1.04.92-1.57.92h0Z" fill="#121113"/>
  <path d="M304.7,145.07h0c.28,1.22-1.73,1.17-2.41.82-.95-.5-2.03-.88-2.76-1.68-.64-.7-1.22-1.48-1.79-2.24-9.12-12.05-12.89-27.99-10.48-42.88,2.22-13.62,9.61-27.09,20.85-35.28,11.69-8.52,28.14-10.81,41.83-6.45,7.04,2.24,13.51,6.19,19.05,11.02,5.17,4.5,8.81,10.29,11.29,16.65,2.94,7.54,3.99,15.78,3.2,23.81-.76,7.76-2.54,16.19-6.66,22.9-.95,1.55-2.95,1.97-4.66,1.66-1.37-.24-3.26-1.19-2.64-2.93s1.36-3.43,2.05-5.14c2.82-6.96,4.6-14.15,4.59-21.82-.01-7.67-1.82-15.18-5.36-22-1.38-2.66-2.94-5.23-4.97-7.45-1.79-1.97-3.75-3.69-5.72-5.15-5.32-4-11.58-7.46-18.05-8.89-11.98-2.68-24.75.99-33.76,9.53-9.65,9.14-15.51,22.6-16.2,35.8-.37,7.19.64,14.42,2.99,21.2,1.17,3.34,2.65,6.54,4.4,9.61.89,1.57,1.84,3.1,2.9,4.56.52.71,1.09,1.44,1.6,2.1.51.66.5,1.44.68,2.24h.01Z" fill="#121113"/>
  <path d="M184.5,119.92c0-.05.02-.1.03-.15.04-.26-.05-.48-.24-.66-.6-1.17-2.1-1.81-3.2-2.44-1.5-.85-3.14-1.48-4.74-2.15-2.78-1.17-5.55-2.33-8.25-3.68,4.47-3.6,8.91-7.24,13.47-10.74.29-.23.83-.64.75-1.1-.36-2.02-1.33-4-2.03-5.92-.77-2.09-1.55-4.16-2.32-6.24-1.53-4.07-3.04-8.17-4.52-12.27-.02-.07-.06-.13-.1-.19.38-.5.69-1.03.75-1.67.14-1.35-2.39-1.13-3.04-.75-.72.44-1.11.96-1.48,1.56-.48.15-.9.37-1.17.66-.38.41-.68.75-.58,1.33.03.18.1.34.19.48-.35.54-.71,1.07-1.04,1.62-1.24,2.02-2.38,4.12-3.41,6.25-2.05,4.21-3.7,8.61-4.94,13.13-2.5,9.07-3.4,18.54-2.54,27.91.24,2.58.59,5.15,1.13,7.69.54,2.54,1.06,5.42,2.47,7.75.41.67,2.66.91,2.62-.21h-.01c-.01-.47-.06-.93-.12-1.38,2.85-.48,8.08-.09,10.53.14-.16.47.46.79.82.88.58.15,1.25.06,1.72-.34,1.44-1.2,2.49-2.77,3.49-4.33,1.01-1.57,1.89-3.17,2.67-4.84,1.5-3.24,2.49-6.7,3.07-10.21.02-.04.02-.09.03-.14Z" fill="#121113"/>
  <path d="M351.67,100.04c-.01-.16-.08-.3-.16-.42,0-.01,0-.02,0-.03.05-.38-.38-.76-.64-.92-1.3-.82-3.18-.88-4.66-1.13-1.48-.26-3.08-.54-4.61-.81-1.53-.27-2.96-.56-4.46-.76-.84-.11-1.68-.25-2.53-.33.17-.39.32-.8.48-1.18.4-.95.79-1.83,1.16-2.76.8-2.04,1.65-4.06,2.56-6.05.91-1.99,1.92-3.99,3.02-5.92.54-.96,1.1-1.9,1.7-2.83.39-.62.93-1.24,1.13-1.94.47-.41.72-1.01.16-1.58-2.93-2.93-6.07-5.6-9.26-8.23-3.19-2.64-6.42-5.72-10.15-7.83-.43-.24-2.2-.28-2.13.5-.52.13-.95.4-1.06.83-2.52,9.35-3.38,19-2.44,28.64.91,9.27,3.35,18.35,6.57,27.08.93,2.53,1.82,5.08,2.83,7.58.49,1.19,1.01,2.37,1.56,3.53.62,1.3,1.12,2.69,2.13,3.75.55.58,2.5.82,3.29.17,0,0,0,0,0,.01l10.17-2.11c0,.19.01.39.03.58.1,1.03,2.03.86,2.45.19,1.12-1.78,1.58-4.07,1.97-6.13.44-2.35.76-4.72.99-7.1.48-4.92.37-9.89-.1-14.81Z" fill="#121113"/>
  <path d="M182.67,214.96c4.15,8.02,17.1,17.82,17.1,17.82l.08,33.12,27.4,7.38,1.06-25.06c11.24,4.48,36.04,3.23,36.04,3.23l3.32,22.49,28.49-7.63c1.98-2.15,1.64-24.56,1.64-24.56,25.3-10.73,39.27-38.13,39.27-38.13,12.27,27.83-.49,54.23-.49,54.23-19.86,56.48-77.38,60.78-77.38,60.78-19.14,1.04-61.61-2.26-79.44-38-19.17-38.46,2.92-65.67,2.92-65.67h0Z" fill="#121113"/>
  <path d="M128.11,48.89l-1.06,3.78c-8.63,6.61-21.26,20.18-21.26,20.18-27.69,29.48-39.73,70.2-39.73,70.2-21.33,81.8,21.37,136.49,21.37,136.49,18.9,29.3,43.83,42.24,43.83,42.24l18.72,11.76c-12.58,13.02-44.98-13.12-58.45-23.68-13.49-10.57-13.61-20.61-25.37-33.94-11.78-13.32-16.38-28.51-15.8-43.69.59-15.18-5.41-35.92-4.57-54.42.84-18.5,1.18-40.23,12.08-63.84,10.9-23.6,15.95-28.53,30.65-46.63,14.7-18.1,39.61-18.43,39.61-18.43h0v-.02h-.01Z" fill="#121113"/>
</svg>