<?xml version="1.0" encoding="UTF-8"?>
<svg id="a" data-name="Camada 1" xmlns="http://www.w3.org/2000/svg" viewBox="0 0 280.92 63.2">
  <path d="M19.52,46.24c15.47-.11,28.27-.37,38.4-.8-.69,2.72-1.12,5.33-1.28,7.84-.16,2.51-.24,5.55-.24,9.12H0c.43-10.35.64-20.03.64-29.04S.43,14.67,0,4.32h19.52v41.92Z" fill="#121113"/>
  <path d="M73.84,9.92c0,4.8-1.03,8.87-3.08,12.2-2.05,3.33-4.73,5.8-8.04,7.4-2.51-2.51-4.64-4.37-6.4-5.6,5.28-1.44,8.56-4.08,9.84-7.92h-11.04V0h18.72v9.92Z" fill="#121113"/>
  <path d="M89.98,55.24c-5.76-5.31-8.64-12.76-8.64-22.36s2.87-16.91,8.6-22.24c5.73-5.33,14.73-8,27-8s21.35,2.67,27.08,8c5.73,5.33,8.6,12.75,8.6,22.24s-2.85,17.12-8.56,22.4c-5.71,5.28-14.75,7.92-27.12,7.92s-21.2-2.65-26.96-7.96ZM129.74,43.48c2.61-2.27,3.92-5.8,3.92-10.6s-1.31-8.19-3.92-10.48c-2.61-2.29-6.88-3.44-12.8-3.44s-10.11,1.15-12.72,3.44c-2.61,2.29-3.92,5.79-3.92,10.48s1.31,8.27,3.92,10.56c2.61,2.29,6.85,3.44,12.72,3.44s10.19-1.13,12.8-3.4Z" fill="#121113"/>
  <path d="M222.88,35.44c-2.27,3.2-6.15,5.52-11.64,6.96.64.85,1.09,1.52,1.36,2l12.96,18h-21.76c-2.35-4.37-6.05-10.56-11.12-18.56h-11.76v18.56h-18.88c.43-10.35.64-20.03.64-29.04s-.21-18.69-.64-29.04h18.88v.08h16.4c10.77,0,18.29,1.73,22.56,5.2,4.27,3.47,6.4,8.16,6.4,14.08,0,4.64-1.13,8.56-3.4,11.76ZM180.92,19.76v9.12h10.8c4.53,0,7.96-.15,10.28-.44,2.32-.29,3.93-.76,4.84-1.4.91-.64,1.36-1.57,1.36-2.8s-.43-2.08-1.28-2.72c-.85-.64-2.45-1.09-4.8-1.36-2.35-.27-5.81-.4-10.4-.4h-10.8Z" fill="#121113"/>
  <path d="M280.92,20.24c-6.35-.32-11.04-.51-14.08-.56v27.36c3.09-.05,7.79-.24,14.08-.56v15.92h-46.48v-15.92c6.13.32,10.8.51,14,.56v-27.36c-3.2.05-7.87.24-14,.56V4.32h46.48v15.92Z" fill="#121113"/>
</svg>