<?xml version="1.0" encoding="UTF-8"?>
<svg id="a" data-name="Camada 1" xmlns="http://www.w3.org/2000/svg" viewBox="0 0 539.91 119.98">
  <path d="M37.06,8.2H0c.81,19.64,1.22,38.02,1.22,55.13s-.41,35.49-1.22,55.13h107.07c0-6.78.15-12.55.46-17.31s1.11-9.72,2.43-14.88c-19.23.81-43.54,1.32-72.9,1.52V8.2Z"/>
  <path d="M107.04,30.37h20.96c-2.43,7.29-8.66,12.3-18.68,15.04,3.34,2.33,7.39,5.87,12.15,10.63,6.28-3.04,11.37-7.72,15.26-14.05,3.9-6.33,5.85-14.05,5.85-23.16V0h-35.54v30.37Z"/>
  <path d="M225.84,5.01c-23.29,0-40.37,5.06-51.26,15.19-10.88,10.12-16.33,24.2-16.33,42.22s5.47,32.38,16.4,42.45c10.94,10.07,27.99,15.11,51.18,15.11s40.65-5.01,51.48-15.04,16.25-24.19,16.25-42.52-5.44-32.1-16.33-42.22c-10.88-10.12-28.02-15.19-51.41-15.19ZM250.14,82.54c-4.96,4.3-13.07,6.45-24.3,6.45s-19.19-2.17-24.15-6.53c-4.96-4.35-7.44-11.04-7.44-20.05s2.48-15.54,7.44-19.89c4.96-4.35,13.01-6.53,24.15-6.53s19.34,2.18,24.3,6.53c4.96,4.35,7.44,10.99,7.44,19.89s-2.49,15.82-7.44,20.12Z"/>
  <path d="M428.29,67.28c4.3-6.08,6.45-13.52,6.45-22.33,0-11.24-4.05-20.15-12.15-26.73-8.1-6.58-22.37-9.87-42.82-9.87h-31.13v-.15h-35.84c.81,19.64,1.22,38.02,1.22,55.13s-.41,35.49-1.22,55.13h35.84v-35.23h22.33c9.62,15.19,16.65,26.93,21.11,35.23h41.31l-24.6-34.17c-.51-.91-1.37-2.17-2.58-3.8,10.43-2.73,17.79-7.13,22.1-13.21ZM397.84,51.33c-1.73,1.22-4.79,2.1-9.19,2.66s-10.91.84-19.51.84h-20.5v-17.32h20.5c8.7,0,15.29.25,19.74.76,4.45.51,7.49,1.37,9.11,2.58,1.62,1.22,2.43,2.94,2.43,5.16s-.86,4.1-2.58,5.32Z"/>
  <path d="M539.91,38.42V8.2h-88.24v30.22c11.64-.61,20.5-.96,26.58-1.06v51.94c-6.07-.1-14.93-.46-26.58-1.07v30.22h88.24v-30.22c-11.95.61-20.86.97-26.73,1.07v-51.94c5.77.1,14.68.45,26.73,1.06Z"/>
</svg>