<?xml version="1.0" encoding="UTF-8"?>
<svg id="a" data-name="Camada 1" xmlns="http://www.w3.org/2000/svg" viewBox="0 0 594.25 239.99">
  <path d="M358.21,62.82c0-3.6.08-6.66.24-9.18.16-2.52.59-5.15,1.29-7.89-10.2.43-23.09.7-38.66.81V4.35h-19.65c.43,10.42.64,20.16.64,29.23s-.22,18.82-.64,29.23h56.78Z" fill="#121113"/>
  <path d="M356.93,16.11h11.11c-1.29,3.87-4.59,6.52-9.91,7.97,1.77,1.24,3.92,3.11,6.44,5.64,3.33-1.61,6.03-4.09,8.09-7.45,2.07-3.35,3.1-7.45,3.1-12.28V0h-18.84v16.11Z" fill="#121113"/>
  <path d="M392.02,55.61c5.8,5.34,14.85,8.01,27.14,8.01s21.56-2.66,27.3-7.97c5.74-5.32,8.62-12.83,8.62-22.55s-2.89-17.02-8.66-22.39c-5.77-5.37-14.86-8.05-27.26-8.05s-21.41,2.69-27.18,8.05c-5.77,5.37-8.66,12.83-8.66,22.39s2.9,17.17,8.7,22.51ZM406.36,22.55c2.63-2.31,6.9-3.46,12.81-3.46s10.25,1.16,12.89,3.46c2.63,2.31,3.95,5.83,3.95,10.55s-1.32,8.39-3.95,10.67c-2.63,2.28-6.93,3.42-12.89,3.42s-10.18-1.15-12.81-3.46c-2.63-2.31-3.95-5.85-3.95-10.63s1.31-8.24,3.95-10.55Z" fill="#121113"/>
  <path d="M522.79,9.66c-4.3-3.49-11.87-5.23-22.71-5.23h-16.51v-.08h-19.01c.43,10.42.64,20.16.64,29.23s-.22,18.82-.64,29.23h19.01v-18.68h11.84c5.1,8.05,8.83,14.28,11.19,18.68h21.91l-13.05-18.12c-.27-.48-.73-1.15-1.37-2.01,5.53-1.45,9.44-3.79,11.72-7.01,2.28-3.22,3.42-7.17,3.42-11.84,0-5.96-2.15-10.68-6.44-14.17ZM509.67,27.22c-.91.64-2.54,1.12-4.87,1.41-2.34.3-5.79.44-10.35.44h-10.87v-9.18h10.87c4.62,0,8.11.13,10.47.4,2.36.27,3.97.72,4.83,1.37.86.64,1.29,1.56,1.29,2.74s-.46,2.17-1.37,2.82Z" fill="#121113"/>
  <path d="M584.24,46.79c-6.34.32-11.06.51-14.17.56v-27.54c3.06.05,7.78.24,14.17.56V4.35h-46.79v16.03c6.17-.32,10.87-.51,14.09-.56v27.54c-3.22-.05-7.92-.24-14.09-.56v16.03h46.79v-16.03Z" fill="#121113"/>
  <path d="M310.05,136.43c5.74,5.15,14.68,7.73,26.82,7.73,7.41,0,14.25-1.29,20.54-3.87,6.28-2.58,10.76-7.11,13.45-13.61-6.87-2.95-12.51-5.61-16.91-7.97-1.24,3.22-3.17,5.57-5.8,7.05-2.63,1.48-6.18,2.21-10.63,2.21-5.58,0-9.73-1.36-12.44-4.07-2.71-2.71-4.07-6.21-4.07-10.51,0-3.97,1.26-7.31,3.79-10.03,2.52-2.71,6.36-4.07,11.52-4.07,3.49,0,6.91.72,10.27,2.17,3.35,1.45,5.81,3.68,7.37,6.68,6.5-3.33,12.16-5.82,16.99-7.49-5.75-11.65-17.1-17.48-34.07-17.48-12.13,0-21.07,2.79-26.82,8.38-5.75,5.58-8.62,13.18-8.62,22.79s2.87,16.91,8.62,22.07Z" fill="#121113"/>
  <path d="M398.54,143.35v-21.91h29.64v21.91h18.93c-.38-9.07-.56-18.82-.56-29.23s.19-20.16.56-29.23h-18.93v21.91h-29.64v-21.91h-18.93c.43,10.42.64,20.16.64,29.23s-.22,18.82-.64,29.23h18.93Z" fill="#121113"/>
  <path d="M476.37,84.88l-22.55,58.47h20.21l4.03-11.52h25.69c1.72,4.62,3.09,8.46,4.11,11.52h20.86l-22.71-58.47h-29.64ZM482.65,119.27c3.65-9.88,6.42-17.26,8.3-22.15l1.93,5.23c2.15,5.64,4.24,11.27,6.28,16.91h-16.51Z" fill="#121113"/>
  <path d="M555.6,127.08v-42.2h-19.65c.43,10.42.64,20.16.64,29.23s-.22,18.82-.64,29.23h56.78c0-3.6.08-6.66.24-9.18.16-2.52.59-5.15,1.29-7.89-10.2.43-23.09.7-38.66.81Z" fill="#121113"/>
  <path d="M364.54,171.78c-5.77-5.37-14.86-8.05-27.26-8.05s-21.41,2.69-27.18,8.05c-5.77,5.37-8.66,12.83-8.66,22.39,0,8.54,2.27,15.41,6.81,20.62,4.54,5.21,11.61,8.38,21.22,9.5,4.24,5.85,9.37,11.09,15.38,15.7,5.85-5.1,10.58-9.18,14.17-12.24-3.87-1.29-7.28-2.63-10.23-4.03,16.27-2.95,24.4-12.8,24.4-29.56,0-9.56-2.89-17.02-8.66-22.39ZM350.16,204.84c-2.63,2.28-6.93,3.42-12.89,3.42s-10.18-1.15-12.81-3.46c-2.63-2.31-3.95-5.85-3.95-10.63s1.31-8.24,3.95-10.55c2.63-2.31,6.9-3.46,12.81-3.46s10.25,1.16,12.89,3.46c2.63,2.31,3.95,5.83,3.95,10.55s-1.32,8.39-3.95,10.67Z" fill="#121113"/>
  <path d="M430.06,195.94c0,2.52-.2,4.59-.6,6.2-.4,1.61-1.68,3.07-3.83,4.39-2.15,1.32-5.53,1.97-10.15,1.97-4.24,0-7.32-.64-9.22-1.93-1.91-1.29-3.03-2.67-3.38-4.15-.35-1.48-.52-3.39-.52-5.76v-31.33h-19.97v32.62c-.11,8,2.17,14.46,6.85,19.37,4.67,4.91,13.34,7.37,26.01,7.37s21.41-2.58,26.7-7.73c5.29-5.15,7.99-11.68,8.09-19.57v-32.05h-19.97v30.6Z" fill="#121113"/>
  <path d="M479.61,200.77c2.58-.05,6.39-.08,11.44-.08,8.54,0,17.37.16,26.5.48v-13.85c-9.13.32-17.96.48-26.5.48-5.05,0-8.86-.03-11.44-.08v-7.73h43.57v-14.58h-62.58c.43,10.42.64,20.16.64,29.23s-.22,18.82-.64,29.23h62.58c0-3.54.04-6.48.12-8.82s.31-4.6.68-6.81c-9.18.48-23.97.78-44.37.89v-8.38Z" fill="#121113"/>
  <path d="M168.12,48.26l1.82,24.93-33.69-31.19-52.17,48.3,2.72,28.29-34.54-31.98L0,135.01l12.91,89.26h9.55l-11.32-78.33,36.42,23.93v54.4h9.45v-54.4l36.42-23.93-11.32,78.33h9.55l12.9-89.26-7.32-6.77-2.62-27.24,36.92,24.26v99.02h9.45v-99.02l36.92-24.26-11.85,123.27h9.49l12.88-133.97-8.32-7.7-1.73-23.73,37.15,24.4v141.01h9.45V83.26l37.14-24.4-12.09,165.41h9.47l12.86-176.01L220.24,0l-52.12,48.26ZM47.55,158.56l-34.56-22.7,34.56-32v54.71ZM56.99,158.56v-54.71l34.56,32-34.56,22.7ZM131.53,113.95l-34.56-22.7,34.56-32v54.71ZM140.98,113.95v-54.71l34.56,32-34.56,22.7ZM215.51,71.96l-34.56-22.7,34.56-32v54.71ZM224.96,17.25l34.56,32-34.56,22.7V17.25Z" fill="#121113"/>
</svg>